M48
; DRILL file {KiCad 9.0.2} date 2025-07-05T23:38:31-0400
; FORMAT={-:-/ absolute / metric / decimal}
; #@! TF.CreationDate,2025-07-05T23:38:31-04:00
; #@! TF.GenerationSoftware,Kicad,Pcbnew,9.0.2
; #@! TF.FileFunction,Plated,1,2,PTH
FMAT,2
METRIC
; #@! TA.AperFunction,Plated,PTH,ComponentDrill
T1C0.200
; #@! TA.AperFunction,Plated,PTH,ViaDrill
T2C0.300
; #@! TA.AperFunction,Plated,PTH,ComponentDrill
T3C0.300
; #@! TA.AperFunction,Plated,PTH,ViaDrill
T4C0.400
; #@! TA.AperFunction,Plated,PTH,ComponentDrill
T5C1.000
; #@! TA.AperFunction,Plated,PTH,ComponentDrill
T6C1.500
; #@! TA.AperFunction,Plated,PTH,ComponentDrill
T7C3.000
%
G90
G05
T1
X305.88Y-146.817
X305.88Y-149.017
X305.88Y-147.917
X306.98Y-146.817
X306.98Y-147.917
X306.98Y-149.017
X308.08Y-147.917
X308.08Y-146.817
X308.08Y-149.017
T2
X22.369Y-175.76
X22.369Y-177.26
X24.75Y-118.61
X24.75Y-120.11
X27.131Y-137.66
X27.131Y-139.16
X29.78Y-156.197
X30.019Y-175.76
X30.231Y-121.841
X30.86Y-175.017
X31.176Y-121.745
X31.894Y-156.71
X31.894Y-158.21
X32.4Y-118.61
X32.83Y-120.455
X33.3Y-117.897
X33.395Y-121.021
X34.781Y-137.66
X35.646Y-122.221
X35.92Y-137.027
X39.544Y-156.71
X40.58Y-155.967
X42.74Y-175.047
X46.181Y-175.76
X46.181Y-177.26
X47.55Y-118.007
X48.562Y-118.61
X48.562Y-120.11
X50.76Y-137.167
X52.731Y-178.17
X53.279Y-137.66
X53.279Y-139.16
X53.831Y-175.76
X54.03Y-122.221
X54.14Y-179.371
X55.09Y-174.987
X55.112Y-121.02
X56.15Y-122.221
X56.19Y-121.021
X56.212Y-118.61
X56.99Y-117.867
X59.386Y-161.111
X59.829Y-140.07
X60.223Y-161.123
X60.31Y-155.927
X60.7Y-141.271
X60.929Y-137.66
X61.546Y-161.524
X61.94Y-136.937
X62.85Y-156.71
X62.85Y-158.21
X66.66Y-175.157
X66.74Y-117.887
X67.413Y-122.622
X67.612Y-118.61
X67.612Y-120.11
X68.212Y-123.023
X69.4Y-159.12
X69.83Y-137.127
X69.994Y-175.76
X69.994Y-177.26
X70.5Y-156.71
X70.57Y-160.321
X71.38Y-155.927
X72.375Y-137.66
X72.375Y-139.16
X74.162Y-121.02
X75.26Y-122.622
X75.262Y-118.61
X76.44Y-117.887
X76.544Y-178.17
X77.644Y-175.76
X78.18Y-179.772
X78.424Y-161.123
X78.925Y-140.07
X79.273Y-161.123
X79.41Y-156.107
X79.957Y-123.023
X80.025Y-137.66
X80.22Y-141.672
X80.956Y-161.136
X81.24Y-137.117
X81.9Y-156.71
X81.9Y-158.21
X85.49Y-117.897
X86.525Y-124.543
X86.662Y-118.61
X86.662Y-120.11
X87.26Y-124.226
X88.45Y-159.12
X88.95Y-137.237
X89.55Y-156.71
X89.8Y-160.722
X90.42Y-155.937
X90.808Y-174.944
X91.425Y-137.66
X91.425Y-139.16
X92.403Y-176.18
X92.67Y-173.343
X94.312Y-118.61
X95.28Y-117.907
X98.127Y-176.19
X98.19Y-173.343
X98.47Y-155.937
X99.075Y-137.66
X99.712Y-174.944
X99.94Y-124.265
X100.1Y-137.057
X100.95Y-156.71
X100.95Y-158.21
X104.69Y-117.947
X105.537Y-125.059
X105.712Y-118.61
X105.712Y-120.11
X106.313Y-124.627
X108.11Y-137.147
X108.6Y-156.71
X109.6Y-156.027
X110.475Y-175.76
X110.475Y-177.26
X110.475Y-137.66
X110.475Y-139.16
X112.262Y-121.02
X113.3Y-122.221
X113.362Y-118.61
X114.79Y-117.887
X117.025Y-140.07
X117.896Y-141.271
X118.125Y-175.76
X118.125Y-137.66
X118.99Y-124.226
X119.18Y-137.017
X119.69Y-155.907
X120.0Y-156.71
X120.0Y-158.21
X123.72Y-117.987
X124.563Y-123.023
X124.564Y-126.229
X124.762Y-118.61
X124.762Y-120.11
X125.362Y-123.425
X125.362Y-125.829
X126.55Y-159.12
X127.05Y-137.027
X127.65Y-156.71
X127.72Y-160.321
X128.56Y-156.027
X128.878Y-174.944
X129.525Y-137.66
X129.525Y-139.16
X130.498Y-176.155
X130.65Y-173.343
X131.312Y-121.02
X132.41Y-122.622
X132.412Y-118.61
X133.32Y-117.937
X136.075Y-140.07
X137.107Y-123.023
X137.175Y-137.66
X137.37Y-141.672
X138.121Y-125.828
X138.18Y-136.897
X138.35Y-155.957
X139.05Y-156.71
X139.05Y-158.21
X142.89Y-117.947
X143.613Y-125.429
X143.812Y-118.61
X143.812Y-120.11
X144.412Y-126.029
X145.6Y-159.12
X146.16Y-137.077
X146.7Y-156.71
X146.95Y-160.722
X147.49Y-155.937
X148.575Y-137.66
X148.575Y-139.16
X151.462Y-118.61
X152.42Y-117.887
X155.247Y-176.19
X155.28Y-173.343
X155.49Y-155.977
X156.225Y-137.66
X156.832Y-174.944
X157.171Y-126.231
X157.36Y-137.137
X158.1Y-156.71
X158.1Y-158.21
X161.86Y-117.917
X162.663Y-125.429
X162.862Y-118.61
X162.862Y-120.11
X163.463Y-125.429
X164.57Y-137.357
X165.75Y-156.71
X166.58Y-155.967
X167.625Y-137.66
X167.625Y-139.16
X167.625Y-175.76
X167.625Y-177.26
X168.868Y-142.096
X169.412Y-121.02
X170.375Y-142.474
X170.45Y-122.221
X170.512Y-118.61
X171.7Y-117.857
X174.175Y-140.07
X175.046Y-141.271
X175.275Y-137.66
X175.275Y-175.76
X176.14Y-125.429
X176.33Y-137.077
X176.51Y-155.897
X177.15Y-156.71
X177.15Y-158.21
X179.969Y-142.073
X180.87Y-117.897
X181.713Y-125.429
X181.912Y-118.61
X181.912Y-120.11
X182.512Y-125.83
X183.7Y-159.12
X183.98Y-137.137
X184.8Y-156.71
X184.87Y-160.321
X185.68Y-155.907
X186.068Y-174.944
X186.675Y-137.66
X186.675Y-139.16
X187.262Y-176.58
X187.3Y-173.097
X188.396Y-142.568
X188.462Y-121.02
X189.431Y-142.474
X189.56Y-122.622
X189.562Y-118.61
X190.83Y-117.997
X193.225Y-140.07
X193.569Y-176.371
X193.57Y-173.167
X194.325Y-137.66
X194.52Y-141.672
X194.972Y-174.944
X195.19Y-125.429
X195.39Y-136.987
X195.48Y-155.897
X196.2Y-156.71
X196.2Y-158.21
X199.019Y-142.073
X199.97Y-117.957
X200.962Y-118.61
X200.962Y-120.11
X202.75Y-159.12
X203.16Y-137.117
X203.85Y-156.71
X204.1Y-160.722
X204.95Y-155.947
X205.725Y-137.66
X205.725Y-139.16
X206.5Y-175.457
X206.946Y-142.073
X208.106Y-175.76
X208.106Y-177.26
X208.481Y-142.474
X208.612Y-118.61
X209.7Y-117.927
X212.89Y-156.227
X213.375Y-137.66
X214.31Y-136.917
X215.25Y-156.71
X215.25Y-158.21
X215.756Y-175.76
X217.03Y-175.097
X218.069Y-142.073
X218.91Y-117.967
X219.813Y-126.632
X220.012Y-118.61
X220.012Y-120.11
X220.612Y-127.069
X222.11Y-137.047
X222.9Y-156.71
X223.71Y-156.007
X224.775Y-137.66
X224.775Y-139.16
X226.284Y-142.474
X226.562Y-121.02
X227.501Y-142.474
X227.6Y-122.221
X227.662Y-118.61
X228.75Y-175.577
X228.83Y-117.977
X229.059Y-121.422
X231.325Y-140.07
X231.87Y-175.76
X231.87Y-177.26
X231.97Y-156.087
X232.196Y-141.271
X232.425Y-137.66
X233.45Y-136.947
X234.074Y-163.128
X234.3Y-156.71
X234.3Y-158.21
X234.518Y-125.028
X234.681Y-163.649
X235.305Y-124.627
X235.858Y-163.128
X236.105Y-124.226
X236.862Y-123.825
X236.97Y-136.947
X237.119Y-142.073
X237.662Y-123.424
X237.96Y-117.997
X238.419Y-178.17
X238.462Y-123.023
X239.062Y-118.61
X239.062Y-120.11
X239.263Y-124.984
X239.409Y-142.209
X239.519Y-175.76
X239.828Y-179.371
X239.987Y-124.331
X240.225Y-150.2
X240.4Y-139.837
X240.85Y-159.12
X240.949Y-151.907
X241.01Y-175.227
X241.601Y-142.209
X241.95Y-156.71
X242.02Y-160.321
X242.625Y-150.9
X243.224Y-159.121
X243.42Y-136.847
X243.793Y-142.209
X243.825Y-137.66
X243.825Y-139.16
X244.54Y-163.83
X244.6Y-156.977
X245.612Y-121.02
X245.67Y-145.698
X245.942Y-152.537
X245.985Y-142.209
X245.99Y-148.294
X245.994Y-147.31
X246.017Y-164.95
X246.025Y-151.2
X246.175Y-146.319
X246.2Y-156.977
X246.693Y-147.699
X246.71Y-122.622
X246.712Y-118.61
X246.754Y-165.687
X247.362Y-152.495
X247.627Y-151.295
X247.63Y-117.897
X247.8Y-156.977
X248.113Y-146.25
X248.177Y-142.209
X248.6Y-155.537
X248.836Y-150.383
X249.34Y-177.987
X249.4Y-156.977
X249.402Y-150.948
X249.568Y-141.672
X250.369Y-142.209
X250.375Y-140.07
X250.726Y-130.745
X250.802Y-165.49
X250.802Y-166.29
X250.802Y-167.09
X251.0Y-156.977
X251.101Y-178.571
X251.475Y-137.66
X251.56Y-132.17
X251.91Y-179.572
X251.942Y-130.55
X252.443Y-178.972
X252.6Y-156.977
X252.64Y-136.937
X253.441Y-137.658
X253.66Y-163.327
X253.7Y-175.117
X253.725Y-135.0
X253.85Y-140.84
X254.123Y-157.903
X254.2Y-156.977
X254.38Y-144.417
X254.625Y-140.1
X254.699Y-135.21
X254.976Y-177.57
X255.45Y-140.84
X255.499Y-135.21
X255.714Y-175.76
X255.714Y-177.26
X255.8Y-156.977
X256.272Y-131.92
X256.298Y-135.191
X256.45Y-144.727
X256.502Y-137.646
X256.61Y-155.557
X257.05Y-140.84
X257.072Y-131.92
X257.098Y-157.275
X257.098Y-135.21
X257.23Y-117.907
X257.43Y-124.537
X257.71Y-137.245
X257.861Y-123.014
X257.898Y-135.21
X258.039Y-122.234
X258.09Y-131.737
X258.112Y-118.61
X258.112Y-120.11
X258.89Y-149.69
X258.94Y-134.727
X258.978Y-154.843
X258.98Y-160.877
X259.397Y-156.677
X259.689Y-149.728
X261.95Y-156.677
X262.24Y-170.347
X263.364Y-175.76
X264.86Y-160.857
X265.762Y-118.61
X265.98Y-175.577
X266.05Y-173.157
X266.43Y-117.817
X266.869Y-157.408
X267.08Y-134.597
X267.69Y-163.257
X268.32Y-131.757
X268.931Y-171.59
X269.531Y-170.79
X269.86Y-173.277
X269.981Y-156.71
X269.981Y-158.21
X270.131Y-170.182
X270.65Y-133.937
X271.5Y-168.077
X271.86Y-143.637
X273.55Y-147.317
X274.27Y-167.357
X274.781Y-137.66
X274.781Y-139.16
X274.813Y-136.844
X275.361Y-160.321
X275.428Y-171.045
X275.436Y-170.204
X275.449Y-169.369
X276.531Y-159.12
X276.99Y-123.267
X277.631Y-156.71
X277.91Y-158.987
X278.288Y-123.023
X278.45Y-175.247
X278.64Y-171.267
X279.28Y-120.907
X279.409Y-123.032
X280.46Y-141.271
X281.06Y-117.794
X281.331Y-140.07
X281.83Y-153.777
X281.925Y-118.61
X281.925Y-120.11
X281.925Y-175.76
X281.925Y-177.26
X282.1Y-161.347
X282.431Y-137.66
X283.45Y-136.997
X284.26Y-151.057
X284.54Y-168.187
X284.691Y-153.945
X285.256Y-153.38
X285.81Y-141.647
X285.822Y-152.814
X285.9Y-165.817
X286.388Y-152.248
X286.953Y-151.682
X287.066Y-179.371
X287.241Y-156.495
X287.437Y-122.221
X287.806Y-155.929
X288.14Y-157.827
X288.31Y-146.567
X288.372Y-155.364
X288.475Y-121.02
X288.475Y-178.17
X288.938Y-154.798
X289.517Y-154.246
X289.575Y-118.61
X289.575Y-175.76
X290.49Y-155.207
X290.65Y-121.021
X290.737Y-147.517
X291.051Y-123.023
X291.083Y-178.144
X291.25Y-135.427
X291.303Y-146.951
X291.45Y-120.62
X291.628Y-175.84
X291.844Y-123.127
X291.869Y-148.649
X291.883Y-178.156
X292.25Y-120.62
X292.683Y-178.155
X292.719Y-148.367
X292.91Y-139.747
X293.49Y-148.987
X293.921Y-177.854
X294.43Y-117.987
X295.41Y-123.517
X295.88Y-145.537
X296.18Y-120.657
X296.27Y-148.377
X296.424Y-161.371
X296.989Y-144.358
X297.588Y-145.008
X298.56Y-120.347
X298.84Y-125.027
X298.888Y-145.117
X299.138Y-149.858
X299.188Y-154.308
X299.35Y-169.677
X299.36Y-142.837
X299.36Y-143.853
X299.46Y-173.317
X300.188Y-150.108
X300.28Y-175.027
X301.934Y-153.331
X302.224Y-167.963
X302.831Y-152.481
X302.916Y-140.424
X303.435Y-154.405
X303.932Y-140.424
X305.09Y-137.907
X305.658Y-155.25
X305.71Y-145.758
X306.181Y-152.858
X306.345Y-150.016
X306.69Y-125.027
X306.938Y-155.25
X306.988Y-139.412
X307.238Y-142.665
X307.479Y-135.582
X307.996Y-139.408
X308.446Y-130.448
X308.612Y-167.352
X308.669Y-136.729
X308.738Y-160.378
X309.336Y-153.11
X309.788Y-164.908
X309.811Y-160.481
X310.604Y-129.257
X311.019Y-153.001
X311.088Y-159.958
X311.423Y-134.615
X311.688Y-144.158
X311.79Y-151.98
X311.899Y-136.707
X313.338Y-138.833
X313.687Y-155.709
X313.919Y-153.678
X314.252Y-156.274
X314.572Y-144.488
X314.572Y-149.314
X314.684Y-132.994
X314.974Y-123.023
X314.988Y-161.808
X315.249Y-116.264
X315.37Y-163.267
X315.371Y-134.551
X315.968Y-142.013
X315.999Y-136.632
X316.583Y-175.755
X317.448Y-157.928
X317.45Y-133.507
X318.63Y-145.037
X318.64Y-148.877
X318.724Y-135.632
X318.749Y-136.632
X319.362Y-177.854
X319.64Y-165.837
X319.8Y-159.067
X320.27Y-139.587
X320.46Y-136.207
X320.564Y-178.156
X320.71Y-158.451
X321.201Y-175.829
X321.24Y-132.637
X321.351Y-157.811
X321.364Y-178.156
X321.951Y-154.497
X322.164Y-178.156
X322.42Y-175.741
X322.51Y-138.597
X322.71Y-158.867
X322.76Y-162.827
X323.01Y-156.657
X323.09Y-144.757
X323.106Y-177.477
X323.786Y-155.875
X324.187Y-121.021
X324.187Y-123.023
X324.787Y-118.61
X324.787Y-120.11
X324.787Y-137.66
X324.787Y-139.16
X324.787Y-156.71
X324.787Y-158.21
X324.787Y-175.76
X324.787Y-177.26
X324.87Y-153.847
X325.09Y-134.937
X326.05Y-144.397
X329.701Y-179.772
X329.987Y-160.722
X330.042Y-141.672
X330.24Y-122.622
X331.17Y-173.207
X331.19Y-150.767
X331.337Y-121.02
X331.337Y-140.07
X331.337Y-159.12
X331.337Y-178.17
X331.46Y-112.407
X331.51Y-131.697
X331.73Y-143.127
X332.437Y-118.61
X332.437Y-137.66
X332.437Y-156.71
X332.437Y-175.76
X332.904Y-123.023
X333.17Y-178.117
X333.37Y-112.697
X333.51Y-156.017
X335.13Y-117.967
X335.27Y-154.207
X335.41Y-173.247
X335.49Y-134.837
X335.51Y-140.017
X342.9Y-159.017
X343.1Y-117.827
X343.13Y-178.117
X343.638Y-123.023
X343.638Y-161.524
X343.837Y-118.61
X343.837Y-120.11
X343.837Y-137.66
X343.837Y-139.16
X343.837Y-156.71
X343.837Y-158.21
X343.837Y-175.76
X343.837Y-177.26
X344.437Y-123.424
X344.438Y-161.524
X351.487Y-118.61
X351.487Y-137.66
X351.487Y-156.71
X351.487Y-175.76
X352.352Y-160.731
X352.434Y-123.424
X352.47Y-156.067
X356.75Y-112.937
X357.14Y-124.467
X357.17Y-161.097
X357.21Y-142.057
X358.43Y-113.977
X361.93Y-159.007
X362.688Y-122.622
X362.887Y-118.61
X362.887Y-120.11
X362.887Y-137.66
X362.887Y-139.16
X362.887Y-156.71
X362.887Y-158.21
X362.887Y-175.76
X362.887Y-177.26
X363.488Y-123.023
X370.537Y-118.61
X370.537Y-137.66
X370.537Y-156.71
X370.537Y-175.76
X371.402Y-123.022
X381.738Y-122.22
X381.937Y-118.61
X381.937Y-120.11
X381.937Y-137.66
X381.937Y-139.16
X381.937Y-156.71
X381.937Y-158.21
X381.937Y-175.76
X381.937Y-177.26
X382.538Y-122.22
X389.587Y-118.61
X389.587Y-137.66
X389.587Y-156.71
X389.587Y-175.76
T3
X253.237Y-148.677
X253.237Y-149.903
X253.85Y-149.29
X254.462Y-148.677
X254.462Y-149.903
T4
X244.85Y-149.275
X256.95Y-145.79
X259.015Y-138.37
X259.928Y-147.489
X260.125Y-138.5
X260.225Y-140.1
X260.625Y-137.7
X260.825Y-139.3
X261.125Y-142.4
X261.325Y-137.0
X261.325Y-138.4
X261.625Y-141.6
X261.925Y-137.7
X261.989Y-148.061
X262.125Y-140.7
X262.125Y-142.4
X262.425Y-136.8
X262.625Y-141.6
X263.125Y-140.7
X263.125Y-142.4
X263.625Y-141.6
X264.125Y-140.7
X264.393Y-149.721
X264.625Y-144.7
X267.407Y-145.8
X269.26Y-154.597
X270.625Y-138.2
X276.325Y-142.4
X279.225Y-142.4
X281.95Y-149.267
X284.325Y-140.3
X284.708Y-150.093
X292.76Y-143.557
X293.288Y-131.368
X294.388Y-131.858
X296.338Y-140.608
X298.288Y-129.908
X298.425Y-127.0
X298.988Y-133.958
X301.848Y-127.318
X304.418Y-170.839
X304.8Y-154.1
X305.598Y-128.318
X309.479Y-166.077
X311.04Y-126.578
X311.045Y-132.478
X312.158Y-166.374
X313.51Y-126.758
X315.134Y-170.839
X333.137Y-135.32
X333.166Y-116.26
X333.538Y-136.76
X333.803Y-144.669
X333.905Y-117.779
X334.342Y-143.826
X334.999Y-143.072
X335.712Y-142.371
T5
X302.312Y-111.8
X302.312Y-114.3
X302.312Y-116.8
X316.812Y-111.8
X316.812Y-116.8
T7
X22.384Y-168.91
X24.765Y-111.76
X27.146Y-130.81
X28.734Y-166.37
X31.115Y-109.22
X31.909Y-149.86
X33.496Y-128.27
X38.259Y-147.32
X46.196Y-168.91
X48.578Y-111.76
X52.546Y-166.37
X53.34Y-130.81
X54.927Y-109.22
X59.69Y-128.27
X62.865Y-149.86
X67.627Y-111.76
X69.215Y-147.32
X70.009Y-168.91
X72.39Y-130.81
X73.977Y-109.22
X76.359Y-166.37
X78.74Y-128.27
X81.915Y-149.86
X86.677Y-111.76
X88.265Y-147.32
X91.44Y-130.81
X93.027Y-109.22
X97.79Y-128.27
X100.965Y-149.86
X105.727Y-111.76
X107.315Y-147.32
X110.49Y-130.81
X110.49Y-168.91
X112.078Y-109.22
X116.84Y-128.27
X116.84Y-166.37
X120.015Y-149.86
X124.777Y-111.76
X126.365Y-147.32
X129.54Y-130.81
X131.127Y-109.22
X135.89Y-128.27
X139.065Y-149.86
X143.827Y-111.76
X145.415Y-147.32
X148.59Y-130.81
X150.177Y-109.22
X154.94Y-128.27
X158.115Y-149.86
X162.877Y-111.76
X164.465Y-147.32
X167.64Y-130.81
X167.64Y-168.91
X169.227Y-109.22
X173.99Y-128.27
X173.99Y-166.37
X177.165Y-149.86
X181.927Y-111.76
X183.515Y-147.32
X186.69Y-130.81
X188.278Y-109.22
X193.04Y-128.27
X196.215Y-149.86
X200.977Y-111.76
X202.565Y-147.32
X205.74Y-130.81
X207.327Y-109.22
X208.121Y-168.91
X212.09Y-128.27
X214.471Y-166.37
X215.265Y-149.86
X220.028Y-111.76
X221.615Y-147.32
X224.79Y-130.81
X226.377Y-109.22
X231.14Y-128.27
X231.902Y-168.91
X234.315Y-149.86
X238.252Y-166.37
X239.077Y-111.76
X240.665Y-147.32
X243.84Y-130.81
X245.427Y-109.22
X250.19Y-128.27
X255.746Y-168.91
X258.127Y-111.76
X262.096Y-166.37
X264.477Y-109.22
X270.013Y-149.86
X274.796Y-130.81
X276.363Y-147.32
X281.146Y-128.27
X281.94Y-111.76
X281.94Y-168.91
X288.29Y-109.22
X288.29Y-166.37
X324.803Y-111.76
X324.803Y-130.81
X324.803Y-149.86
X324.803Y-168.91
X331.152Y-109.22
X331.152Y-128.27
X331.152Y-147.32
X331.152Y-166.37
X343.852Y-111.76
X343.852Y-130.81
X343.852Y-149.86
X343.852Y-168.91
X350.202Y-109.22
X350.202Y-128.27
X350.202Y-147.32
X350.202Y-166.37
X362.902Y-111.76
X362.902Y-130.81
X362.902Y-149.86
X362.902Y-168.91
X369.252Y-109.22
X369.252Y-128.27
X369.252Y-147.32
X369.252Y-166.37
X381.952Y-111.76
X381.952Y-130.81
X381.952Y-149.86
X381.952Y-168.91
X388.303Y-109.22
X388.303Y-128.27
X388.303Y-147.32
X388.303Y-166.37
T6
G00X309.162Y-108.7
M15
G01X310.462Y-108.7
M16
G05
G00X309.162Y-119.9
M15
G01X310.462Y-119.9
M16
G05
M30
