M48
; DRILL file {KiCad 9.0.2} date 2025-07-05T23:38:31-0400
; FORMAT={-:-/ absolute / metric / decimal}
; #@! TF.CreationDate,2025-07-05T23:38:31-04:00
; #@! TF.GenerationSoftware,Kicad,Pcbnew,9.0.2
; #@! TF.FileFunction,NonPlated,1,2,NPTH
FMAT,2
METRIC
; #@! TA.AperFunction,NonPlated,NPTH,ComponentDrill
T1C1.750
; #@! TA.AperFunction,NonPlated,NPTH,ComponentDrill
T2C2.200
; #@! TA.AperFunction,NonPlated,NPTH,ComponentDrill
T3C3.048
; #@! TA.AperFunction,NonPlated,NPTH,ComponentDrill
T4C3.988
%
G90
G05
T1
X21.114Y-171.45
X23.495Y-114.3
X25.876Y-133.35
X30.639Y-152.4
X31.274Y-171.45
X33.655Y-114.3
X36.036Y-133.35
X40.799Y-152.4
X44.926Y-171.45
X47.307Y-114.3
X52.07Y-133.35
X55.086Y-171.45
X57.467Y-114.3
X61.595Y-152.4
X62.23Y-133.35
X66.358Y-114.3
X68.739Y-171.45
X71.12Y-133.35
X71.755Y-152.4
X76.517Y-114.3
X78.899Y-171.45
X80.645Y-152.4
X81.28Y-133.35
X85.407Y-114.3
X90.17Y-133.35
X90.805Y-152.4
X95.567Y-114.3
X99.695Y-152.4
X100.33Y-133.35
X104.457Y-114.3
X109.22Y-133.35
X109.22Y-171.45
X109.855Y-152.4
X114.617Y-114.3
X118.745Y-152.4
X119.38Y-133.35
X119.38Y-171.45
X123.507Y-114.3
X128.27Y-133.35
X128.905Y-152.4
X133.667Y-114.3
X137.795Y-152.4
X138.43Y-133.35
X142.558Y-114.3
X147.32Y-133.35
X147.955Y-152.4
X152.718Y-114.3
X156.845Y-152.4
X157.48Y-133.35
X161.607Y-114.3
X166.37Y-133.35
X166.37Y-171.45
X167.005Y-152.4
X171.767Y-114.3
X175.895Y-152.4
X176.53Y-133.35
X176.53Y-171.45
X180.657Y-114.3
X185.42Y-133.35
X186.055Y-152.4
X190.817Y-114.3
X194.945Y-152.4
X195.58Y-133.35
X199.707Y-114.3
X204.47Y-133.35
X205.105Y-152.4
X206.851Y-171.45
X209.867Y-114.3
X213.995Y-152.4
X214.63Y-133.35
X217.011Y-171.45
X218.757Y-114.3
X223.52Y-133.35
X224.155Y-152.4
X228.917Y-114.3
X230.632Y-171.45
X233.045Y-152.4
X233.68Y-133.35
X237.807Y-114.3
X240.792Y-171.45
X242.57Y-133.35
X243.205Y-152.4
X247.968Y-114.3
X252.73Y-133.35
X254.476Y-171.45
X256.858Y-114.3
X264.636Y-171.45
X267.017Y-114.3
X268.743Y-152.4
X273.526Y-133.35
X278.903Y-152.4
X280.67Y-114.3
X280.67Y-171.45
X283.686Y-133.35
X290.83Y-114.3
X290.83Y-171.45
X323.532Y-114.3
X323.532Y-133.35
X323.532Y-152.4
X323.532Y-171.45
X333.692Y-114.3
X333.692Y-133.35
X333.692Y-152.4
X333.692Y-171.45
X342.582Y-114.3
X342.582Y-133.35
X342.582Y-152.4
X342.582Y-171.45
X352.743Y-114.3
X352.743Y-133.35
X352.743Y-152.4
X352.743Y-171.45
X361.632Y-114.3
X361.632Y-133.35
X361.632Y-152.4
X361.632Y-171.45
X371.792Y-114.3
X371.792Y-133.35
X371.792Y-152.4
X371.792Y-171.45
X380.683Y-114.3
X380.683Y-133.35
X380.683Y-152.4
X380.683Y-171.45
X390.842Y-114.3
X390.842Y-133.35
X390.842Y-152.4
X390.842Y-171.45
T2
X38.1Y-161.925
X42.862Y-123.825
X247.65Y-161.925
X252.412Y-123.825
X319.087Y-123.825
X376.237Y-123.825
X376.237Y-161.925
T3
X23.812Y-145.415
X47.625Y-145.415
X95.25Y-178.435
X133.35Y-178.435
X152.4Y-178.435
X190.5Y-178.435
X261.937Y-145.405
X266.7Y-126.365
X285.75Y-145.405
X290.512Y-126.365
T4
X23.812Y-160.655
X26.194Y-171.45
X28.575Y-114.3
X30.956Y-133.35
X35.719Y-152.4
X47.625Y-160.655
X50.006Y-171.45
X52.387Y-114.3
X57.15Y-133.35
X66.675Y-152.4
X71.438Y-114.3
X73.819Y-171.45
X76.2Y-133.35
X85.725Y-152.4
X90.487Y-114.3
X95.25Y-133.35
X95.25Y-163.195
X104.775Y-152.4
X109.537Y-114.3
X114.3Y-133.35
X114.3Y-171.45
X123.825Y-152.4
X128.588Y-114.3
X133.35Y-133.35
X133.35Y-163.195
X142.875Y-152.4
X147.637Y-114.3
X152.4Y-133.35
X152.4Y-163.195
X161.925Y-152.4
X166.688Y-114.3
X171.45Y-133.35
X171.45Y-171.45
X180.975Y-152.4
X185.737Y-114.3
X190.5Y-133.35
X190.5Y-163.195
X200.025Y-152.4
X204.787Y-114.3
X209.55Y-133.35
X211.931Y-171.45
X219.075Y-152.4
X223.837Y-114.3
X228.6Y-133.35
X235.712Y-171.45
X238.125Y-152.4
X242.887Y-114.3
X247.65Y-133.35
X259.556Y-171.45
X261.937Y-160.645
X261.938Y-114.3
X266.7Y-141.605
X273.823Y-152.4
X278.606Y-133.35
X285.75Y-160.645
X285.75Y-114.3
X285.75Y-171.45
X290.512Y-141.605
X328.613Y-114.3
X328.613Y-133.35
X328.613Y-152.4
X328.613Y-171.45
X347.662Y-114.3
X347.662Y-133.35
X347.662Y-152.4
X347.662Y-171.45
X366.712Y-114.3
X366.712Y-133.35
X366.712Y-152.4
X366.712Y-171.45
X385.762Y-114.3
X385.762Y-133.35
X385.762Y-152.4
X385.762Y-171.45
M30
