G04 #@! TF.GenerationSoftware,KiCad,Pcbnew,9.0.2*
G04 #@! TF.CreationDate,2025-07-05T23:37:42-04:00*
G04 #@! TF.ProjectId,The-GarlicBoard-2.1-ANSI,5468652d-4761-4726-9c69-63426f617264,rev?*
G04 #@! TF.SameCoordinates,Original*
G04 #@! TF.FileFunction,Soldermask,Top*
G04 #@! TF.FilePolarity,Negative*
%FSLAX46Y46*%
G04 Gerber Fmt 4.6, Leading zero omitted, Abs format (unit mm)*
G04 Created by KiCad (PCBNEW 9.0.2) date 2025-07-05 23:37:42*
%MOMM*%
%LPD*%
G01*
G04 APERTURE LIST*
%ADD10C,3.048000*%
%ADD11C,3.987800*%
%ADD12C,2.200000*%
%ADD13R,1.100000X1.800000*%
%ADD14R,2.000000X2.000000*%
%ADD15C,2.000000*%
%ADD16R,3.200000X2.000000*%
%ADD17C,1.750000*%
%ADD18C,3.300000*%
%ADD19C,0.400000*%
G04 APERTURE END LIST*
D10*
X190500000Y-178435000D03*
D11*
X190500000Y-163195000D03*
D10*
X152400000Y-178435000D03*
D11*
X152400000Y-163195000D03*
D10*
X23812500Y-145415000D03*
D11*
X23812500Y-160655000D03*
D10*
X47625000Y-145415000D03*
D11*
X47625000Y-160655000D03*
D12*
X376237184Y-161924864D03*
X38100000Y-161925000D03*
D10*
X261937480Y-145405084D03*
D11*
X261937480Y-160645084D03*
D10*
X285749980Y-145405084D03*
D11*
X285749980Y-160645084D03*
D12*
X376237184Y-123824896D03*
X247650000Y-161925000D03*
X252412500Y-123825000D03*
X42862500Y-123825000D03*
X319087500Y-123825000D03*
D10*
X133350000Y-178435000D03*
D11*
X133350000Y-163195000D03*
D10*
X95250000Y-178435000D03*
D11*
X95250000Y-163195000D03*
D13*
X291779999Y-159576904D03*
X291779999Y-153376904D03*
X295480001Y-159576904D03*
X295480001Y-153376904D03*
D14*
X302312240Y-111799904D03*
D15*
X302312240Y-116799904D03*
X302312240Y-114299904D03*
D16*
X309812240Y-108699904D03*
X309812240Y-119899904D03*
D15*
X316812240Y-116799904D03*
X316812240Y-111799904D03*
D17*
X214630000Y-133350000D03*
D11*
X209550000Y-133350000D03*
D17*
X204470000Y-133350000D03*
D18*
X205740000Y-130810000D03*
X212090000Y-128270000D03*
D17*
X100330000Y-133350000D03*
D11*
X95250000Y-133350000D03*
D17*
X90170000Y-133350000D03*
D18*
X91440000Y-130810000D03*
X97790000Y-128270000D03*
D17*
X390842500Y-171450000D03*
D11*
X385762500Y-171450000D03*
D17*
X380682500Y-171450000D03*
D18*
X381952500Y-168910000D03*
X388302500Y-166370000D03*
D17*
X247967500Y-114300000D03*
D11*
X242887500Y-114300000D03*
D17*
X237807500Y-114300000D03*
D18*
X239077500Y-111760000D03*
X245427500Y-109220000D03*
D17*
X278903056Y-152399872D03*
D11*
X273823056Y-152399872D03*
D17*
X268743056Y-152399872D03*
D18*
X270013056Y-149859872D03*
X276363056Y-147319872D03*
D17*
X290830000Y-171450000D03*
D11*
X285750000Y-171450000D03*
D17*
X280670000Y-171450000D03*
D18*
X281940000Y-168910000D03*
X288290000Y-166370000D03*
D17*
X78898750Y-171450000D03*
D11*
X73818750Y-171450000D03*
D17*
X68738750Y-171450000D03*
D18*
X70008750Y-168910000D03*
X76358750Y-166370000D03*
D17*
X186055000Y-152400000D03*
D11*
X180975000Y-152400000D03*
D17*
X175895000Y-152400000D03*
D18*
X177165000Y-149860000D03*
X183515000Y-147320000D03*
D17*
X243205000Y-152400000D03*
D11*
X238125000Y-152400000D03*
D17*
X233045000Y-152400000D03*
D18*
X234315000Y-149860000D03*
X240665000Y-147320000D03*
D17*
X157480000Y-133350000D03*
D11*
X152400000Y-133350000D03*
D17*
X147320000Y-133350000D03*
D18*
X148590000Y-130810000D03*
X154940000Y-128270000D03*
D17*
X283686250Y-133350000D03*
D11*
X278606250Y-133350000D03*
D17*
X273526250Y-133350000D03*
D18*
X274796250Y-130810000D03*
X281146250Y-128270000D03*
D17*
X209867500Y-114300000D03*
D11*
X204787500Y-114300000D03*
D17*
X199707500Y-114300000D03*
D18*
X200977500Y-111760000D03*
X207327500Y-109220000D03*
D17*
X176530000Y-171450000D03*
D11*
X171450000Y-171450000D03*
D17*
X166370000Y-171450000D03*
D18*
X167640000Y-168910000D03*
X173990000Y-166370000D03*
D17*
X147955000Y-152400000D03*
D11*
X142875000Y-152400000D03*
D17*
X137795000Y-152400000D03*
D18*
X139065000Y-149860000D03*
X145415000Y-147320000D03*
D17*
X128905000Y-152400000D03*
D11*
X123825000Y-152400000D03*
D17*
X118745000Y-152400000D03*
D18*
X120015000Y-149860000D03*
X126365000Y-147320000D03*
D17*
X62230000Y-133350000D03*
D11*
X57150000Y-133350000D03*
D17*
X52070000Y-133350000D03*
D18*
X53340000Y-130810000D03*
X59690000Y-128270000D03*
D17*
X333692500Y-171450000D03*
D11*
X328612500Y-171450000D03*
D17*
X323532500Y-171450000D03*
D18*
X324802500Y-168910000D03*
X331152500Y-166370000D03*
D17*
X95567500Y-114300000D03*
D11*
X90487500Y-114300000D03*
D17*
X85407500Y-114300000D03*
D18*
X86677500Y-111760000D03*
X93027500Y-109220000D03*
D17*
X76517500Y-114300000D03*
D11*
X71437500Y-114300000D03*
D17*
X66357500Y-114300000D03*
D18*
X67627500Y-111760000D03*
X73977500Y-109220000D03*
D17*
X371792500Y-133350000D03*
D11*
X366712500Y-133350000D03*
D17*
X361632500Y-133350000D03*
D18*
X362902500Y-130810000D03*
X369252500Y-128270000D03*
D17*
X240792000Y-171450000D03*
D11*
X235712000Y-171450000D03*
D17*
X230632000Y-171450000D03*
D18*
X231902000Y-168910000D03*
X238252000Y-166370000D03*
D17*
X290830000Y-114300000D03*
D11*
X285750000Y-114300000D03*
D17*
X280670000Y-114300000D03*
D18*
X281940000Y-111760000D03*
X288290000Y-109220000D03*
D17*
X81280000Y-133350000D03*
D11*
X76200000Y-133350000D03*
D17*
X71120000Y-133350000D03*
D18*
X72390000Y-130810000D03*
X78740000Y-128270000D03*
D17*
X264636250Y-171450000D03*
D11*
X259556250Y-171450000D03*
D17*
X254476250Y-171450000D03*
D18*
X255746250Y-168910000D03*
X262096250Y-166370000D03*
D17*
X371792500Y-171450000D03*
D11*
X366712500Y-171450000D03*
D17*
X361632500Y-171450000D03*
D18*
X362902500Y-168910000D03*
X369252500Y-166370000D03*
D17*
X119380000Y-133350000D03*
D11*
X114300000Y-133350000D03*
D17*
X109220000Y-133350000D03*
D18*
X110490000Y-130810000D03*
X116840000Y-128270000D03*
D17*
X138430000Y-133350000D03*
D11*
X133350000Y-133350000D03*
D17*
X128270000Y-133350000D03*
D18*
X129540000Y-130810000D03*
X135890000Y-128270000D03*
D17*
X390842500Y-133350000D03*
D11*
X385762500Y-133350000D03*
D17*
X380682500Y-133350000D03*
D18*
X381952500Y-130810000D03*
X388302500Y-128270000D03*
D17*
X352742500Y-152400000D03*
D11*
X347662500Y-152400000D03*
D17*
X342582500Y-152400000D03*
D18*
X343852500Y-149860000D03*
X350202500Y-147320000D03*
D17*
X333692500Y-133350000D03*
D11*
X328612500Y-133350000D03*
D17*
X323532500Y-133350000D03*
D18*
X324802500Y-130810000D03*
X331152500Y-128270000D03*
D17*
X333692500Y-152400000D03*
D11*
X328612500Y-152400000D03*
D17*
X323532500Y-152400000D03*
D18*
X324802500Y-149860000D03*
X331152500Y-147320000D03*
D17*
X224155000Y-152400000D03*
D11*
X219075000Y-152400000D03*
D17*
X213995000Y-152400000D03*
D18*
X215265000Y-149860000D03*
X221615000Y-147320000D03*
D17*
X119380000Y-171450000D03*
D11*
X114300000Y-171450000D03*
D17*
X109220000Y-171450000D03*
D18*
X110490000Y-168910000D03*
X116840000Y-166370000D03*
D17*
X55086250Y-171450000D03*
D11*
X50006250Y-171450000D03*
D17*
X44926250Y-171450000D03*
D18*
X46196250Y-168910000D03*
X52546250Y-166370000D03*
D17*
X31273750Y-171450000D03*
D11*
X26193750Y-171450000D03*
D17*
X21113750Y-171450000D03*
D18*
X22383750Y-168910000D03*
X28733750Y-166370000D03*
D17*
X176530000Y-133350000D03*
D11*
X171450000Y-133350000D03*
D17*
X166370000Y-133350000D03*
D18*
X167640000Y-130810000D03*
X173990000Y-128270000D03*
D17*
X233680000Y-133350000D03*
D11*
X228600000Y-133350000D03*
D17*
X223520000Y-133350000D03*
D18*
X224790000Y-130810000D03*
X231140000Y-128270000D03*
D17*
X171767500Y-114300000D03*
D11*
X166687500Y-114300000D03*
D17*
X161607500Y-114300000D03*
D18*
X162877500Y-111760000D03*
X169227500Y-109220000D03*
D17*
X333692500Y-114300000D03*
D11*
X328612500Y-114300000D03*
D17*
X323532500Y-114300000D03*
D18*
X324802500Y-111760000D03*
X331152500Y-109220000D03*
D17*
X390842500Y-114300000D03*
D11*
X385762500Y-114300000D03*
D17*
X380682500Y-114300000D03*
D18*
X381952500Y-111760000D03*
X388302500Y-109220000D03*
D19*
X253237500Y-148677500D03*
X253237500Y-149902500D03*
X253850000Y-149290000D03*
X254462500Y-148677500D03*
X254462500Y-149902500D03*
D17*
X57467500Y-114300000D03*
D11*
X52387500Y-114300000D03*
D17*
X47307500Y-114300000D03*
D18*
X48577500Y-111760000D03*
X54927500Y-109220000D03*
D17*
X252730000Y-133350000D03*
D11*
X247650000Y-133350000D03*
D17*
X242570000Y-133350000D03*
D18*
X243840000Y-130810000D03*
X250190000Y-128270000D03*
D17*
X36036250Y-133350000D03*
D11*
X30956250Y-133350000D03*
D17*
X25876250Y-133350000D03*
D18*
X27146250Y-130810000D03*
X33496250Y-128270000D03*
D17*
X190817500Y-114300000D03*
D11*
X185737500Y-114300000D03*
D17*
X180657500Y-114300000D03*
D18*
X181927500Y-111760000D03*
X188277500Y-109220000D03*
D17*
X114617500Y-114300000D03*
D11*
X109537500Y-114300000D03*
D17*
X104457500Y-114300000D03*
D18*
X105727500Y-111760000D03*
X112077500Y-109220000D03*
D11*
X290512500Y-141605000D03*
D10*
X290512500Y-126365000D03*
D11*
X266700000Y-141605000D03*
D10*
X266700000Y-126365000D03*
D17*
X33655000Y-114300000D03*
D11*
X28575000Y-114300000D03*
D17*
X23495000Y-114300000D03*
D18*
X24765000Y-111760000D03*
X31115000Y-109220000D03*
D17*
X217011250Y-171450000D03*
D11*
X211931250Y-171450000D03*
D17*
X206851250Y-171450000D03*
D18*
X208121250Y-168910000D03*
X214471250Y-166370000D03*
D17*
X71755000Y-152400000D03*
D11*
X66675000Y-152400000D03*
D17*
X61595000Y-152400000D03*
D18*
X62865000Y-149860000D03*
X69215000Y-147320000D03*
D17*
X371792500Y-152400000D03*
D11*
X366712500Y-152400000D03*
D17*
X361632500Y-152400000D03*
D18*
X362902500Y-149860000D03*
X369252500Y-147320000D03*
D17*
X40798750Y-152400000D03*
D11*
X35718750Y-152400000D03*
D17*
X30638750Y-152400000D03*
D18*
X31908750Y-149860000D03*
X38258750Y-147320000D03*
D17*
X228917500Y-114300000D03*
D11*
X223837500Y-114300000D03*
D17*
X218757500Y-114300000D03*
D18*
X220027500Y-111760000D03*
X226377500Y-109220000D03*
D17*
X352742500Y-171450000D03*
D11*
X347662500Y-171450000D03*
D17*
X342582500Y-171450000D03*
D18*
X343852500Y-168910000D03*
X350202500Y-166370000D03*
D17*
X352742500Y-133350000D03*
D11*
X347662500Y-133350000D03*
D17*
X342582500Y-133350000D03*
D18*
X343852500Y-130810000D03*
X350202500Y-128270000D03*
D17*
X195580000Y-133350000D03*
D11*
X190500000Y-133350000D03*
D17*
X185420000Y-133350000D03*
D18*
X186690000Y-130810000D03*
X193040000Y-128270000D03*
D17*
X267017500Y-114300000D03*
D11*
X261937500Y-114300000D03*
D17*
X256857500Y-114300000D03*
D18*
X258127500Y-111760000D03*
X264477500Y-109220000D03*
D17*
X167005000Y-152400000D03*
D11*
X161925000Y-152400000D03*
D17*
X156845000Y-152400000D03*
D18*
X158115000Y-149860000D03*
X164465000Y-147320000D03*
D17*
X90805000Y-152400000D03*
D11*
X85725000Y-152400000D03*
D17*
X80645000Y-152400000D03*
D18*
X81915000Y-149860000D03*
X88265000Y-147320000D03*
D17*
X371792500Y-114300000D03*
D11*
X366712500Y-114300000D03*
D17*
X361632500Y-114300000D03*
D18*
X362902500Y-111760000D03*
X369252500Y-109220000D03*
D17*
X352742500Y-114300000D03*
D11*
X347662500Y-114300000D03*
D17*
X342582500Y-114300000D03*
D18*
X343852500Y-111760000D03*
X350202500Y-109220000D03*
D17*
X205105000Y-152400000D03*
D11*
X200025000Y-152400000D03*
D17*
X194945000Y-152400000D03*
D18*
X196215000Y-149860000D03*
X202565000Y-147320000D03*
D17*
X109855000Y-152400000D03*
D11*
X104775000Y-152400000D03*
D17*
X99695000Y-152400000D03*
D18*
X100965000Y-149860000D03*
X107315000Y-147320000D03*
D17*
X152717500Y-114300000D03*
D11*
X147637500Y-114300000D03*
D17*
X142557500Y-114300000D03*
D18*
X143827500Y-111760000D03*
X150177500Y-109220000D03*
D17*
X390842500Y-152400000D03*
D11*
X385762500Y-152400000D03*
D17*
X380682500Y-152400000D03*
D18*
X381952500Y-149860000D03*
X388302500Y-147320000D03*
D17*
X133667500Y-114300000D03*
D11*
X128587500Y-114300000D03*
D17*
X123507500Y-114300000D03*
D18*
X124777500Y-111760000D03*
X131127500Y-109220000D03*
M02*
