%TF.GenerationSoftware,KiCad,Pcbnew,9.0.2*%
%TF.CreationDate,2025-07-05T23:38:31-04:00*%
%TF.ProjectId,The-GarlicBoard-2.1-ANSI,5468652d-4761-4726-9c69-63426f617264,rev?*%
%TF.SameCoordinates,Original*%
%TF.FileFunction,Drillmap*%
%TF.FilePolarity,Positive*%
%FSLAX45Y45*%
G04 Gerber Fmt 4.5, Leading zero omitted, Abs format (unit mm)*
G04 Created by KiCad (PCBNEW 9.0.2) date 2025-07-05 23:38:31*
%MOMM*%
%LPD*%
G01*
G04 APERTURE LIST*
%ADD10C,0.050000*%
%ADD11C,0.100000*%
%ADD12C,0.200000*%
%ADD13C,0.175000*%
%ADD14C,0.220000*%
%ADD15C,0.304800*%
%ADD16C,0.398780*%
G04 APERTURE END LIST*
D10*
X1978717Y-10527491D02*
X38978717Y-10527491D01*
X29920882Y-18047491D02*
X1978717Y-18047491D01*
X30286567Y-17847491D02*
X31625880Y-17847491D01*
X30062303Y-17988913D02*
X30145146Y-17906070D01*
X39478717Y-11027491D02*
X39478717Y-17547491D01*
X31991566Y-18047491D02*
X38978717Y-18047491D01*
X39478717Y-17547491D02*
G75*
G02*
X38978717Y-18047487I-499997J1D01*
G01*
X31991566Y-18047491D02*
G75*
G02*
X31850142Y-17988915I4J200021D01*
G01*
X30145146Y-17906070D02*
G75*
G02*
X30286567Y-17847489I141424J-141420D01*
G01*
X38978717Y-10527491D02*
G75*
G02*
X39478719Y-11027491I3J-499999D01*
G01*
X1478717Y-17547491D02*
X1478717Y-11027491D01*
X31625880Y-17847491D02*
G75*
G02*
X31767301Y-17906070I-1J-199999D01*
G01*
X1478717Y-11027491D02*
G75*
G02*
X1978717Y-10527492I499999J0D01*
G01*
X30062303Y-17988913D02*
G75*
G02*
X29920882Y-18047495I-141424J141413D01*
G01*
X31850144Y-17988913D02*
X31767302Y-17906070D01*
X1978717Y-18047491D02*
G75*
G02*
X1478717Y-17547491I0J500000D01*
G01*
D11*
X28404976Y-17721285D02*
X28404976Y-17580717D01*
X28495531Y-17501001D02*
X28654421Y-17501001D01*
X28654421Y-17801001D02*
X28495531Y-17801001D01*
X28744976Y-17580717D02*
X28744976Y-17721285D01*
X28400028Y-17559029D02*
G75*
G02*
X28404974Y-17580717I-45052J-21682D01*
G01*
X28400028Y-17559029D02*
G75*
G02*
X28470305Y-17494171I45051J21688D01*
G01*
X28404976Y-17721285D02*
G75*
G02*
X28400028Y-17742973I-50036J8D01*
G01*
X28470305Y-17807830D02*
G75*
G02*
X28400028Y-17742973I-25226J43170D01*
G01*
X28470305Y-17807831D02*
G75*
G02*
X28495531Y-17801001I25226J-43171D01*
G01*
X28495531Y-17501001D02*
G75*
G02*
X28470305Y-17494171I0J50001D01*
G01*
X28654421Y-17801001D02*
G75*
G02*
X28679647Y-17807831I0J-50001D01*
G01*
X28679647Y-17494171D02*
G75*
G02*
X28654421Y-17501001I-25226J43171D01*
G01*
X28679647Y-17494171D02*
G75*
G02*
X28749924Y-17559029I25226J-43170D01*
G01*
X28744976Y-17580716D02*
G75*
G02*
X28749924Y-17559029I49999J0D01*
G01*
X28749924Y-17742973D02*
G75*
G02*
X28679647Y-17807831I-45051J-21688D01*
G01*
X28749924Y-17742973D02*
G75*
G02*
X28744976Y-17721285I45051J21688D01*
G01*
X12212490Y-15816286D02*
X12212490Y-15675718D01*
X12303044Y-15596002D02*
X12461935Y-15596002D01*
X12461935Y-15896002D02*
X12303044Y-15896002D01*
X12552489Y-15675718D02*
X12552489Y-15816286D01*
X12207541Y-15654030D02*
G75*
G02*
X12212487Y-15675718I-45052J-21682D01*
G01*
X12207541Y-15654030D02*
G75*
G02*
X12277818Y-15589172I45051J21688D01*
G01*
X12212490Y-15816287D02*
G75*
G02*
X12207541Y-15837974I-50036J8D01*
G01*
X12277818Y-15902832D02*
G75*
G02*
X12207542Y-15837974I-25226J43170D01*
G01*
X12277819Y-15902832D02*
G75*
G02*
X12303044Y-15896002I25226J-43171D01*
G01*
X12303044Y-15596002D02*
G75*
G02*
X12277818Y-15589172I0J50001D01*
G01*
X12461935Y-15896002D02*
G75*
G02*
X12487161Y-15902832I0J-50001D01*
G01*
X12487161Y-15589172D02*
G75*
G02*
X12461935Y-15596002I-25226J43171D01*
G01*
X12487161Y-15589172D02*
G75*
G02*
X12557438Y-15654030I25226J-43170D01*
G01*
X12552489Y-15675718D02*
G75*
G02*
X12557438Y-15654030I49999J0D01*
G01*
X12557438Y-15837974D02*
G75*
G02*
X12487161Y-15902832I-45051J-21688D01*
G01*
X12557438Y-15837974D02*
G75*
G02*
X12552489Y-15816286I45051J21688D01*
G01*
X25783875Y-17721285D02*
X25783875Y-17580717D01*
X25874430Y-17501001D02*
X26033320Y-17501001D01*
X26033320Y-17801001D02*
X25874430Y-17801001D01*
X26123875Y-17580717D02*
X26123875Y-17721285D01*
X25778927Y-17559029D02*
G75*
G02*
X25783873Y-17580717I-45052J-21682D01*
G01*
X25778927Y-17559029D02*
G75*
G02*
X25849204Y-17494171I45051J21688D01*
G01*
X25783875Y-17721285D02*
G75*
G02*
X25778927Y-17742973I-50036J8D01*
G01*
X25849204Y-17807830D02*
G75*
G02*
X25778927Y-17742973I-25226J43170D01*
G01*
X25849204Y-17807831D02*
G75*
G02*
X25874430Y-17801001I25226J-43171D01*
G01*
X25874430Y-17501001D02*
G75*
G02*
X25849204Y-17494171I0J50001D01*
G01*
X26033320Y-17801001D02*
G75*
G02*
X26058546Y-17807831I0J-50001D01*
G01*
X26058546Y-17494171D02*
G75*
G02*
X26033320Y-17501001I-25226J43171D01*
G01*
X26058546Y-17494171D02*
G75*
G02*
X26128823Y-17559029I25226J-43170D01*
G01*
X26123875Y-17580716D02*
G75*
G02*
X26128823Y-17559029I49999J0D01*
G01*
X26128823Y-17742973D02*
G75*
G02*
X26058546Y-17807831I-45051J-21688D01*
G01*
X26128823Y-17742973D02*
G75*
G02*
X26123875Y-17721285I45051J21688D01*
G01*
X32691222Y-13911288D02*
X32691222Y-13770720D01*
X32781777Y-13691004D02*
X32940668Y-13691004D01*
X32940668Y-13991004D02*
X32781777Y-13991004D01*
X33031222Y-13770720D02*
X33031222Y-13911288D01*
X32686274Y-13749032D02*
G75*
G02*
X32691220Y-13770720I-45052J-21682D01*
G01*
X32686274Y-13749032D02*
G75*
G02*
X32756551Y-13684174I45051J21688D01*
G01*
X32691222Y-13911288D02*
G75*
G02*
X32686274Y-13932976I-50036J8D01*
G01*
X32756551Y-13997834D02*
G75*
G02*
X32686274Y-13932976I-25226J43170D01*
G01*
X32756551Y-13997834D02*
G75*
G02*
X32781777Y-13991004I25226J-43171D01*
G01*
X32781777Y-13691004D02*
G75*
G02*
X32756551Y-13684174I0J50001D01*
G01*
X32940668Y-13991004D02*
G75*
G02*
X32965893Y-13997834I0J-50001D01*
G01*
X32965893Y-13684174D02*
G75*
G02*
X32940668Y-13691004I-25226J43171D01*
G01*
X32965893Y-13684174D02*
G75*
G02*
X33036171Y-13749032I25226J-43170D01*
G01*
X33031222Y-13770720D02*
G75*
G02*
X33036171Y-13749032I49999J0D01*
G01*
X33036171Y-13932976D02*
G75*
G02*
X32965893Y-13997834I-45051J-21688D01*
G01*
X33036171Y-13932976D02*
G75*
G02*
X33031222Y-13911288I45051J21688D01*
G01*
X20308733Y-12006290D02*
X20308733Y-11865721D01*
X20399288Y-11786006D02*
X20558178Y-11786006D01*
X20558178Y-12086005D02*
X20399288Y-12086005D01*
X20648733Y-11865721D02*
X20648733Y-12006290D01*
X20303784Y-11844033D02*
G75*
G02*
X20308730Y-11865721I-45052J-21682D01*
G01*
X20303784Y-11844033D02*
G75*
G02*
X20374062Y-11779176I45051J21688D01*
G01*
X20308733Y-12006290D02*
G75*
G02*
X20303785Y-12027977I-50036J8D01*
G01*
X20374062Y-12092835D02*
G75*
G02*
X20303785Y-12027978I-25226J43170D01*
G01*
X20374062Y-12092835D02*
G75*
G02*
X20399288Y-12086006I25226J-43171D01*
G01*
X20399288Y-11786005D02*
G75*
G02*
X20374062Y-11779176I0J50001D01*
G01*
X20558178Y-12086005D02*
G75*
G02*
X20583404Y-12092835I0J-50001D01*
G01*
X20583404Y-11779176D02*
G75*
G02*
X20558178Y-11786006I-25226J43171D01*
G01*
X20583404Y-11779176D02*
G75*
G02*
X20653681Y-11844033I25226J-43170D01*
G01*
X20648733Y-11865721D02*
G75*
G02*
X20653681Y-11844033I49999J0D01*
G01*
X20653681Y-12027977D02*
G75*
G02*
X20583404Y-12092835I-45051J-21688D01*
G01*
X20653681Y-12027977D02*
G75*
G02*
X20648733Y-12006290I45051J21688D01*
G01*
X8402493Y-15816286D02*
X8402493Y-15675718D01*
X8493048Y-15596002D02*
X8651938Y-15596002D01*
X8651938Y-15896002D02*
X8493048Y-15896002D01*
X8742493Y-15675718D02*
X8742493Y-15816286D01*
X8397544Y-15654030D02*
G75*
G02*
X8402490Y-15675718I-45052J-21682D01*
G01*
X8397544Y-15654030D02*
G75*
G02*
X8467822Y-15589172I45051J21688D01*
G01*
X8402493Y-15816287D02*
G75*
G02*
X8397545Y-15837974I-50036J8D01*
G01*
X8467822Y-15902832D02*
G75*
G02*
X8397545Y-15837974I-25226J43170D01*
G01*
X8467822Y-15902832D02*
G75*
G02*
X8493048Y-15896002I25226J-43171D01*
G01*
X8493048Y-15596002D02*
G75*
G02*
X8467822Y-15589172I0J50001D01*
G01*
X8651938Y-15896002D02*
G75*
G02*
X8677164Y-15902832I0J-50001D01*
G01*
X8677164Y-15589172D02*
G75*
G02*
X8651938Y-15596002I-25226J43171D01*
G01*
X8677164Y-15589172D02*
G75*
G02*
X8747441Y-15654030I25226J-43170D01*
G01*
X8742493Y-15675718D02*
G75*
G02*
X8747441Y-15654030I49999J0D01*
G01*
X8747441Y-15837974D02*
G75*
G02*
X8677164Y-15902832I-45051J-21688D01*
G01*
X8747441Y-15837974D02*
G75*
G02*
X8742493Y-15816286I45051J21688D01*
G01*
X11260000Y-13911288D02*
X11260000Y-13770720D01*
X11350555Y-13691004D02*
X11509445Y-13691004D01*
X11509445Y-13991004D02*
X11350555Y-13991004D01*
X11600000Y-13770720D02*
X11600000Y-13911288D01*
X11255052Y-13749032D02*
G75*
G02*
X11259998Y-13770720I-45052J-21682D01*
G01*
X11255052Y-13749032D02*
G75*
G02*
X11325329Y-13684174I45051J21688D01*
G01*
X11260000Y-13911288D02*
G75*
G02*
X11255052Y-13932976I-50036J8D01*
G01*
X11325329Y-13997834D02*
G75*
G02*
X11255052Y-13932976I-25226J43170D01*
G01*
X11325329Y-13997834D02*
G75*
G02*
X11350555Y-13991004I25226J-43171D01*
G01*
X11350555Y-13691004D02*
G75*
G02*
X11325329Y-13684174I0J50001D01*
G01*
X11509445Y-13991004D02*
G75*
G02*
X11534671Y-13997834I0J-50001D01*
G01*
X11534671Y-13684174D02*
G75*
G02*
X11509445Y-13691004I-25226J43171D01*
G01*
X11534671Y-13684174D02*
G75*
G02*
X11604948Y-13749032I25226J-43170D01*
G01*
X11600000Y-13770720D02*
G75*
G02*
X11604948Y-13749032I49999J0D01*
G01*
X11604948Y-13932976D02*
G75*
G02*
X11534671Y-13997834I-45051J-21688D01*
G01*
X11604948Y-13932976D02*
G75*
G02*
X11600000Y-13911288I45051J21688D01*
G01*
X14593738Y-12006290D02*
X14593738Y-11865721D01*
X14684292Y-11786006D02*
X14843183Y-11786006D01*
X14843183Y-12086005D02*
X14684292Y-12086005D01*
X14933737Y-11865721D02*
X14933737Y-12006290D01*
X14588789Y-11844033D02*
G75*
G02*
X14593735Y-11865721I-45052J-21682D01*
G01*
X14588789Y-11844033D02*
G75*
G02*
X14659066Y-11779176I45051J21688D01*
G01*
X14593738Y-12006290D02*
G75*
G02*
X14588789Y-12027977I-50036J8D01*
G01*
X14659066Y-12092835D02*
G75*
G02*
X14588790Y-12027978I-25226J43170D01*
G01*
X14659067Y-12092835D02*
G75*
G02*
X14684292Y-12086006I25226J-43171D01*
G01*
X14684292Y-11786005D02*
G75*
G02*
X14659066Y-11779176I0J50001D01*
G01*
X14843183Y-12086005D02*
G75*
G02*
X14868409Y-12092835I0J-50001D01*
G01*
X14868409Y-11779176D02*
G75*
G02*
X14843183Y-11786006I-25226J43171D01*
G01*
X14868409Y-11779176D02*
G75*
G02*
X14938686Y-11844033I25226J-43170D01*
G01*
X14933737Y-11865721D02*
G75*
G02*
X14938686Y-11844033I49999J0D01*
G01*
X14938686Y-12027977D02*
G75*
G02*
X14868409Y-12092835I-45051J-21688D01*
G01*
X14938686Y-12027977D02*
G75*
G02*
X14933737Y-12006290I45051J21688D01*
G01*
X13164989Y-13911288D02*
X13164989Y-13770720D01*
X13255544Y-13691004D02*
X13414434Y-13691004D01*
X13414434Y-13991004D02*
X13255544Y-13991004D01*
X13504989Y-13770720D02*
X13504989Y-13911288D01*
X13160040Y-13749032D02*
G75*
G02*
X13164986Y-13770720I-45052J-21682D01*
G01*
X13160040Y-13749032D02*
G75*
G02*
X13230318Y-13684174I45051J21688D01*
G01*
X13164989Y-13911288D02*
G75*
G02*
X13160040Y-13932976I-50036J8D01*
G01*
X13230318Y-13997834D02*
G75*
G02*
X13160041Y-13932976I-25226J43170D01*
G01*
X13230318Y-13997834D02*
G75*
G02*
X13255544Y-13991004I25226J-43171D01*
G01*
X13255543Y-13691004D02*
G75*
G02*
X13230318Y-13684174I0J50001D01*
G01*
X13414434Y-13991004D02*
G75*
G02*
X13439660Y-13997834I0J-50001D01*
G01*
X13439660Y-13684174D02*
G75*
G02*
X13414434Y-13691004I-25226J43171D01*
G01*
X13439660Y-13684174D02*
G75*
G02*
X13509937Y-13749032I25226J-43170D01*
G01*
X13504989Y-13770720D02*
G75*
G02*
X13509937Y-13749032I49999J0D01*
G01*
X13509937Y-13932976D02*
G75*
G02*
X13439660Y-13997834I-45051J-21688D01*
G01*
X13509937Y-13932976D02*
G75*
G02*
X13504989Y-13911288I45051J21688D01*
G01*
X10307491Y-15816286D02*
X10307491Y-15675718D01*
X10398046Y-15596002D02*
X10556937Y-15596002D01*
X10556936Y-15896002D02*
X10398046Y-15896002D01*
X10647491Y-15675718D02*
X10647491Y-15816286D01*
X10302543Y-15654030D02*
G75*
G02*
X10307489Y-15675718I-45052J-21682D01*
G01*
X10302543Y-15654030D02*
G75*
G02*
X10372820Y-15589172I45051J21688D01*
G01*
X10307491Y-15816287D02*
G75*
G02*
X10302543Y-15837974I-50036J8D01*
G01*
X10372820Y-15902832D02*
G75*
G02*
X10302543Y-15837974I-25226J43170D01*
G01*
X10372820Y-15902832D02*
G75*
G02*
X10398046Y-15896002I25226J-43171D01*
G01*
X10398046Y-15596002D02*
G75*
G02*
X10372820Y-15589172I0J50001D01*
G01*
X10556936Y-15896002D02*
G75*
G02*
X10582162Y-15902832I0J-50001D01*
G01*
X10582162Y-15589172D02*
G75*
G02*
X10556937Y-15596002I-25226J43171D01*
G01*
X10582162Y-15589172D02*
G75*
G02*
X10652440Y-15654030I25226J-43170D01*
G01*
X10647491Y-15675718D02*
G75*
G02*
X10652440Y-15654030I49999J0D01*
G01*
X10652440Y-15837974D02*
G75*
G02*
X10582162Y-15902832I-45051J-21688D01*
G01*
X10652440Y-15837974D02*
G75*
G02*
X10647491Y-15816286I45051J21688D01*
G01*
X16974986Y-13911288D02*
X16974986Y-13770720D01*
X17065540Y-13691004D02*
X17224431Y-13691004D01*
X17224431Y-13991004D02*
X17065540Y-13991004D01*
X17314986Y-13770720D02*
X17314986Y-13911288D01*
X16970037Y-13749032D02*
G75*
G02*
X16974983Y-13770720I-45052J-21682D01*
G01*
X16970037Y-13749032D02*
G75*
G02*
X17040315Y-13684174I45051J21688D01*
G01*
X16974986Y-13911288D02*
G75*
G02*
X16970037Y-13932976I-50036J8D01*
G01*
X17040315Y-13997834D02*
G75*
G02*
X16970038Y-13932976I-25226J43170D01*
G01*
X17040315Y-13997834D02*
G75*
G02*
X17065540Y-13991004I25226J-43171D01*
G01*
X17065540Y-13691004D02*
G75*
G02*
X17040315Y-13684174I0J50001D01*
G01*
X17224431Y-13991004D02*
G75*
G02*
X17249657Y-13997834I0J-50001D01*
G01*
X17249657Y-13684174D02*
G75*
G02*
X17224431Y-13691004I-25226J43171D01*
G01*
X17249657Y-13684174D02*
G75*
G02*
X17319934Y-13749032I25226J-43170D01*
G01*
X17314986Y-13770720D02*
G75*
G02*
X17319934Y-13749032I49999J0D01*
G01*
X17319934Y-13932976D02*
G75*
G02*
X17249657Y-13997834I-45051J-21688D01*
G01*
X17319934Y-13932976D02*
G75*
G02*
X17314986Y-13911288I45051J21688D01*
G01*
X18879984Y-13911288D02*
X18879984Y-13770720D01*
X18970539Y-13691004D02*
X19129429Y-13691004D01*
X19129429Y-13991004D02*
X18970539Y-13991004D01*
X19219984Y-13770720D02*
X19219984Y-13911288D01*
X18875036Y-13749032D02*
G75*
G02*
X18879982Y-13770720I-45052J-21682D01*
G01*
X18875036Y-13749032D02*
G75*
G02*
X18945313Y-13684174I45051J21688D01*
G01*
X18879984Y-13911288D02*
G75*
G02*
X18875036Y-13932976I-50036J8D01*
G01*
X18945313Y-13997834D02*
G75*
G02*
X18875036Y-13932976I-25226J43170D01*
G01*
X18945313Y-13997834D02*
G75*
G02*
X18970539Y-13991004I25226J-43171D01*
G01*
X18970539Y-13691004D02*
G75*
G02*
X18945313Y-13684174I0J50001D01*
G01*
X19129429Y-13991004D02*
G75*
G02*
X19154655Y-13997834I0J-50001D01*
G01*
X19154655Y-13684174D02*
G75*
G02*
X19129429Y-13691004I-25226J43171D01*
G01*
X19154655Y-13684174D02*
G75*
G02*
X19224932Y-13749032I25226J-43170D01*
G01*
X19219984Y-13770720D02*
G75*
G02*
X19224932Y-13749032I49999J0D01*
G01*
X19224932Y-13932976D02*
G75*
G02*
X19154655Y-13997834I-45051J-21688D01*
G01*
X19224932Y-13932976D02*
G75*
G02*
X19219984Y-13911288I45051J21688D01*
G01*
X22213731Y-12006290D02*
X22213731Y-11865721D01*
X22304286Y-11786006D02*
X22463176Y-11786006D01*
X22463176Y-12086005D02*
X22304286Y-12086005D01*
X22553731Y-11865721D02*
X22553731Y-12006290D01*
X22208783Y-11844033D02*
G75*
G02*
X22213729Y-11865721I-45052J-21682D01*
G01*
X22208783Y-11844033D02*
G75*
G02*
X22279060Y-11779176I45051J21688D01*
G01*
X22213731Y-12006290D02*
G75*
G02*
X22208783Y-12027977I-50036J8D01*
G01*
X22279060Y-12092835D02*
G75*
G02*
X22208783Y-12027978I-25226J43170D01*
G01*
X22279060Y-12092835D02*
G75*
G02*
X22304286Y-12086006I25226J-43171D01*
G01*
X22304286Y-11786005D02*
G75*
G02*
X22279060Y-11779176I0J50001D01*
G01*
X22463176Y-12086005D02*
G75*
G02*
X22488402Y-12092835I0J-50001D01*
G01*
X22488402Y-11779176D02*
G75*
G02*
X22463176Y-11786006I-25226J43171D01*
G01*
X22488402Y-11779176D02*
G75*
G02*
X22558680Y-11844033I25226J-43170D01*
G01*
X22553731Y-11865721D02*
G75*
G02*
X22558680Y-11844033I49999J0D01*
G01*
X22558680Y-12027977D02*
G75*
G02*
X22488402Y-12092835I-45051J-21688D01*
G01*
X22558680Y-12027977D02*
G75*
G02*
X22553731Y-12006290I45051J21688D01*
G01*
X16498736Y-12006290D02*
X16498736Y-11865721D01*
X16589291Y-11786006D02*
X16748181Y-11786006D01*
X16748181Y-12086005D02*
X16589291Y-12086005D01*
X16838736Y-11865721D02*
X16838736Y-12006290D01*
X16493788Y-11844033D02*
G75*
G02*
X16498734Y-11865721I-45052J-21682D01*
G01*
X16493788Y-11844033D02*
G75*
G02*
X16564065Y-11779176I45051J21688D01*
G01*
X16498736Y-12006290D02*
G75*
G02*
X16493788Y-12027977I-50036J8D01*
G01*
X16564065Y-12092835D02*
G75*
G02*
X16493788Y-12027978I-25226J43170D01*
G01*
X16564065Y-12092835D02*
G75*
G02*
X16589291Y-12086006I25226J-43171D01*
G01*
X16589291Y-11786005D02*
G75*
G02*
X16564065Y-11779176I0J50001D01*
G01*
X16748181Y-12086005D02*
G75*
G02*
X16773407Y-12092835I0J-50001D01*
G01*
X16773407Y-11779176D02*
G75*
G02*
X16748181Y-11786006I-25226J43171D01*
G01*
X16773407Y-11779176D02*
G75*
G02*
X16843684Y-11844033I25226J-43170D01*
G01*
X16838736Y-11865721D02*
G75*
G02*
X16843684Y-11844033I49999J0D01*
G01*
X16843684Y-12027977D02*
G75*
G02*
X16773407Y-12092835I-45051J-21688D01*
G01*
X16843684Y-12027977D02*
G75*
G02*
X16838736Y-12006290I45051J21688D01*
G01*
X24594979Y-13911288D02*
X24594979Y-13770720D01*
X24685534Y-13691004D02*
X24844424Y-13691004D01*
X24844424Y-13991004D02*
X24685534Y-13991004D01*
X24934979Y-13770720D02*
X24934979Y-13911288D01*
X24590031Y-13749032D02*
G75*
G02*
X24594977Y-13770720I-45052J-21682D01*
G01*
X24590031Y-13749032D02*
G75*
G02*
X24660308Y-13684174I45051J21688D01*
G01*
X24594979Y-13911288D02*
G75*
G02*
X24590031Y-13932976I-50036J8D01*
G01*
X24660308Y-13997834D02*
G75*
G02*
X24590031Y-13932976I-25226J43170D01*
G01*
X24660308Y-13997834D02*
G75*
G02*
X24685534Y-13991004I25226J-43171D01*
G01*
X24685534Y-13691004D02*
G75*
G02*
X24660308Y-13684174I0J50001D01*
G01*
X24844424Y-13991004D02*
G75*
G02*
X24869650Y-13997834I0J-50001D01*
G01*
X24869650Y-13684174D02*
G75*
G02*
X24844424Y-13691004I-25226J43171D01*
G01*
X24869650Y-13684174D02*
G75*
G02*
X24939928Y-13749032I25226J-43170D01*
G01*
X24934979Y-13770720D02*
G75*
G02*
X24939928Y-13749032I49999J0D01*
G01*
X24939928Y-13932976D02*
G75*
G02*
X24869650Y-13997834I-45051J-21688D01*
G01*
X24939928Y-13932976D02*
G75*
G02*
X24934979Y-13911288I45051J21688D01*
G01*
X38406218Y-15816286D02*
X38406218Y-15675718D01*
X38496772Y-15596002D02*
X38655663Y-15596002D01*
X38655663Y-15896002D02*
X38496772Y-15896002D01*
X38746218Y-15675718D02*
X38746218Y-15816286D01*
X38401269Y-15654030D02*
G75*
G02*
X38406215Y-15675718I-45052J-21682D01*
G01*
X38401269Y-15654030D02*
G75*
G02*
X38471547Y-15589172I45051J21688D01*
G01*
X38406218Y-15816287D02*
G75*
G02*
X38401269Y-15837974I-50036J8D01*
G01*
X38471547Y-15902832D02*
G75*
G02*
X38401270Y-15837974I-25226J43170D01*
G01*
X38471547Y-15902832D02*
G75*
G02*
X38496772Y-15896002I25226J-43171D01*
G01*
X38496772Y-15596002D02*
G75*
G02*
X38471547Y-15589172I0J50001D01*
G01*
X38655663Y-15896002D02*
G75*
G02*
X38680889Y-15902832I0J-50001D01*
G01*
X38680889Y-15589172D02*
G75*
G02*
X38655663Y-15596002I-25226J43171D01*
G01*
X38680889Y-15589172D02*
G75*
G02*
X38751166Y-15654030I25226J-43170D01*
G01*
X38746218Y-15675718D02*
G75*
G02*
X38751166Y-15654030I49999J0D01*
G01*
X38751166Y-15837974D02*
G75*
G02*
X38680889Y-15902832I-45051J-21688D01*
G01*
X38751166Y-15837974D02*
G75*
G02*
X38746218Y-15816286I45051J21688D01*
G01*
X38406218Y-12006290D02*
X38406218Y-11865721D01*
X38496772Y-11786006D02*
X38655663Y-11786006D01*
X38655663Y-12086005D02*
X38496772Y-12086005D01*
X38746218Y-11865721D02*
X38746218Y-12006290D01*
X38401269Y-11844033D02*
G75*
G02*
X38406215Y-11865721I-45052J-21682D01*
G01*
X38401269Y-11844033D02*
G75*
G02*
X38471547Y-11779176I45051J21688D01*
G01*
X38406218Y-12006290D02*
G75*
G02*
X38401269Y-12027977I-50036J8D01*
G01*
X38471547Y-12092835D02*
G75*
G02*
X38401270Y-12027978I-25226J43170D01*
G01*
X38471547Y-12092835D02*
G75*
G02*
X38496772Y-12086006I25226J-43171D01*
G01*
X38496772Y-11786005D02*
G75*
G02*
X38471547Y-11779176I0J50001D01*
G01*
X38655663Y-12086005D02*
G75*
G02*
X38680889Y-12092835I0J-50001D01*
G01*
X38680889Y-11779176D02*
G75*
G02*
X38655663Y-11786006I-25226J43171D01*
G01*
X38680889Y-11779176D02*
G75*
G02*
X38751166Y-11844033I25226J-43170D01*
G01*
X38746218Y-11865721D02*
G75*
G02*
X38751166Y-11844033I49999J0D01*
G01*
X38751166Y-12027977D02*
G75*
G02*
X38680889Y-12092835I-45051J-21688D01*
G01*
X38751166Y-12027977D02*
G75*
G02*
X38746218Y-12006290I45051J21688D01*
G01*
X36501219Y-17721285D02*
X36501219Y-17580717D01*
X36591774Y-17501001D02*
X36750665Y-17501001D01*
X36750664Y-17801001D02*
X36591774Y-17801001D01*
X36841219Y-17580717D02*
X36841219Y-17721285D01*
X36496271Y-17559029D02*
G75*
G02*
X36501217Y-17580717I-45052J-21682D01*
G01*
X36496271Y-17559029D02*
G75*
G02*
X36566548Y-17494171I45051J21688D01*
G01*
X36501219Y-17721285D02*
G75*
G02*
X36496271Y-17742973I-50036J8D01*
G01*
X36566548Y-17807830D02*
G75*
G02*
X36496271Y-17742973I-25226J43170D01*
G01*
X36566548Y-17807831D02*
G75*
G02*
X36591774Y-17801001I25226J-43171D01*
G01*
X36591774Y-17501001D02*
G75*
G02*
X36566548Y-17494171I0J50001D01*
G01*
X36750664Y-17801001D02*
G75*
G02*
X36775890Y-17807831I0J-50001D01*
G01*
X36775890Y-17494171D02*
G75*
G02*
X36750665Y-17501001I-25226J43171D01*
G01*
X36775890Y-17494171D02*
G75*
G02*
X36846168Y-17559029I25226J-43170D01*
G01*
X36841219Y-17580716D02*
G75*
G02*
X36846168Y-17559029I49999J0D01*
G01*
X36846168Y-17742973D02*
G75*
G02*
X36775890Y-17807831I-45051J-21688D01*
G01*
X36846168Y-17742973D02*
G75*
G02*
X36841219Y-17721285I45051J21688D01*
G01*
X12688739Y-12006290D02*
X12688739Y-11865721D01*
X12779294Y-11786006D02*
X12938184Y-11786006D01*
X12938184Y-12086005D02*
X12779294Y-12086005D01*
X13028739Y-11865721D02*
X13028739Y-12006290D01*
X12683791Y-11844033D02*
G75*
G02*
X12688737Y-11865721I-45052J-21682D01*
G01*
X12683791Y-11844033D02*
G75*
G02*
X12754068Y-11779176I45051J21688D01*
G01*
X12688739Y-12006290D02*
G75*
G02*
X12683791Y-12027977I-50036J8D01*
G01*
X12754068Y-12092835D02*
G75*
G02*
X12683791Y-12027978I-25226J43170D01*
G01*
X12754068Y-12092835D02*
G75*
G02*
X12779294Y-12086006I25226J-43171D01*
G01*
X12779294Y-11786005D02*
G75*
G02*
X12754068Y-11779176I0J50001D01*
G01*
X12938184Y-12086005D02*
G75*
G02*
X12963410Y-12092835I0J-50001D01*
G01*
X12963410Y-11779176D02*
G75*
G02*
X12938184Y-11786006I-25226J43171D01*
G01*
X12963410Y-11779176D02*
G75*
G02*
X13033688Y-11844033I25226J-43170D01*
G01*
X13028739Y-11865721D02*
G75*
G02*
X13033688Y-11844033I49999J0D01*
G01*
X13033688Y-12027977D02*
G75*
G02*
X12963410Y-12092835I-45051J-21688D01*
G01*
X13033688Y-12027977D02*
G75*
G02*
X13028739Y-12006290I45051J21688D01*
G01*
X32691222Y-12006290D02*
X32691222Y-11865721D01*
X32781777Y-11786006D02*
X32940668Y-11786006D01*
X32940668Y-12086005D02*
X32781777Y-12086005D01*
X33031222Y-11865721D02*
X33031222Y-12006290D01*
X32686274Y-11844033D02*
G75*
G02*
X32691220Y-11865721I-45052J-21682D01*
G01*
X32686274Y-11844033D02*
G75*
G02*
X32756551Y-11779176I45051J21688D01*
G01*
X32691222Y-12006290D02*
G75*
G02*
X32686274Y-12027977I-50036J8D01*
G01*
X32756551Y-12092835D02*
G75*
G02*
X32686274Y-12027978I-25226J43170D01*
G01*
X32756551Y-12092835D02*
G75*
G02*
X32781777Y-12086006I25226J-43171D01*
G01*
X32781777Y-11786005D02*
G75*
G02*
X32756551Y-11779176I0J50001D01*
G01*
X32940668Y-12086005D02*
G75*
G02*
X32965893Y-12092835I0J-50001D01*
G01*
X32965893Y-11779176D02*
G75*
G02*
X32940668Y-11786006I-25226J43171D01*
G01*
X32965893Y-11779176D02*
G75*
G02*
X33036171Y-11844033I25226J-43170D01*
G01*
X33031222Y-11865721D02*
G75*
G02*
X33036171Y-11844033I49999J0D01*
G01*
X33036171Y-12027977D02*
G75*
G02*
X32965893Y-12092835I-45051J-21688D01*
G01*
X33036171Y-12027977D02*
G75*
G02*
X33031222Y-12006290I45051J21688D01*
G01*
X34596221Y-15816286D02*
X34596221Y-15675718D01*
X34686776Y-15596002D02*
X34845666Y-15596002D01*
X34845666Y-15896002D02*
X34686776Y-15896002D01*
X34936221Y-15675718D02*
X34936221Y-15816286D01*
X34591272Y-15654030D02*
G75*
G02*
X34596218Y-15675718I-45052J-21682D01*
G01*
X34591272Y-15654030D02*
G75*
G02*
X34661550Y-15589172I45051J21688D01*
G01*
X34596221Y-15816287D02*
G75*
G02*
X34591273Y-15837974I-50036J8D01*
G01*
X34661550Y-15902832D02*
G75*
G02*
X34591273Y-15837974I-25226J43170D01*
G01*
X34661550Y-15902832D02*
G75*
G02*
X34686776Y-15896002I25226J-43171D01*
G01*
X34686776Y-15596002D02*
G75*
G02*
X34661550Y-15589172I0J50001D01*
G01*
X34845666Y-15896002D02*
G75*
G02*
X34870892Y-15902832I0J-50001D01*
G01*
X34870892Y-15589172D02*
G75*
G02*
X34845666Y-15596002I-25226J43171D01*
G01*
X34870892Y-15589172D02*
G75*
G02*
X34941169Y-15654030I25226J-43170D01*
G01*
X34936221Y-15675718D02*
G75*
G02*
X34941169Y-15654030I49999J0D01*
G01*
X34941169Y-15837974D02*
G75*
G02*
X34870892Y-15902832I-45051J-21688D01*
G01*
X34941169Y-15837974D02*
G75*
G02*
X34936221Y-15816286I45051J21688D01*
G01*
X19832483Y-15816286D02*
X19832483Y-15675718D01*
X19923038Y-15596002D02*
X20081929Y-15596002D01*
X20081928Y-15896002D02*
X19923038Y-15896002D01*
X20172483Y-15675718D02*
X20172483Y-15816286D01*
X19827535Y-15654030D02*
G75*
G02*
X19832481Y-15675718I-45052J-21682D01*
G01*
X19827535Y-15654030D02*
G75*
G02*
X19897812Y-15589172I45051J21688D01*
G01*
X19832483Y-15816287D02*
G75*
G02*
X19827535Y-15837974I-50036J8D01*
G01*
X19897812Y-15902832D02*
G75*
G02*
X19827535Y-15837974I-25226J43170D01*
G01*
X19897812Y-15902832D02*
G75*
G02*
X19923038Y-15896002I25226J-43171D01*
G01*
X19923038Y-15596002D02*
G75*
G02*
X19897812Y-15589172I0J50001D01*
G01*
X20081928Y-15896002D02*
G75*
G02*
X20107154Y-15902832I0J-50001D01*
G01*
X20107154Y-15589172D02*
G75*
G02*
X20081929Y-15596002I-25226J43171D01*
G01*
X20107154Y-15589172D02*
G75*
G02*
X20177432Y-15654030I25226J-43170D01*
G01*
X20172483Y-15675718D02*
G75*
G02*
X20177432Y-15654030I49999J0D01*
G01*
X20177432Y-15837974D02*
G75*
G02*
X20107154Y-15902832I-45051J-21688D01*
G01*
X20177432Y-15837974D02*
G75*
G02*
X20172483Y-15816286I45051J21688D01*
G01*
X34596221Y-13911288D02*
X34596221Y-13770720D01*
X34686776Y-13691004D02*
X34845666Y-13691004D01*
X34845666Y-13991004D02*
X34686776Y-13991004D01*
X34936221Y-13770720D02*
X34936221Y-13911288D01*
X34591272Y-13749032D02*
G75*
G02*
X34596218Y-13770720I-45052J-21682D01*
G01*
X34591272Y-13749032D02*
G75*
G02*
X34661550Y-13684174I45051J21688D01*
G01*
X34596221Y-13911288D02*
G75*
G02*
X34591273Y-13932976I-50036J8D01*
G01*
X34661550Y-13997834D02*
G75*
G02*
X34591273Y-13932976I-25226J43170D01*
G01*
X34661550Y-13997834D02*
G75*
G02*
X34686776Y-13991004I25226J-43171D01*
G01*
X34686776Y-13691004D02*
G75*
G02*
X34661550Y-13684174I0J50001D01*
G01*
X34845666Y-13991004D02*
G75*
G02*
X34870892Y-13997834I0J-50001D01*
G01*
X34870892Y-13684174D02*
G75*
G02*
X34845666Y-13691004I-25226J43171D01*
G01*
X34870892Y-13684174D02*
G75*
G02*
X34941169Y-13749032I25226J-43170D01*
G01*
X34936221Y-13770720D02*
G75*
G02*
X34941169Y-13749032I49999J0D01*
G01*
X34941169Y-13932976D02*
G75*
G02*
X34870892Y-13997834I-45051J-21688D01*
G01*
X34941169Y-13932976D02*
G75*
G02*
X34936221Y-13911288I45051J21688D01*
G01*
X4830621Y-17721285D02*
X4830621Y-17580717D01*
X4921176Y-17501001D02*
X5080066Y-17501001D01*
X5080066Y-17801001D02*
X4921176Y-17801001D01*
X5170621Y-17580717D02*
X5170621Y-17721285D01*
X4825672Y-17559029D02*
G75*
G02*
X4830618Y-17580717I-45052J-21682D01*
G01*
X4825672Y-17559029D02*
G75*
G02*
X4895950Y-17494171I45051J21688D01*
G01*
X4830621Y-17721285D02*
G75*
G02*
X4825673Y-17742973I-50036J8D01*
G01*
X4895950Y-17807830D02*
G75*
G02*
X4825673Y-17742973I-25226J43170D01*
G01*
X4895950Y-17807831D02*
G75*
G02*
X4921176Y-17801001I25226J-43171D01*
G01*
X4921176Y-17501001D02*
G75*
G02*
X4895950Y-17494171I0J50001D01*
G01*
X5080066Y-17801001D02*
G75*
G02*
X5105292Y-17807831I0J-50001D01*
G01*
X5105292Y-17494171D02*
G75*
G02*
X5080066Y-17501001I-25226J43171D01*
G01*
X5105292Y-17494171D02*
G75*
G02*
X5175569Y-17559029I25226J-43170D01*
G01*
X5170621Y-17580716D02*
G75*
G02*
X5175569Y-17559029I49999J0D01*
G01*
X5175569Y-17742973D02*
G75*
G02*
X5105292Y-17807831I-45051J-21688D01*
G01*
X5175569Y-17742973D02*
G75*
G02*
X5170621Y-17721285I45051J21688D01*
G01*
X23642480Y-15816286D02*
X23642480Y-15675718D01*
X23733035Y-15596002D02*
X23891925Y-15596002D01*
X23891925Y-15896002D02*
X23733035Y-15896002D01*
X23982480Y-15675718D02*
X23982480Y-15816286D01*
X23637532Y-15654030D02*
G75*
G02*
X23642478Y-15675718I-45052J-21682D01*
G01*
X23637532Y-15654030D02*
G75*
G02*
X23707809Y-15589172I45051J21688D01*
G01*
X23642480Y-15816287D02*
G75*
G02*
X23637532Y-15837974I-50036J8D01*
G01*
X23707809Y-15902832D02*
G75*
G02*
X23637532Y-15837974I-25226J43170D01*
G01*
X23707809Y-15902832D02*
G75*
G02*
X23733035Y-15896002I25226J-43171D01*
G01*
X23733035Y-15596002D02*
G75*
G02*
X23707809Y-15589172I0J50001D01*
G01*
X23891925Y-15896002D02*
G75*
G02*
X23917151Y-15902832I0J-50001D01*
G01*
X23917151Y-15589172D02*
G75*
G02*
X23891925Y-15596002I-25226J43171D01*
G01*
X23917151Y-15589172D02*
G75*
G02*
X23987428Y-15654030I25226J-43170D01*
G01*
X23982480Y-15675718D02*
G75*
G02*
X23987428Y-15654030I49999J0D01*
G01*
X23987428Y-15837974D02*
G75*
G02*
X23917151Y-15902832I-45051J-21688D01*
G01*
X23987428Y-15837974D02*
G75*
G02*
X23982480Y-15816286I45051J21688D01*
G01*
X24118730Y-12006290D02*
X24118730Y-11865721D01*
X24209284Y-11786006D02*
X24368175Y-11786006D01*
X24368175Y-12086005D02*
X24209284Y-12086005D01*
X24458729Y-11865721D02*
X24458729Y-12006290D01*
X24113781Y-11844033D02*
G75*
G02*
X24118727Y-11865721I-45052J-21682D01*
G01*
X24113781Y-11844033D02*
G75*
G02*
X24184058Y-11779176I45051J21688D01*
G01*
X24118730Y-12006290D02*
G75*
G02*
X24113781Y-12027977I-50036J8D01*
G01*
X24184058Y-12092835D02*
G75*
G02*
X24113782Y-12027978I-25226J43170D01*
G01*
X24184059Y-12092835D02*
G75*
G02*
X24209284Y-12086006I25226J-43171D01*
G01*
X24209284Y-11786005D02*
G75*
G02*
X24184058Y-11779176I0J50001D01*
G01*
X24368175Y-12086005D02*
G75*
G02*
X24393401Y-12092835I0J-50001D01*
G01*
X24393401Y-11779176D02*
G75*
G02*
X24368175Y-11786006I-25226J43171D01*
G01*
X24393401Y-11779176D02*
G75*
G02*
X24463678Y-11844033I25226J-43170D01*
G01*
X24458729Y-11865721D02*
G75*
G02*
X24463678Y-11844033I49999J0D01*
G01*
X24463678Y-12027977D02*
G75*
G02*
X24393401Y-12092835I-45051J-21688D01*
G01*
X24463678Y-12027977D02*
G75*
G02*
X24458729Y-12006290I45051J21688D01*
G01*
X34596221Y-12006290D02*
X34596221Y-11865721D01*
X34686776Y-11786006D02*
X34845666Y-11786006D01*
X34845666Y-12086005D02*
X34686776Y-12086005D01*
X34936221Y-11865721D02*
X34936221Y-12006290D01*
X34591272Y-11844033D02*
G75*
G02*
X34596218Y-11865721I-45052J-21682D01*
G01*
X34591272Y-11844033D02*
G75*
G02*
X34661550Y-11779176I45051J21688D01*
G01*
X34596221Y-12006290D02*
G75*
G02*
X34591273Y-12027977I-50036J8D01*
G01*
X34661550Y-12092835D02*
G75*
G02*
X34591273Y-12027978I-25226J43170D01*
G01*
X34661550Y-12092835D02*
G75*
G02*
X34686776Y-12086006I25226J-43171D01*
G01*
X34686776Y-11786005D02*
G75*
G02*
X34661550Y-11779176I0J50001D01*
G01*
X34845666Y-12086005D02*
G75*
G02*
X34870892Y-12092835I0J-50001D01*
G01*
X34870892Y-11779176D02*
G75*
G02*
X34845666Y-11786006I-25226J43171D01*
G01*
X34870892Y-11779176D02*
G75*
G02*
X34941169Y-11844033I25226J-43170D01*
G01*
X34936221Y-11865721D02*
G75*
G02*
X34941169Y-11844033I49999J0D01*
G01*
X34941169Y-12027977D02*
G75*
G02*
X34870892Y-12092835I-45051J-21688D01*
G01*
X34941169Y-12027977D02*
G75*
G02*
X34936221Y-12006290I45051J21688D01*
G01*
X16974986Y-17721285D02*
X16974986Y-17580717D01*
X17065540Y-17501001D02*
X17224431Y-17501001D01*
X17224431Y-17801001D02*
X17065540Y-17801001D01*
X17314986Y-17580717D02*
X17314986Y-17721285D01*
X16970037Y-17559029D02*
G75*
G02*
X16974983Y-17580717I-45052J-21682D01*
G01*
X16970037Y-17559029D02*
G75*
G02*
X17040315Y-17494171I45051J21688D01*
G01*
X16974986Y-17721285D02*
G75*
G02*
X16970037Y-17742973I-50036J8D01*
G01*
X17040315Y-17807830D02*
G75*
G02*
X16970038Y-17742973I-25226J43170D01*
G01*
X17040315Y-17807831D02*
G75*
G02*
X17065540Y-17801001I25226J-43171D01*
G01*
X17065540Y-17501001D02*
G75*
G02*
X17040315Y-17494171I0J50001D01*
G01*
X17224431Y-17801001D02*
G75*
G02*
X17249657Y-17807831I0J-50001D01*
G01*
X17249657Y-17494171D02*
G75*
G02*
X17224431Y-17501001I-25226J43171D01*
G01*
X17249657Y-17494171D02*
G75*
G02*
X17319934Y-17559029I25226J-43170D01*
G01*
X17314986Y-17580716D02*
G75*
G02*
X17319934Y-17559029I49999J0D01*
G01*
X17319934Y-17742973D02*
G75*
G02*
X17249657Y-17807831I-45051J-21688D01*
G01*
X17319934Y-17742973D02*
G75*
G02*
X17314986Y-17721285I45051J21688D01*
G01*
X28404976Y-12006290D02*
X28404976Y-11865721D01*
X28495531Y-11786006D02*
X28654421Y-11786006D01*
X28654421Y-12086005D02*
X28495531Y-12086005D01*
X28744976Y-11865721D02*
X28744976Y-12006290D01*
X28400028Y-11844033D02*
G75*
G02*
X28404974Y-11865721I-45052J-21682D01*
G01*
X28400028Y-11844033D02*
G75*
G02*
X28470305Y-11779176I45051J21688D01*
G01*
X28404976Y-12006290D02*
G75*
G02*
X28400028Y-12027977I-50036J8D01*
G01*
X28470305Y-12092835D02*
G75*
G02*
X28400028Y-12027978I-25226J43170D01*
G01*
X28470305Y-12092835D02*
G75*
G02*
X28495531Y-12086006I25226J-43171D01*
G01*
X28495531Y-11786005D02*
G75*
G02*
X28470305Y-11779176I0J50001D01*
G01*
X28654421Y-12086005D02*
G75*
G02*
X28679647Y-12092835I0J-50001D01*
G01*
X28679647Y-11779176D02*
G75*
G02*
X28654421Y-11786006I-25226J43171D01*
G01*
X28679647Y-11779176D02*
G75*
G02*
X28749924Y-11844033I25226J-43170D01*
G01*
X28744976Y-11865721D02*
G75*
G02*
X28749924Y-11844033I49999J0D01*
G01*
X28749924Y-12027977D02*
G75*
G02*
X28679647Y-12092835I-45051J-21688D01*
G01*
X28749924Y-12027977D02*
G75*
G02*
X28744976Y-12006290I45051J21688D01*
G01*
X3401872Y-15816286D02*
X3401872Y-15675718D01*
X3492427Y-15596002D02*
X3651317Y-15596002D01*
X3651317Y-15896002D02*
X3492427Y-15896002D01*
X3741872Y-15675718D02*
X3741872Y-15816286D01*
X3396924Y-15654030D02*
G75*
G02*
X3401870Y-15675718I-45052J-21682D01*
G01*
X3396924Y-15654030D02*
G75*
G02*
X3467201Y-15589172I45051J21688D01*
G01*
X3401872Y-15816287D02*
G75*
G02*
X3396924Y-15837974I-50036J8D01*
G01*
X3467201Y-15902832D02*
G75*
G02*
X3396924Y-15837974I-25226J43170D01*
G01*
X3467201Y-15902832D02*
G75*
G02*
X3492427Y-15896002I25226J-43171D01*
G01*
X3492427Y-15596002D02*
G75*
G02*
X3467201Y-15589172I0J50001D01*
G01*
X3651317Y-15896002D02*
G75*
G02*
X3676543Y-15902832I0J-50001D01*
G01*
X3676543Y-15589172D02*
G75*
G02*
X3651317Y-15596002I-25226J43171D01*
G01*
X3676543Y-15589172D02*
G75*
G02*
X3746820Y-15654030I25226J-43170D01*
G01*
X3741872Y-15675718D02*
G75*
G02*
X3746820Y-15654030I49999J0D01*
G01*
X3746820Y-15837974D02*
G75*
G02*
X3676543Y-15902832I-45051J-21688D01*
G01*
X3746820Y-15837974D02*
G75*
G02*
X3741872Y-15816286I45051J21688D01*
G01*
X17927485Y-15816286D02*
X17927485Y-15675718D01*
X18018040Y-15596002D02*
X18176930Y-15596002D01*
X18176930Y-15896002D02*
X18018040Y-15896002D01*
X18267485Y-15675718D02*
X18267485Y-15816286D01*
X17922536Y-15654030D02*
G75*
G02*
X17927482Y-15675718I-45052J-21682D01*
G01*
X17922536Y-15654030D02*
G75*
G02*
X17992814Y-15589172I45051J21688D01*
G01*
X17927485Y-15816287D02*
G75*
G02*
X17922537Y-15837974I-50036J8D01*
G01*
X17992814Y-15902832D02*
G75*
G02*
X17922537Y-15837974I-25226J43170D01*
G01*
X17992814Y-15902832D02*
G75*
G02*
X18018040Y-15896002I25226J-43171D01*
G01*
X18018040Y-15596002D02*
G75*
G02*
X17992814Y-15589172I0J50001D01*
G01*
X18176930Y-15896002D02*
G75*
G02*
X18202156Y-15902832I0J-50001D01*
G01*
X18202156Y-15589172D02*
G75*
G02*
X18176930Y-15596002I-25226J43171D01*
G01*
X18202156Y-15589172D02*
G75*
G02*
X18272433Y-15654030I25226J-43170D01*
G01*
X18267485Y-15675718D02*
G75*
G02*
X18272433Y-15654030I49999J0D01*
G01*
X18272433Y-15837974D02*
G75*
G02*
X18202156Y-15902832I-45051J-21688D01*
G01*
X18272433Y-15837974D02*
G75*
G02*
X18267485Y-15816286I45051J21688D01*
G01*
X10783741Y-12006290D02*
X10783741Y-11865721D01*
X10874296Y-11786006D02*
X11033186Y-11786006D01*
X11033186Y-12086005D02*
X10874296Y-12086005D01*
X11123741Y-11865721D02*
X11123741Y-12006290D01*
X10778792Y-11844033D02*
G75*
G02*
X10783738Y-11865721I-45052J-21682D01*
G01*
X10778792Y-11844033D02*
G75*
G02*
X10849070Y-11779176I45051J21688D01*
G01*
X10783741Y-12006290D02*
G75*
G02*
X10778793Y-12027977I-50036J8D01*
G01*
X10849070Y-12092835D02*
G75*
G02*
X10778793Y-12027978I-25226J43170D01*
G01*
X10849070Y-12092835D02*
G75*
G02*
X10874296Y-12086006I25226J-43171D01*
G01*
X10874296Y-11786005D02*
G75*
G02*
X10849070Y-11779176I0J50001D01*
G01*
X11033186Y-12086005D02*
G75*
G02*
X11058412Y-12092835I0J-50001D01*
G01*
X11058412Y-11779176D02*
G75*
G02*
X11033186Y-11786006I-25226J43171D01*
G01*
X11058412Y-11779176D02*
G75*
G02*
X11128689Y-11844033I25226J-43170D01*
G01*
X11123741Y-11865721D02*
G75*
G02*
X11128689Y-11844033I49999J0D01*
G01*
X11128689Y-12027977D02*
G75*
G02*
X11058412Y-12092835I-45051J-21688D01*
G01*
X11128689Y-12027977D02*
G75*
G02*
X11123741Y-12006290I45051J21688D01*
G01*
X32691222Y-17721285D02*
X32691222Y-17580717D01*
X32781777Y-17501001D02*
X32940668Y-17501001D01*
X32940668Y-17801001D02*
X32781777Y-17801001D01*
X33031222Y-17580717D02*
X33031222Y-17721285D01*
X32686274Y-17559029D02*
G75*
G02*
X32691220Y-17580717I-45052J-21682D01*
G01*
X32686274Y-17559029D02*
G75*
G02*
X32756551Y-17494171I45051J21688D01*
G01*
X32691222Y-17721285D02*
G75*
G02*
X32686274Y-17742973I-50036J8D01*
G01*
X32756551Y-17807830D02*
G75*
G02*
X32686274Y-17742973I-25226J43170D01*
G01*
X32756551Y-17807831D02*
G75*
G02*
X32781777Y-17801001I25226J-43171D01*
G01*
X32781777Y-17501001D02*
G75*
G02*
X32756551Y-17494171I0J50001D01*
G01*
X32940668Y-17801001D02*
G75*
G02*
X32965893Y-17807831I0J-50001D01*
G01*
X32965893Y-17494171D02*
G75*
G02*
X32940668Y-17501001I-25226J43171D01*
G01*
X32965893Y-17494171D02*
G75*
G02*
X33036171Y-17559029I25226J-43170D01*
G01*
X33031222Y-17580716D02*
G75*
G02*
X33036171Y-17559029I49999J0D01*
G01*
X33036171Y-17742973D02*
G75*
G02*
X32965893Y-17807831I-45051J-21688D01*
G01*
X33036171Y-17742973D02*
G75*
G02*
X33031222Y-17721285I45051J21688D01*
G01*
X34596221Y-17721285D02*
X34596221Y-17580717D01*
X34686776Y-17501001D02*
X34845666Y-17501001D01*
X34845666Y-17801001D02*
X34686776Y-17801001D01*
X34936221Y-17580717D02*
X34936221Y-17721285D01*
X34591272Y-17559029D02*
G75*
G02*
X34596218Y-17580717I-45052J-21682D01*
G01*
X34591272Y-17559029D02*
G75*
G02*
X34661550Y-17494171I45051J21688D01*
G01*
X34596221Y-17721285D02*
G75*
G02*
X34591273Y-17742973I-50036J8D01*
G01*
X34661550Y-17807830D02*
G75*
G02*
X34591273Y-17742973I-25226J43170D01*
G01*
X34661550Y-17807831D02*
G75*
G02*
X34686776Y-17801001I25226J-43171D01*
G01*
X34686776Y-17501001D02*
G75*
G02*
X34661550Y-17494171I0J50001D01*
G01*
X34845666Y-17801001D02*
G75*
G02*
X34870892Y-17807831I0J-50001D01*
G01*
X34870892Y-17494171D02*
G75*
G02*
X34845666Y-17501001I-25226J43171D01*
G01*
X34870892Y-17494171D02*
G75*
G02*
X34941169Y-17559029I25226J-43170D01*
G01*
X34936221Y-17580716D02*
G75*
G02*
X34941169Y-17559029I49999J0D01*
G01*
X34941169Y-17742973D02*
G75*
G02*
X34870892Y-17807831I-45051J-21688D01*
G01*
X34941169Y-17742973D02*
G75*
G02*
X34936221Y-17721285I45051J21688D01*
G01*
X21737482Y-15816286D02*
X21737482Y-15675718D01*
X21828036Y-15596002D02*
X21986927Y-15596002D01*
X21986927Y-15896002D02*
X21828036Y-15896002D01*
X22077482Y-15675718D02*
X22077482Y-15816286D01*
X21732533Y-15654030D02*
G75*
G02*
X21737479Y-15675718I-45052J-21682D01*
G01*
X21732533Y-15654030D02*
G75*
G02*
X21802811Y-15589172I45051J21688D01*
G01*
X21737482Y-15816287D02*
G75*
G02*
X21732533Y-15837974I-50036J8D01*
G01*
X21802811Y-15902832D02*
G75*
G02*
X21732534Y-15837974I-25226J43170D01*
G01*
X21802811Y-15902832D02*
G75*
G02*
X21828036Y-15896002I25226J-43171D01*
G01*
X21828036Y-15596002D02*
G75*
G02*
X21802811Y-15589172I0J50001D01*
G01*
X21986927Y-15896002D02*
G75*
G02*
X22012153Y-15902832I0J-50001D01*
G01*
X22012153Y-15589172D02*
G75*
G02*
X21986927Y-15596002I-25226J43171D01*
G01*
X22012153Y-15589172D02*
G75*
G02*
X22082430Y-15654030I25226J-43170D01*
G01*
X22077482Y-15675718D02*
G75*
G02*
X22082430Y-15654030I49999J0D01*
G01*
X22082430Y-15837974D02*
G75*
G02*
X22012153Y-15902832I-45051J-21688D01*
G01*
X22082430Y-15837974D02*
G75*
G02*
X22077482Y-15816286I45051J21688D01*
G01*
X2925622Y-13911288D02*
X2925622Y-13770720D01*
X3016177Y-13691004D02*
X3175068Y-13691004D01*
X3175068Y-13991004D02*
X3016177Y-13991004D01*
X3265622Y-13770720D02*
X3265622Y-13911288D01*
X2920674Y-13749032D02*
G75*
G02*
X2925620Y-13770720I-45052J-21682D01*
G01*
X2920674Y-13749032D02*
G75*
G02*
X2990951Y-13684174I45051J21688D01*
G01*
X2925622Y-13911288D02*
G75*
G02*
X2920674Y-13932976I-50036J8D01*
G01*
X2990951Y-13997834D02*
G75*
G02*
X2920674Y-13932976I-25226J43170D01*
G01*
X2990951Y-13997834D02*
G75*
G02*
X3016177Y-13991004I25226J-43171D01*
G01*
X3016177Y-13691004D02*
G75*
G02*
X2990951Y-13684174I0J50001D01*
G01*
X3175068Y-13991004D02*
G75*
G02*
X3200293Y-13997834I0J-50001D01*
G01*
X3200293Y-13684174D02*
G75*
G02*
X3175068Y-13691004I-25226J43171D01*
G01*
X3200293Y-13684174D02*
G75*
G02*
X3270571Y-13749032I25226J-43170D01*
G01*
X3265622Y-13770720D02*
G75*
G02*
X3270571Y-13749032I49999J0D01*
G01*
X3270571Y-13932976D02*
G75*
G02*
X3200293Y-13997834I-45051J-21688D01*
G01*
X3270571Y-13932976D02*
G75*
G02*
X3265622Y-13911288I45051J21688D01*
G01*
X11259990Y-17721285D02*
X11259990Y-17580717D01*
X11350545Y-17501001D02*
X11509436Y-17501001D01*
X11509436Y-17801001D02*
X11350545Y-17801001D01*
X11599990Y-17580717D02*
X11599990Y-17721285D01*
X11255042Y-17559029D02*
G75*
G02*
X11259988Y-17580717I-45052J-21682D01*
G01*
X11255042Y-17559029D02*
G75*
G02*
X11325319Y-17494171I45051J21688D01*
G01*
X11259990Y-17721285D02*
G75*
G02*
X11255042Y-17742973I-50036J8D01*
G01*
X11325319Y-17807830D02*
G75*
G02*
X11255042Y-17742973I-25226J43170D01*
G01*
X11325319Y-17807831D02*
G75*
G02*
X11350545Y-17801001I25226J-43171D01*
G01*
X11350545Y-17501001D02*
G75*
G02*
X11325319Y-17494171I0J50001D01*
G01*
X11509436Y-17801001D02*
G75*
G02*
X11534661Y-17807831I0J-50001D01*
G01*
X11534661Y-17494171D02*
G75*
G02*
X11509436Y-17501001I-25226J43171D01*
G01*
X11534661Y-17494171D02*
G75*
G02*
X11604939Y-17559029I25226J-43170D01*
G01*
X11599990Y-17580716D02*
G75*
G02*
X11604939Y-17559029I49999J0D01*
G01*
X11604939Y-17742973D02*
G75*
G02*
X11534661Y-17807831I-45051J-21688D01*
G01*
X11604939Y-17742973D02*
G75*
G02*
X11599990Y-17721285I45051J21688D01*
G01*
X36501219Y-12006290D02*
X36501219Y-11865721D01*
X36591774Y-11786006D02*
X36750665Y-11786006D01*
X36750664Y-12086005D02*
X36591774Y-12086005D01*
X36841219Y-11865721D02*
X36841219Y-12006290D01*
X36496271Y-11844033D02*
G75*
G02*
X36501217Y-11865721I-45052J-21682D01*
G01*
X36496271Y-11844033D02*
G75*
G02*
X36566548Y-11779176I45051J21688D01*
G01*
X36501219Y-12006290D02*
G75*
G02*
X36496271Y-12027977I-50036J8D01*
G01*
X36566548Y-12092835D02*
G75*
G02*
X36496271Y-12027978I-25226J43170D01*
G01*
X36566548Y-12092835D02*
G75*
G02*
X36591774Y-12086006I25226J-43171D01*
G01*
X36591774Y-11786005D02*
G75*
G02*
X36566548Y-11779176I0J50001D01*
G01*
X36750664Y-12086005D02*
G75*
G02*
X36775890Y-12092835I0J-50001D01*
G01*
X36775890Y-11779176D02*
G75*
G02*
X36750665Y-11786006I-25226J43171D01*
G01*
X36775890Y-11779176D02*
G75*
G02*
X36846168Y-11844033I25226J-43170D01*
G01*
X36841219Y-11865721D02*
G75*
G02*
X36846168Y-11844033I49999J0D01*
G01*
X36846168Y-12027977D02*
G75*
G02*
X36775890Y-12092835I-45051J-21688D01*
G01*
X36846168Y-12027977D02*
G75*
G02*
X36841219Y-12006290I45051J21688D01*
G01*
X5068746Y-12006290D02*
X5068746Y-11865721D01*
X5159300Y-11786006D02*
X5318191Y-11786006D01*
X5318191Y-12086005D02*
X5159300Y-12086005D01*
X5408746Y-11865721D02*
X5408746Y-12006290D01*
X5063797Y-11844033D02*
G75*
G02*
X5068743Y-11865721I-45052J-21682D01*
G01*
X5063797Y-11844033D02*
G75*
G02*
X5134075Y-11779176I45051J21688D01*
G01*
X5068746Y-12006290D02*
G75*
G02*
X5063797Y-12027977I-50036J8D01*
G01*
X5134075Y-12092835D02*
G75*
G02*
X5063798Y-12027978I-25226J43170D01*
G01*
X5134075Y-12092835D02*
G75*
G02*
X5159300Y-12086006I25226J-43171D01*
G01*
X5159300Y-11786005D02*
G75*
G02*
X5134075Y-11779176I0J50001D01*
G01*
X5318191Y-12086005D02*
G75*
G02*
X5343417Y-12092835I0J-50001D01*
G01*
X5343417Y-11779176D02*
G75*
G02*
X5318191Y-11786006I-25226J43171D01*
G01*
X5343417Y-11779176D02*
G75*
G02*
X5413694Y-11844033I25226J-43170D01*
G01*
X5408746Y-11865721D02*
G75*
G02*
X5413694Y-11844033I49999J0D01*
G01*
X5413694Y-12027977D02*
G75*
G02*
X5343417Y-12092835I-45051J-21688D01*
G01*
X5413694Y-12027977D02*
G75*
G02*
X5408746Y-12006290I45051J21688D01*
G01*
X20784983Y-13911288D02*
X20784983Y-13770720D01*
X20875537Y-13691004D02*
X21034428Y-13691004D01*
X21034428Y-13991004D02*
X20875537Y-13991004D01*
X21124982Y-13770720D02*
X21124982Y-13911288D01*
X20780034Y-13749032D02*
G75*
G02*
X20784980Y-13770720I-45052J-21682D01*
G01*
X20780034Y-13749032D02*
G75*
G02*
X20850311Y-13684174I45051J21688D01*
G01*
X20784983Y-13911288D02*
G75*
G02*
X20780034Y-13932976I-50036J8D01*
G01*
X20850311Y-13997834D02*
G75*
G02*
X20780034Y-13932976I-25226J43170D01*
G01*
X20850311Y-13997834D02*
G75*
G02*
X20875537Y-13991004I25226J-43171D01*
G01*
X20875537Y-13691004D02*
G75*
G02*
X20850311Y-13684174I0J50001D01*
G01*
X21034428Y-13991004D02*
G75*
G02*
X21059654Y-13997834I0J-50001D01*
G01*
X21059654Y-13684174D02*
G75*
G02*
X21034428Y-13691004I-25226J43171D01*
G01*
X21059654Y-13684174D02*
G75*
G02*
X21129931Y-13749032I25226J-43170D01*
G01*
X21124982Y-13770720D02*
G75*
G02*
X21129931Y-13749032I49999J0D01*
G01*
X21129931Y-13932976D02*
G75*
G02*
X21059654Y-13997834I-45051J-21688D01*
G01*
X21129931Y-13932976D02*
G75*
G02*
X21124982Y-13911288I45051J21688D01*
G01*
X6497494Y-15816286D02*
X6497494Y-15675718D01*
X6588049Y-15596002D02*
X6746940Y-15596002D01*
X6746940Y-15896002D02*
X6588049Y-15896002D01*
X6837494Y-15675718D02*
X6837494Y-15816286D01*
X6492546Y-15654030D02*
G75*
G02*
X6497492Y-15675718I-45052J-21682D01*
G01*
X6492546Y-15654030D02*
G75*
G02*
X6562823Y-15589172I45051J21688D01*
G01*
X6497494Y-15816287D02*
G75*
G02*
X6492546Y-15837974I-50036J8D01*
G01*
X6562823Y-15902832D02*
G75*
G02*
X6492546Y-15837974I-25226J43170D01*
G01*
X6562823Y-15902832D02*
G75*
G02*
X6588049Y-15896002I25226J-43171D01*
G01*
X6588049Y-15596002D02*
G75*
G02*
X6562823Y-15589172I0J50001D01*
G01*
X6746940Y-15896002D02*
G75*
G02*
X6772165Y-15902832I0J-50001D01*
G01*
X6772165Y-15589172D02*
G75*
G02*
X6746940Y-15596002I-25226J43171D01*
G01*
X6772165Y-15589172D02*
G75*
G02*
X6842443Y-15654030I25226J-43170D01*
G01*
X6837494Y-15675718D02*
G75*
G02*
X6842443Y-15654030I49999J0D01*
G01*
X6842443Y-15837974D02*
G75*
G02*
X6772165Y-15902832I-45051J-21688D01*
G01*
X6842443Y-15837974D02*
G75*
G02*
X6837494Y-15816286I45051J21688D01*
G01*
X15069987Y-13911288D02*
X15069987Y-13770720D01*
X15160542Y-13691004D02*
X15319432Y-13691004D01*
X15319432Y-13991004D02*
X15160542Y-13991004D01*
X15409987Y-13770720D02*
X15409987Y-13911288D01*
X15065039Y-13749032D02*
G75*
G02*
X15069985Y-13770720I-45052J-21682D01*
G01*
X15065039Y-13749032D02*
G75*
G02*
X15135316Y-13684174I45051J21688D01*
G01*
X15069987Y-13911288D02*
G75*
G02*
X15065039Y-13932976I-50036J8D01*
G01*
X15135316Y-13997834D02*
G75*
G02*
X15065039Y-13932976I-25226J43170D01*
G01*
X15135316Y-13997834D02*
G75*
G02*
X15160542Y-13991004I25226J-43171D01*
G01*
X15160542Y-13691004D02*
G75*
G02*
X15135316Y-13684174I0J50001D01*
G01*
X15319432Y-13991004D02*
G75*
G02*
X15344658Y-13997834I0J-50001D01*
G01*
X15344658Y-13684174D02*
G75*
G02*
X15319432Y-13691004I-25226J43171D01*
G01*
X15344658Y-13684174D02*
G75*
G02*
X15414936Y-13749032I25226J-43170D01*
G01*
X15409987Y-13770720D02*
G75*
G02*
X15414936Y-13749032I49999J0D01*
G01*
X15414936Y-13932976D02*
G75*
G02*
X15344658Y-13997834I-45051J-21688D01*
G01*
X15414936Y-13932976D02*
G75*
G02*
X15409987Y-13911288I45051J21688D01*
G01*
X27690602Y-13911288D02*
X27690602Y-13770720D01*
X27781156Y-13691004D02*
X27940047Y-13691004D01*
X27940047Y-13991004D02*
X27781156Y-13991004D01*
X28030601Y-13770720D02*
X28030601Y-13911288D01*
X27685653Y-13749032D02*
G75*
G02*
X27690599Y-13770720I-45052J-21682D01*
G01*
X27685653Y-13749032D02*
G75*
G02*
X27755930Y-13684174I45051J21688D01*
G01*
X27690602Y-13911288D02*
G75*
G02*
X27685653Y-13932976I-50036J8D01*
G01*
X27755930Y-13997834D02*
G75*
G02*
X27685654Y-13932976I-25226J43170D01*
G01*
X27755931Y-13997834D02*
G75*
G02*
X27781156Y-13991004I25226J-43171D01*
G01*
X27781156Y-13691004D02*
G75*
G02*
X27755930Y-13684174I0J50001D01*
G01*
X27940047Y-13991004D02*
G75*
G02*
X27965273Y-13997834I0J-50001D01*
G01*
X27965273Y-13684174D02*
G75*
G02*
X27940047Y-13691004I-25226J43171D01*
G01*
X27965273Y-13684174D02*
G75*
G02*
X28035550Y-13749032I25226J-43170D01*
G01*
X28030601Y-13770720D02*
G75*
G02*
X28035550Y-13749032I49999J0D01*
G01*
X28035550Y-13932976D02*
G75*
G02*
X27965273Y-13997834I-45051J-21688D01*
G01*
X28035550Y-13932976D02*
G75*
G02*
X28030601Y-13911288I45051J21688D01*
G01*
X16022486Y-15816286D02*
X16022486Y-15675718D01*
X16113041Y-15596002D02*
X16271932Y-15596002D01*
X16271932Y-15896002D02*
X16113041Y-15896002D01*
X16362486Y-15675718D02*
X16362486Y-15816286D01*
X16017538Y-15654030D02*
G75*
G02*
X16022484Y-15675718I-45052J-21682D01*
G01*
X16017538Y-15654030D02*
G75*
G02*
X16087815Y-15589172I45051J21688D01*
G01*
X16022486Y-15816287D02*
G75*
G02*
X16017538Y-15837974I-50036J8D01*
G01*
X16087815Y-15902832D02*
G75*
G02*
X16017538Y-15837974I-25226J43170D01*
G01*
X16087815Y-15902832D02*
G75*
G02*
X16113041Y-15896002I25226J-43171D01*
G01*
X16113041Y-15596002D02*
G75*
G02*
X16087815Y-15589172I0J50001D01*
G01*
X16271932Y-15896002D02*
G75*
G02*
X16297157Y-15902832I0J-50001D01*
G01*
X16297157Y-15589172D02*
G75*
G02*
X16271932Y-15596002I-25226J43171D01*
G01*
X16297157Y-15589172D02*
G75*
G02*
X16367435Y-15654030I25226J-43170D01*
G01*
X16362486Y-15675718D02*
G75*
G02*
X16367435Y-15654030I49999J0D01*
G01*
X16367435Y-15837974D02*
G75*
G02*
X16297157Y-15902832I-45051J-21688D01*
G01*
X16367435Y-15837974D02*
G75*
G02*
X16362486Y-15816286I45051J21688D01*
G01*
X22689981Y-13911288D02*
X22689981Y-13770720D01*
X22780536Y-13691004D02*
X22939426Y-13691004D01*
X22939426Y-13991004D02*
X22780536Y-13991004D01*
X23029981Y-13770720D02*
X23029981Y-13911288D01*
X22685032Y-13749032D02*
G75*
G02*
X22689978Y-13770720I-45052J-21682D01*
G01*
X22685032Y-13749032D02*
G75*
G02*
X22755310Y-13684174I45051J21688D01*
G01*
X22689981Y-13911288D02*
G75*
G02*
X22685032Y-13932976I-50036J8D01*
G01*
X22755310Y-13997834D02*
G75*
G02*
X22685033Y-13932976I-25226J43170D01*
G01*
X22755310Y-13997834D02*
G75*
G02*
X22780536Y-13991004I25226J-43171D01*
G01*
X22780535Y-13691004D02*
G75*
G02*
X22755310Y-13684174I0J50001D01*
G01*
X22939426Y-13991004D02*
G75*
G02*
X22964652Y-13997834I0J-50001D01*
G01*
X22964652Y-13684174D02*
G75*
G02*
X22939426Y-13691004I-25226J43171D01*
G01*
X22964652Y-13684174D02*
G75*
G02*
X23034929Y-13749032I25226J-43170D01*
G01*
X23029981Y-13770720D02*
G75*
G02*
X23034929Y-13749032I49999J0D01*
G01*
X23034929Y-13932976D02*
G75*
G02*
X22964652Y-13997834I-45051J-21688D01*
G01*
X23034929Y-13932976D02*
G75*
G02*
X23029981Y-13911288I45051J21688D01*
G01*
X23399450Y-17721285D02*
X23399450Y-17580717D01*
X23490005Y-17501001D02*
X23648895Y-17501001D01*
X23648895Y-17801001D02*
X23490005Y-17801001D01*
X23739450Y-17580717D02*
X23739450Y-17721285D01*
X23394502Y-17559029D02*
G75*
G02*
X23399448Y-17580717I-45052J-21682D01*
G01*
X23394502Y-17559029D02*
G75*
G02*
X23464779Y-17494171I45051J21688D01*
G01*
X23399450Y-17721285D02*
G75*
G02*
X23394502Y-17742973I-50036J8D01*
G01*
X23464779Y-17807830D02*
G75*
G02*
X23394502Y-17742973I-25226J43170D01*
G01*
X23464779Y-17807831D02*
G75*
G02*
X23490005Y-17801001I25226J-43171D01*
G01*
X23490005Y-17501001D02*
G75*
G02*
X23464779Y-17494171I0J50001D01*
G01*
X23648895Y-17801001D02*
G75*
G02*
X23674121Y-17807831I0J-50001D01*
G01*
X23674121Y-17494171D02*
G75*
G02*
X23648895Y-17501001I-25226J43171D01*
G01*
X23674121Y-17494171D02*
G75*
G02*
X23744398Y-17559029I25226J-43170D01*
G01*
X23739450Y-17580716D02*
G75*
G02*
X23744398Y-17559029I49999J0D01*
G01*
X23744398Y-17742973D02*
G75*
G02*
X23674121Y-17807831I-45051J-21688D01*
G01*
X23744398Y-17742973D02*
G75*
G02*
X23739450Y-17721285I45051J21688D01*
G01*
X38406218Y-13911288D02*
X38406218Y-13770720D01*
X38496772Y-13691004D02*
X38655663Y-13691004D01*
X38655663Y-13991004D02*
X38496772Y-13991004D01*
X38746218Y-13770720D02*
X38746218Y-13911288D01*
X38401269Y-13749032D02*
G75*
G02*
X38406215Y-13770720I-45052J-21682D01*
G01*
X38401269Y-13749032D02*
G75*
G02*
X38471547Y-13684174I45051J21688D01*
G01*
X38406218Y-13911288D02*
G75*
G02*
X38401269Y-13932976I-50036J8D01*
G01*
X38471547Y-13997834D02*
G75*
G02*
X38401270Y-13932976I-25226J43170D01*
G01*
X38471547Y-13997834D02*
G75*
G02*
X38496772Y-13991004I25226J-43171D01*
G01*
X38496772Y-13691004D02*
G75*
G02*
X38471547Y-13684174I0J50001D01*
G01*
X38655663Y-13991004D02*
G75*
G02*
X38680889Y-13997834I0J-50001D01*
G01*
X38680889Y-13684174D02*
G75*
G02*
X38655663Y-13691004I-25226J43171D01*
G01*
X38680889Y-13684174D02*
G75*
G02*
X38751166Y-13749032I25226J-43170D01*
G01*
X38746218Y-13770720D02*
G75*
G02*
X38751166Y-13749032I49999J0D01*
G01*
X38751166Y-13932976D02*
G75*
G02*
X38680889Y-13997834I-45051J-21688D01*
G01*
X38751166Y-13932976D02*
G75*
G02*
X38746218Y-13911288I45051J21688D01*
G01*
X36501219Y-15816286D02*
X36501219Y-15675718D01*
X36591774Y-15596002D02*
X36750665Y-15596002D01*
X36750664Y-15896002D02*
X36591774Y-15896002D01*
X36841219Y-15675718D02*
X36841219Y-15816286D01*
X36496271Y-15654030D02*
G75*
G02*
X36501217Y-15675718I-45052J-21682D01*
G01*
X36496271Y-15654030D02*
G75*
G02*
X36566548Y-15589172I45051J21688D01*
G01*
X36501219Y-15816287D02*
G75*
G02*
X36496271Y-15837974I-50036J8D01*
G01*
X36566548Y-15902832D02*
G75*
G02*
X36496271Y-15837974I-25226J43170D01*
G01*
X36566548Y-15902832D02*
G75*
G02*
X36591774Y-15896002I25226J-43171D01*
G01*
X36591774Y-15596002D02*
G75*
G02*
X36566548Y-15589172I0J50001D01*
G01*
X36750664Y-15896002D02*
G75*
G02*
X36775890Y-15902832I0J-50001D01*
G01*
X36775890Y-15589172D02*
G75*
G02*
X36750665Y-15596002I-25226J43171D01*
G01*
X36775890Y-15589172D02*
G75*
G02*
X36846168Y-15654030I25226J-43170D01*
G01*
X36841219Y-15675718D02*
G75*
G02*
X36846168Y-15654030I49999J0D01*
G01*
X36846168Y-15837974D02*
G75*
G02*
X36775890Y-15902832I-45051J-21688D01*
G01*
X36846168Y-15837974D02*
G75*
G02*
X36841219Y-15816286I45051J21688D01*
G01*
X7449994Y-13911288D02*
X7449994Y-13770720D01*
X7540548Y-13691004D02*
X7699439Y-13691004D01*
X7699439Y-13991004D02*
X7540548Y-13991004D01*
X7789993Y-13770720D02*
X7789993Y-13911288D01*
X7445045Y-13749032D02*
G75*
G02*
X7449991Y-13770720I-45052J-21682D01*
G01*
X7445045Y-13749032D02*
G75*
G02*
X7515322Y-13684174I45051J21688D01*
G01*
X7449994Y-13911288D02*
G75*
G02*
X7445045Y-13932976I-50036J8D01*
G01*
X7515322Y-13997834D02*
G75*
G02*
X7445046Y-13932976I-25226J43170D01*
G01*
X7515323Y-13997834D02*
G75*
G02*
X7540548Y-13991004I25226J-43171D01*
G01*
X7540548Y-13691004D02*
G75*
G02*
X7515322Y-13684174I0J50001D01*
G01*
X7699439Y-13991004D02*
G75*
G02*
X7724665Y-13997834I0J-50001D01*
G01*
X7724665Y-13684174D02*
G75*
G02*
X7699439Y-13691004I-25226J43171D01*
G01*
X7724665Y-13684174D02*
G75*
G02*
X7794942Y-13749032I25226J-43170D01*
G01*
X7789993Y-13770720D02*
G75*
G02*
X7794942Y-13749032I49999J0D01*
G01*
X7794942Y-13932976D02*
G75*
G02*
X7724665Y-13997834I-45051J-21688D01*
G01*
X7794942Y-13932976D02*
G75*
G02*
X7789993Y-13911288I45051J21688D01*
G01*
X2449373Y-17721285D02*
X2449373Y-17580717D01*
X2539928Y-17501001D02*
X2698818Y-17501001D01*
X2698818Y-17801001D02*
X2539928Y-17801001D01*
X2789373Y-17580717D02*
X2789373Y-17721285D01*
X2444424Y-17559029D02*
G75*
G02*
X2449370Y-17580717I-45052J-21682D01*
G01*
X2444424Y-17559029D02*
G75*
G02*
X2514702Y-17494171I45051J21688D01*
G01*
X2449373Y-17721285D02*
G75*
G02*
X2444425Y-17742973I-50036J8D01*
G01*
X2514702Y-17807830D02*
G75*
G02*
X2444425Y-17742973I-25226J43170D01*
G01*
X2514702Y-17807831D02*
G75*
G02*
X2539928Y-17801001I25226J-43171D01*
G01*
X2539928Y-17501001D02*
G75*
G02*
X2514702Y-17494171I0J50001D01*
G01*
X2698818Y-17801001D02*
G75*
G02*
X2724044Y-17807831I0J-50001D01*
G01*
X2724044Y-17494171D02*
G75*
G02*
X2698818Y-17501001I-25226J43171D01*
G01*
X2724044Y-17494171D02*
G75*
G02*
X2794321Y-17559029I25226J-43170D01*
G01*
X2789373Y-17580716D02*
G75*
G02*
X2794321Y-17559029I49999J0D01*
G01*
X2794321Y-17742973D02*
G75*
G02*
X2724044Y-17807831I-45051J-21688D01*
G01*
X2794321Y-17742973D02*
G75*
G02*
X2789373Y-17721285I45051J21688D01*
G01*
X6973744Y-12006290D02*
X6973744Y-11865721D01*
X7064299Y-11786006D02*
X7223189Y-11786006D01*
X7223189Y-12086005D02*
X7064299Y-12086005D01*
X7313744Y-11865721D02*
X7313744Y-12006290D01*
X6968796Y-11844033D02*
G75*
G02*
X6973742Y-11865721I-45052J-21682D01*
G01*
X6968796Y-11844033D02*
G75*
G02*
X7039073Y-11779176I45051J21688D01*
G01*
X6973744Y-12006290D02*
G75*
G02*
X6968796Y-12027977I-50036J8D01*
G01*
X7039073Y-12092835D02*
G75*
G02*
X6968796Y-12027978I-25226J43170D01*
G01*
X7039073Y-12092835D02*
G75*
G02*
X7064299Y-12086006I25226J-43171D01*
G01*
X7064299Y-11786005D02*
G75*
G02*
X7039073Y-11779176I0J50001D01*
G01*
X7223189Y-12086005D02*
G75*
G02*
X7248415Y-12092835I0J-50001D01*
G01*
X7248415Y-11779176D02*
G75*
G02*
X7223189Y-11786006I-25226J43171D01*
G01*
X7248415Y-11779176D02*
G75*
G02*
X7318692Y-11844033I25226J-43170D01*
G01*
X7313744Y-11865721D02*
G75*
G02*
X7318692Y-11844033I49999J0D01*
G01*
X7318692Y-12027977D02*
G75*
G02*
X7248415Y-12092835I-45051J-21688D01*
G01*
X7318692Y-12027977D02*
G75*
G02*
X7313744Y-12006290I45051J21688D01*
G01*
X36501219Y-13911288D02*
X36501219Y-13770720D01*
X36591774Y-13691004D02*
X36750665Y-13691004D01*
X36750664Y-13991004D02*
X36591774Y-13991004D01*
X36841219Y-13770720D02*
X36841219Y-13911288D01*
X36496271Y-13749032D02*
G75*
G02*
X36501217Y-13770720I-45052J-21682D01*
G01*
X36496271Y-13749032D02*
G75*
G02*
X36566548Y-13684174I45051J21688D01*
G01*
X36501219Y-13911288D02*
G75*
G02*
X36496271Y-13932976I-50036J8D01*
G01*
X36566548Y-13997834D02*
G75*
G02*
X36496271Y-13932976I-25226J43170D01*
G01*
X36566548Y-13997834D02*
G75*
G02*
X36591774Y-13991004I25226J-43171D01*
G01*
X36591774Y-13691004D02*
G75*
G02*
X36566548Y-13684174I0J50001D01*
G01*
X36750664Y-13991004D02*
G75*
G02*
X36775890Y-13997834I0J-50001D01*
G01*
X36775890Y-13684174D02*
G75*
G02*
X36750665Y-13691004I-25226J43171D01*
G01*
X36775890Y-13684174D02*
G75*
G02*
X36846168Y-13749032I25226J-43170D01*
G01*
X36841219Y-13770720D02*
G75*
G02*
X36846168Y-13749032I49999J0D01*
G01*
X36846168Y-13932976D02*
G75*
G02*
X36775890Y-13997834I-45051J-21688D01*
G01*
X36846168Y-13932976D02*
G75*
G02*
X36841219Y-13911288I45051J21688D01*
G01*
X2687498Y-12006290D02*
X2687498Y-11865721D01*
X2778052Y-11786006D02*
X2936943Y-11786006D01*
X2936943Y-12086005D02*
X2778052Y-12086005D01*
X3027497Y-11865721D02*
X3027497Y-12006290D01*
X2682549Y-11844033D02*
G75*
G02*
X2687495Y-11865721I-45052J-21682D01*
G01*
X2682549Y-11844033D02*
G75*
G02*
X2752827Y-11779176I45051J21688D01*
G01*
X2687498Y-12006290D02*
G75*
G02*
X2682549Y-12027977I-50036J8D01*
G01*
X2752827Y-12092835D02*
G75*
G02*
X2682550Y-12027978I-25226J43170D01*
G01*
X2752827Y-12092835D02*
G75*
G02*
X2778052Y-12086006I25226J-43171D01*
G01*
X2778052Y-11786005D02*
G75*
G02*
X2752827Y-11779176I0J50001D01*
G01*
X2936943Y-12086005D02*
G75*
G02*
X2962169Y-12092835I0J-50001D01*
G01*
X2962169Y-11779176D02*
G75*
G02*
X2936943Y-11786006I-25226J43171D01*
G01*
X2962169Y-11779176D02*
G75*
G02*
X3032446Y-11844033I25226J-43170D01*
G01*
X3027497Y-11865721D02*
G75*
G02*
X3032446Y-11844033I49999J0D01*
G01*
X3032446Y-12027977D02*
G75*
G02*
X2962169Y-12092835I-45051J-21688D01*
G01*
X3032446Y-12027977D02*
G75*
G02*
X3027497Y-12006290I45051J21688D01*
G01*
X9354992Y-13911288D02*
X9354992Y-13770720D01*
X9445547Y-13691004D02*
X9604437Y-13691004D01*
X9604437Y-13991004D02*
X9445547Y-13991004D01*
X9694992Y-13770720D02*
X9694992Y-13911288D01*
X9350044Y-13749032D02*
G75*
G02*
X9354990Y-13770720I-45052J-21682D01*
G01*
X9350044Y-13749032D02*
G75*
G02*
X9420321Y-13684174I45051J21688D01*
G01*
X9354992Y-13911288D02*
G75*
G02*
X9350044Y-13932976I-50036J8D01*
G01*
X9420321Y-13997834D02*
G75*
G02*
X9350044Y-13932976I-25226J43170D01*
G01*
X9420321Y-13997834D02*
G75*
G02*
X9445547Y-13991004I25226J-43171D01*
G01*
X9445547Y-13691004D02*
G75*
G02*
X9420321Y-13684174I0J50001D01*
G01*
X9604437Y-13991004D02*
G75*
G02*
X9629663Y-13997834I0J-50001D01*
G01*
X9629663Y-13684174D02*
G75*
G02*
X9604437Y-13691004I-25226J43171D01*
G01*
X9629663Y-13684174D02*
G75*
G02*
X9699940Y-13749032I25226J-43170D01*
G01*
X9694992Y-13770720D02*
G75*
G02*
X9699940Y-13749032I49999J0D01*
G01*
X9699940Y-13932976D02*
G75*
G02*
X9629663Y-13997834I-45051J-21688D01*
G01*
X9699940Y-13932976D02*
G75*
G02*
X9694992Y-13911288I45051J21688D01*
G01*
X38406218Y-17721285D02*
X38406218Y-17580717D01*
X38496772Y-17501001D02*
X38655663Y-17501001D01*
X38655663Y-17801001D02*
X38496772Y-17801001D01*
X38746218Y-17580717D02*
X38746218Y-17721285D01*
X38401269Y-17559029D02*
G75*
G02*
X38406215Y-17580717I-45052J-21682D01*
G01*
X38401269Y-17559029D02*
G75*
G02*
X38471547Y-17494171I45051J21688D01*
G01*
X38406218Y-17721285D02*
G75*
G02*
X38401269Y-17742973I-50036J8D01*
G01*
X38471547Y-17807830D02*
G75*
G02*
X38401270Y-17742973I-25226J43170D01*
G01*
X38471547Y-17807831D02*
G75*
G02*
X38496772Y-17801001I25226J-43171D01*
G01*
X38496772Y-17501001D02*
G75*
G02*
X38471547Y-17494171I0J50001D01*
G01*
X38655663Y-17801001D02*
G75*
G02*
X38680889Y-17807831I0J-50001D01*
G01*
X38680889Y-17494171D02*
G75*
G02*
X38655663Y-17501001I-25226J43171D01*
G01*
X38680889Y-17494171D02*
G75*
G02*
X38751166Y-17559029I25226J-43170D01*
G01*
X38746218Y-17580716D02*
G75*
G02*
X38751166Y-17559029I49999J0D01*
G01*
X38751166Y-17742973D02*
G75*
G02*
X38680889Y-17807831I-45051J-21688D01*
G01*
X38751166Y-17742973D02*
G75*
G02*
X38746218Y-17721285I45051J21688D01*
G01*
X8878743Y-12006290D02*
X8878743Y-11865721D01*
X8969297Y-11786006D02*
X9128188Y-11786006D01*
X9128188Y-12086005D02*
X8969297Y-12086005D01*
X9218742Y-11865721D02*
X9218742Y-12006290D01*
X8873794Y-11844033D02*
G75*
G02*
X8878740Y-11865721I-45052J-21682D01*
G01*
X8873794Y-11844033D02*
G75*
G02*
X8944071Y-11779176I45051J21688D01*
G01*
X8878743Y-12006290D02*
G75*
G02*
X8873794Y-12027977I-50036J8D01*
G01*
X8944071Y-12092835D02*
G75*
G02*
X8873794Y-12027978I-25226J43170D01*
G01*
X8944071Y-12092835D02*
G75*
G02*
X8969297Y-12086006I25226J-43171D01*
G01*
X8969297Y-11786005D02*
G75*
G02*
X8944071Y-11779176I0J50001D01*
G01*
X9128188Y-12086005D02*
G75*
G02*
X9153414Y-12092835I0J-50001D01*
G01*
X9153414Y-11779176D02*
G75*
G02*
X9128188Y-11786006I-25226J43171D01*
G01*
X9153414Y-11779176D02*
G75*
G02*
X9223691Y-11844033I25226J-43170D01*
G01*
X9218742Y-11865721D02*
G75*
G02*
X9223691Y-11844033I49999J0D01*
G01*
X9223691Y-12027977D02*
G75*
G02*
X9153414Y-12092835I-45051J-21688D01*
G01*
X9223691Y-12027977D02*
G75*
G02*
X9218742Y-12006290I45051J21688D01*
G01*
X18403735Y-12006290D02*
X18403735Y-11865721D01*
X18494289Y-11786006D02*
X18653180Y-11786006D01*
X18653180Y-12086005D02*
X18494289Y-12086005D01*
X18743734Y-11865721D02*
X18743734Y-12006290D01*
X18398786Y-11844033D02*
G75*
G02*
X18403732Y-11865721I-45052J-21682D01*
G01*
X18398786Y-11844033D02*
G75*
G02*
X18469063Y-11779176I45051J21688D01*
G01*
X18403735Y-12006290D02*
G75*
G02*
X18398786Y-12027977I-50036J8D01*
G01*
X18469063Y-12092835D02*
G75*
G02*
X18398786Y-12027978I-25226J43170D01*
G01*
X18469063Y-12092835D02*
G75*
G02*
X18494289Y-12086006I25226J-43171D01*
G01*
X18494289Y-11786005D02*
G75*
G02*
X18469063Y-11779176I0J50001D01*
G01*
X18653180Y-12086005D02*
G75*
G02*
X18678406Y-12092835I0J-50001D01*
G01*
X18678406Y-11779176D02*
G75*
G02*
X18653180Y-11786006I-25226J43171D01*
G01*
X18678406Y-11779176D02*
G75*
G02*
X18748683Y-11844033I25226J-43170D01*
G01*
X18743734Y-11865721D02*
G75*
G02*
X18748683Y-11844033I49999J0D01*
G01*
X18748683Y-12027977D02*
G75*
G02*
X18678406Y-12092835I-45051J-21688D01*
G01*
X18748683Y-12027977D02*
G75*
G02*
X18743734Y-12006290I45051J21688D01*
G01*
X32691222Y-15816286D02*
X32691222Y-15675718D01*
X32781777Y-15596002D02*
X32940668Y-15596002D01*
X32940668Y-15896002D02*
X32781777Y-15896002D01*
X33031222Y-15675718D02*
X33031222Y-15816286D01*
X32686274Y-15654030D02*
G75*
G02*
X32691220Y-15675718I-45052J-21682D01*
G01*
X32686274Y-15654030D02*
G75*
G02*
X32756551Y-15589172I45051J21688D01*
G01*
X32691222Y-15816287D02*
G75*
G02*
X32686274Y-15837974I-50036J8D01*
G01*
X32756551Y-15902832D02*
G75*
G02*
X32686274Y-15837974I-25226J43170D01*
G01*
X32756551Y-15902832D02*
G75*
G02*
X32781777Y-15896002I25226J-43171D01*
G01*
X32781777Y-15596002D02*
G75*
G02*
X32756551Y-15589172I0J50001D01*
G01*
X32940668Y-15896002D02*
G75*
G02*
X32965893Y-15902832I0J-50001D01*
G01*
X32965893Y-15589172D02*
G75*
G02*
X32940668Y-15596002I-25226J43171D01*
G01*
X32965893Y-15589172D02*
G75*
G02*
X33036171Y-15654030I25226J-43170D01*
G01*
X33031222Y-15675718D02*
G75*
G02*
X33036171Y-15654030I49999J0D01*
G01*
X33036171Y-15837974D02*
G75*
G02*
X32965893Y-15902832I-45051J-21688D01*
G01*
X33036171Y-15837974D02*
G75*
G02*
X33031222Y-15816286I45051J21688D01*
G01*
X14117488Y-15816286D02*
X14117488Y-15675718D01*
X14208043Y-15596002D02*
X14366933Y-15596002D01*
X14366933Y-15896002D02*
X14208043Y-15896002D01*
X14457488Y-15675718D02*
X14457488Y-15816286D01*
X14112540Y-15654030D02*
G75*
G02*
X14117486Y-15675718I-45052J-21682D01*
G01*
X14112540Y-15654030D02*
G75*
G02*
X14182817Y-15589172I45051J21688D01*
G01*
X14117488Y-15816287D02*
G75*
G02*
X14112540Y-15837974I-50036J8D01*
G01*
X14182817Y-15902832D02*
G75*
G02*
X14112540Y-15837974I-25226J43170D01*
G01*
X14182817Y-15902832D02*
G75*
G02*
X14208043Y-15896002I25226J-43171D01*
G01*
X14208043Y-15596002D02*
G75*
G02*
X14182817Y-15589172I0J50001D01*
G01*
X14366933Y-15896002D02*
G75*
G02*
X14392159Y-15902832I0J-50001D01*
G01*
X14392159Y-15589172D02*
G75*
G02*
X14366933Y-15596002I-25226J43171D01*
G01*
X14392159Y-15589172D02*
G75*
G02*
X14462436Y-15654030I25226J-43170D01*
G01*
X14457488Y-15675718D02*
G75*
G02*
X14462436Y-15654030I49999J0D01*
G01*
X14462436Y-15837974D02*
G75*
G02*
X14392159Y-15902832I-45051J-21688D01*
G01*
X14462436Y-15837974D02*
G75*
G02*
X14457488Y-15816286I45051J21688D01*
G01*
X27210556Y-15816286D02*
X27210556Y-15675718D01*
X27301110Y-15596002D02*
X27460001Y-15596002D01*
X27460001Y-15896002D02*
X27301110Y-15896002D01*
X27550555Y-15675718D02*
X27550555Y-15816286D01*
X27205607Y-15654030D02*
G75*
G02*
X27210553Y-15675718I-45052J-21682D01*
G01*
X27205607Y-15654030D02*
G75*
G02*
X27275884Y-15589172I45051J21688D01*
G01*
X27210556Y-15816287D02*
G75*
G02*
X27205607Y-15837974I-50036J8D01*
G01*
X27275884Y-15902832D02*
G75*
G02*
X27205608Y-15837974I-25226J43170D01*
G01*
X27275885Y-15902832D02*
G75*
G02*
X27301110Y-15896002I25226J-43171D01*
G01*
X27301110Y-15596002D02*
G75*
G02*
X27275884Y-15589172I0J50001D01*
G01*
X27460001Y-15896002D02*
G75*
G02*
X27485227Y-15902832I0J-50001D01*
G01*
X27485227Y-15589172D02*
G75*
G02*
X27460001Y-15596002I-25226J43171D01*
G01*
X27485227Y-15589172D02*
G75*
G02*
X27555504Y-15654030I25226J-43170D01*
G01*
X27550555Y-15675718D02*
G75*
G02*
X27555504Y-15654030I49999J0D01*
G01*
X27555504Y-15837974D02*
G75*
G02*
X27485227Y-15902832I-45051J-21688D01*
G01*
X27555504Y-15837974D02*
G75*
G02*
X27550555Y-15816286I45051J21688D01*
G01*
X21023107Y-17721285D02*
X21023107Y-17580717D01*
X21113662Y-17501001D02*
X21272553Y-17501001D01*
X21272552Y-17801001D02*
X21113662Y-17801001D01*
X21363107Y-17580717D02*
X21363107Y-17721285D01*
X21018159Y-17559029D02*
G75*
G02*
X21023105Y-17580717I-45052J-21682D01*
G01*
X21018159Y-17559029D02*
G75*
G02*
X21088436Y-17494171I45051J21688D01*
G01*
X21023107Y-17721285D02*
G75*
G02*
X21018159Y-17742973I-50036J8D01*
G01*
X21088436Y-17807830D02*
G75*
G02*
X21018159Y-17742973I-25226J43170D01*
G01*
X21088436Y-17807831D02*
G75*
G02*
X21113662Y-17801001I25226J-43171D01*
G01*
X21113662Y-17501001D02*
G75*
G02*
X21088436Y-17494171I0J50001D01*
G01*
X21272552Y-17801001D02*
G75*
G02*
X21297778Y-17807831I0J-50001D01*
G01*
X21297778Y-17494171D02*
G75*
G02*
X21272553Y-17501001I-25226J43171D01*
G01*
X21297778Y-17494171D02*
G75*
G02*
X21368056Y-17559029I25226J-43170D01*
G01*
X21363107Y-17580716D02*
G75*
G02*
X21368056Y-17559029I49999J0D01*
G01*
X21368056Y-17742973D02*
G75*
G02*
X21297778Y-17807831I-45051J-21688D01*
G01*
X21368056Y-17742973D02*
G75*
G02*
X21363107Y-17721285I45051J21688D01*
G01*
X26023728Y-12006290D02*
X26023728Y-11865721D01*
X26114283Y-11786006D02*
X26273173Y-11786006D01*
X26273173Y-12086005D02*
X26114283Y-12086005D01*
X26363728Y-11865721D02*
X26363728Y-12006290D01*
X26018780Y-11844033D02*
G75*
G02*
X26023726Y-11865721I-45052J-21682D01*
G01*
X26018780Y-11844033D02*
G75*
G02*
X26089057Y-11779176I45051J21688D01*
G01*
X26023728Y-12006290D02*
G75*
G02*
X26018780Y-12027977I-50036J8D01*
G01*
X26089057Y-12092835D02*
G75*
G02*
X26018780Y-12027978I-25226J43170D01*
G01*
X26089057Y-12092835D02*
G75*
G02*
X26114283Y-12086006I25226J-43171D01*
G01*
X26114283Y-11786005D02*
G75*
G02*
X26089057Y-11779176I0J50001D01*
G01*
X26273173Y-12086005D02*
G75*
G02*
X26298399Y-12092835I0J-50001D01*
G01*
X26298399Y-11779176D02*
G75*
G02*
X26273173Y-11786006I-25226J43171D01*
G01*
X26298399Y-11779176D02*
G75*
G02*
X26368676Y-11844033I25226J-43170D01*
G01*
X26363728Y-11865721D02*
G75*
G02*
X26368676Y-11844033I49999J0D01*
G01*
X26368676Y-12027977D02*
G75*
G02*
X26298399Y-12092835I-45051J-21688D01*
G01*
X26368676Y-12027977D02*
G75*
G02*
X26363728Y-12006290I45051J21688D01*
G01*
X5540386Y-13911288D02*
X5540386Y-13770720D01*
X5630940Y-13691004D02*
X5789831Y-13691004D01*
X5789831Y-13991004D02*
X5630940Y-13991004D01*
X5880385Y-13770720D02*
X5880385Y-13911288D01*
X5535437Y-13749032D02*
G75*
G02*
X5540383Y-13770720I-45052J-21682D01*
G01*
X5535437Y-13749032D02*
G75*
G02*
X5605714Y-13684174I45051J21688D01*
G01*
X5540386Y-13911288D02*
G75*
G02*
X5535437Y-13932976I-50036J8D01*
G01*
X5605714Y-13997834D02*
G75*
G02*
X5535438Y-13932976I-25226J43170D01*
G01*
X5605715Y-13997834D02*
G75*
G02*
X5630940Y-13991004I25226J-43171D01*
G01*
X5630940Y-13691004D02*
G75*
G02*
X5605714Y-13684174I0J50001D01*
G01*
X5789831Y-13991004D02*
G75*
G02*
X5815057Y-13997834I0J-50001D01*
G01*
X5815057Y-13684174D02*
G75*
G02*
X5789831Y-13691004I-25226J43171D01*
G01*
X5815057Y-13684174D02*
G75*
G02*
X5885334Y-13749032I25226J-43170D01*
G01*
X5880385Y-13770720D02*
G75*
G02*
X5885334Y-13749032I49999J0D01*
G01*
X5885334Y-13932976D02*
G75*
G02*
X5815057Y-13997834I-45051J-21688D01*
G01*
X5885334Y-13932976D02*
G75*
G02*
X5880385Y-13911288I45051J21688D01*
G01*
X7211869Y-17721285D02*
X7211869Y-17580717D01*
X7302424Y-17501001D02*
X7461314Y-17501001D01*
X7461314Y-17801001D02*
X7302424Y-17801001D01*
X7551869Y-17580717D02*
X7551869Y-17721285D01*
X7206920Y-17559029D02*
G75*
G02*
X7211866Y-17580717I-45052J-21682D01*
G01*
X7206920Y-17559029D02*
G75*
G02*
X7277198Y-17494171I45051J21688D01*
G01*
X7211869Y-17721285D02*
G75*
G02*
X7206920Y-17742973I-50036J8D01*
G01*
X7277198Y-17807830D02*
G75*
G02*
X7206921Y-17742973I-25226J43170D01*
G01*
X7277198Y-17807831D02*
G75*
G02*
X7302424Y-17801001I25226J-43171D01*
G01*
X7302423Y-17501001D02*
G75*
G02*
X7277198Y-17494171I0J50001D01*
G01*
X7461314Y-17801001D02*
G75*
G02*
X7486540Y-17807831I0J-50001D01*
G01*
X7486540Y-17494171D02*
G75*
G02*
X7461314Y-17501001I-25226J43171D01*
G01*
X7486540Y-17494171D02*
G75*
G02*
X7556817Y-17559029I25226J-43170D01*
G01*
X7551869Y-17580716D02*
G75*
G02*
X7556817Y-17559029I49999J0D01*
G01*
X7556817Y-17742973D02*
G75*
G02*
X7486540Y-17807831I-45051J-21688D01*
G01*
X7556817Y-17742973D02*
G75*
G02*
X7551869Y-17721285I45051J21688D01*
G01*
D12*
D13*
X2023875Y-17057500D02*
X2198875Y-17232500D01*
X2198875Y-17057500D02*
X2023875Y-17232500D01*
X2262000Y-11342500D02*
X2437000Y-11517500D01*
X2437000Y-11342500D02*
X2262000Y-11517500D01*
X2500125Y-13247500D02*
X2675125Y-13422500D01*
X2675125Y-13247500D02*
X2500125Y-13422500D01*
X2976375Y-15152500D02*
X3151375Y-15327500D01*
X3151375Y-15152500D02*
X2976375Y-15327500D01*
X3039875Y-17057500D02*
X3214875Y-17232500D01*
X3214875Y-17057500D02*
X3039875Y-17232500D01*
X3278000Y-11342500D02*
X3453000Y-11517500D01*
X3453000Y-11342500D02*
X3278000Y-11517500D01*
X3516125Y-13247500D02*
X3691125Y-13422500D01*
X3691125Y-13247500D02*
X3516125Y-13422500D01*
X3992375Y-15152500D02*
X4167375Y-15327500D01*
X4167375Y-15152500D02*
X3992375Y-15327500D01*
X4405125Y-17057500D02*
X4580125Y-17232500D01*
X4580125Y-17057500D02*
X4405125Y-17232500D01*
X4643250Y-11342500D02*
X4818250Y-11517500D01*
X4818250Y-11342500D02*
X4643250Y-11517500D01*
X5119500Y-13247500D02*
X5294500Y-13422500D01*
X5294500Y-13247500D02*
X5119500Y-13422500D01*
X5421125Y-17057500D02*
X5596125Y-17232500D01*
X5596125Y-17057500D02*
X5421125Y-17232500D01*
X5659250Y-11342500D02*
X5834250Y-11517500D01*
X5834250Y-11342500D02*
X5659250Y-11517500D01*
X6072000Y-15152500D02*
X6247000Y-15327500D01*
X6247000Y-15152500D02*
X6072000Y-15327500D01*
X6135500Y-13247500D02*
X6310500Y-13422500D01*
X6310500Y-13247500D02*
X6135500Y-13422500D01*
X6548250Y-11342500D02*
X6723250Y-11517500D01*
X6723250Y-11342500D02*
X6548250Y-11517500D01*
X6786375Y-17057500D02*
X6961375Y-17232500D01*
X6961375Y-17057500D02*
X6786375Y-17232500D01*
X7024500Y-13247500D02*
X7199500Y-13422500D01*
X7199500Y-13247500D02*
X7024500Y-13422500D01*
X7088000Y-15152500D02*
X7263000Y-15327500D01*
X7263000Y-15152500D02*
X7088000Y-15327500D01*
X7564250Y-11342500D02*
X7739250Y-11517500D01*
X7739250Y-11342500D02*
X7564250Y-11517500D01*
X7802375Y-17057500D02*
X7977375Y-17232500D01*
X7977375Y-17057500D02*
X7802375Y-17232500D01*
X7977000Y-15152500D02*
X8152000Y-15327500D01*
X8152000Y-15152500D02*
X7977000Y-15327500D01*
X8040500Y-13247500D02*
X8215500Y-13422500D01*
X8215500Y-13247500D02*
X8040500Y-13422500D01*
X8453250Y-11342500D02*
X8628250Y-11517500D01*
X8628250Y-11342500D02*
X8453250Y-11517500D01*
X8929500Y-13247500D02*
X9104500Y-13422500D01*
X9104500Y-13247500D02*
X8929500Y-13422500D01*
X8993000Y-15152500D02*
X9168000Y-15327500D01*
X9168000Y-15152500D02*
X8993000Y-15327500D01*
X9469250Y-11342500D02*
X9644250Y-11517500D01*
X9644250Y-11342500D02*
X9469250Y-11517500D01*
X9882000Y-15152500D02*
X10057000Y-15327500D01*
X10057000Y-15152500D02*
X9882000Y-15327500D01*
X9945500Y-13247500D02*
X10120500Y-13422500D01*
X10120500Y-13247500D02*
X9945500Y-13422500D01*
X10358250Y-11342500D02*
X10533250Y-11517500D01*
X10533250Y-11342500D02*
X10358250Y-11517500D01*
X10834500Y-13247500D02*
X11009500Y-13422500D01*
X11009500Y-13247500D02*
X10834500Y-13422500D01*
X10834500Y-17057500D02*
X11009500Y-17232500D01*
X11009500Y-17057500D02*
X10834500Y-17232500D01*
X10898000Y-15152500D02*
X11073000Y-15327500D01*
X11073000Y-15152500D02*
X10898000Y-15327500D01*
X11374250Y-11342500D02*
X11549250Y-11517500D01*
X11549250Y-11342500D02*
X11374250Y-11517500D01*
X11787000Y-15152500D02*
X11962000Y-15327500D01*
X11962000Y-15152500D02*
X11787000Y-15327500D01*
X11850500Y-13247500D02*
X12025500Y-13422500D01*
X12025500Y-13247500D02*
X11850500Y-13422500D01*
X11850500Y-17057500D02*
X12025500Y-17232500D01*
X12025500Y-17057500D02*
X11850500Y-17232500D01*
X12263250Y-11342500D02*
X12438250Y-11517500D01*
X12438250Y-11342500D02*
X12263250Y-11517500D01*
X12739500Y-13247500D02*
X12914500Y-13422500D01*
X12914500Y-13247500D02*
X12739500Y-13422500D01*
X12803000Y-15152500D02*
X12978000Y-15327500D01*
X12978000Y-15152500D02*
X12803000Y-15327500D01*
X13279250Y-11342500D02*
X13454250Y-11517500D01*
X13454250Y-11342500D02*
X13279250Y-11517500D01*
X13692000Y-15152500D02*
X13867000Y-15327500D01*
X13867000Y-15152500D02*
X13692000Y-15327500D01*
X13755500Y-13247500D02*
X13930500Y-13422500D01*
X13930500Y-13247500D02*
X13755500Y-13422500D01*
X14168250Y-11342500D02*
X14343250Y-11517500D01*
X14343250Y-11342500D02*
X14168250Y-11517500D01*
X14644500Y-13247500D02*
X14819500Y-13422500D01*
X14819500Y-13247500D02*
X14644500Y-13422500D01*
X14708000Y-15152500D02*
X14883000Y-15327500D01*
X14883000Y-15152500D02*
X14708000Y-15327500D01*
X15184250Y-11342500D02*
X15359250Y-11517500D01*
X15359250Y-11342500D02*
X15184250Y-11517500D01*
X15597000Y-15152500D02*
X15772000Y-15327500D01*
X15772000Y-15152500D02*
X15597000Y-15327500D01*
X15660500Y-13247500D02*
X15835500Y-13422500D01*
X15835500Y-13247500D02*
X15660500Y-13422500D01*
X16073250Y-11342500D02*
X16248250Y-11517500D01*
X16248250Y-11342500D02*
X16073250Y-11517500D01*
X16549500Y-13247500D02*
X16724500Y-13422500D01*
X16724500Y-13247500D02*
X16549500Y-13422500D01*
X16549500Y-17057500D02*
X16724500Y-17232500D01*
X16724500Y-17057500D02*
X16549500Y-17232500D01*
X16613000Y-15152500D02*
X16788000Y-15327500D01*
X16788000Y-15152500D02*
X16613000Y-15327500D01*
X17089250Y-11342500D02*
X17264250Y-11517500D01*
X17264250Y-11342500D02*
X17089250Y-11517500D01*
X17502000Y-15152500D02*
X17677000Y-15327500D01*
X17677000Y-15152500D02*
X17502000Y-15327500D01*
X17565500Y-13247500D02*
X17740500Y-13422500D01*
X17740500Y-13247500D02*
X17565500Y-13422500D01*
X17565500Y-17057500D02*
X17740500Y-17232500D01*
X17740500Y-17057500D02*
X17565500Y-17232500D01*
X17978250Y-11342500D02*
X18153250Y-11517500D01*
X18153250Y-11342500D02*
X17978250Y-11517500D01*
X18454500Y-13247500D02*
X18629500Y-13422500D01*
X18629500Y-13247500D02*
X18454500Y-13422500D01*
X18518000Y-15152500D02*
X18693000Y-15327500D01*
X18693000Y-15152500D02*
X18518000Y-15327500D01*
X18994250Y-11342500D02*
X19169250Y-11517500D01*
X19169250Y-11342500D02*
X18994250Y-11517500D01*
X19407000Y-15152500D02*
X19582000Y-15327500D01*
X19582000Y-15152500D02*
X19407000Y-15327500D01*
X19470500Y-13247500D02*
X19645500Y-13422500D01*
X19645500Y-13247500D02*
X19470500Y-13422500D01*
X19883250Y-11342500D02*
X20058250Y-11517500D01*
X20058250Y-11342500D02*
X19883250Y-11517500D01*
X20359500Y-13247500D02*
X20534500Y-13422500D01*
X20534500Y-13247500D02*
X20359500Y-13422500D01*
X20423000Y-15152500D02*
X20598000Y-15327500D01*
X20598000Y-15152500D02*
X20423000Y-15327500D01*
X20597625Y-17057500D02*
X20772625Y-17232500D01*
X20772625Y-17057500D02*
X20597625Y-17232500D01*
X20899250Y-11342500D02*
X21074250Y-11517500D01*
X21074250Y-11342500D02*
X20899250Y-11517500D01*
X21312000Y-15152500D02*
X21487000Y-15327500D01*
X21487000Y-15152500D02*
X21312000Y-15327500D01*
X21375500Y-13247500D02*
X21550500Y-13422500D01*
X21550500Y-13247500D02*
X21375500Y-13422500D01*
X21613625Y-17057500D02*
X21788625Y-17232500D01*
X21788625Y-17057500D02*
X21613625Y-17232500D01*
X21788250Y-11342500D02*
X21963250Y-11517500D01*
X21963250Y-11342500D02*
X21788250Y-11517500D01*
X22264500Y-13247500D02*
X22439500Y-13422500D01*
X22439500Y-13247500D02*
X22264500Y-13422500D01*
X22328000Y-15152500D02*
X22503000Y-15327500D01*
X22503000Y-15152500D02*
X22328000Y-15327500D01*
X22804250Y-11342500D02*
X22979250Y-11517500D01*
X22979250Y-11342500D02*
X22804250Y-11517500D01*
X22975700Y-17057500D02*
X23150700Y-17232500D01*
X23150700Y-17057500D02*
X22975700Y-17232500D01*
X23217000Y-15152500D02*
X23392000Y-15327500D01*
X23392000Y-15152500D02*
X23217000Y-15327500D01*
X23280500Y-13247500D02*
X23455500Y-13422500D01*
X23455500Y-13247500D02*
X23280500Y-13422500D01*
X23693250Y-11342500D02*
X23868250Y-11517500D01*
X23868250Y-11342500D02*
X23693250Y-11517500D01*
X23991700Y-17057500D02*
X24166700Y-17232500D01*
X24166700Y-17057500D02*
X23991700Y-17232500D01*
X24169500Y-13247500D02*
X24344500Y-13422500D01*
X24344500Y-13247500D02*
X24169500Y-13422500D01*
X24233000Y-15152500D02*
X24408000Y-15327500D01*
X24408000Y-15152500D02*
X24233000Y-15327500D01*
X24709250Y-11342500D02*
X24884250Y-11517500D01*
X24884250Y-11342500D02*
X24709250Y-11517500D01*
X25185500Y-13247500D02*
X25360500Y-13422500D01*
X25360500Y-13247500D02*
X25185500Y-13422500D01*
X25360125Y-17057500D02*
X25535125Y-17232500D01*
X25535125Y-17057500D02*
X25360125Y-17232500D01*
X25598250Y-11342500D02*
X25773250Y-11517500D01*
X25773250Y-11342500D02*
X25598250Y-11517500D01*
X26376125Y-17057500D02*
X26551125Y-17232500D01*
X26551125Y-17057500D02*
X26376125Y-17232500D01*
X26614250Y-11342500D02*
X26789250Y-11517500D01*
X26789250Y-11342500D02*
X26614250Y-11517500D01*
X26786806Y-15152487D02*
X26961806Y-15327487D01*
X26961806Y-15152487D02*
X26786806Y-15327487D01*
X27265125Y-13247500D02*
X27440125Y-13422500D01*
X27440125Y-13247500D02*
X27265125Y-13422500D01*
X27802806Y-15152487D02*
X27977806Y-15327487D01*
X27977806Y-15152487D02*
X27802806Y-15327487D01*
X27979500Y-11342500D02*
X28154500Y-11517500D01*
X28154500Y-11342500D02*
X27979500Y-11517500D01*
X27979500Y-17057500D02*
X28154500Y-17232500D01*
X28154500Y-17057500D02*
X27979500Y-17232500D01*
X28281125Y-13247500D02*
X28456125Y-13422500D01*
X28456125Y-13247500D02*
X28281125Y-13422500D01*
X28995500Y-11342500D02*
X29170500Y-11517500D01*
X29170500Y-11342500D02*
X28995500Y-11517500D01*
X28995500Y-17057500D02*
X29170500Y-17232500D01*
X29170500Y-17057500D02*
X28995500Y-17232500D01*
X32265750Y-11342500D02*
X32440750Y-11517500D01*
X32440750Y-11342500D02*
X32265750Y-11517500D01*
X32265750Y-13247500D02*
X32440750Y-13422500D01*
X32440750Y-13247500D02*
X32265750Y-13422500D01*
X32265750Y-15152500D02*
X32440750Y-15327500D01*
X32440750Y-15152500D02*
X32265750Y-15327500D01*
X32265750Y-17057500D02*
X32440750Y-17232500D01*
X32440750Y-17057500D02*
X32265750Y-17232500D01*
X33281750Y-11342500D02*
X33456750Y-11517500D01*
X33456750Y-11342500D02*
X33281750Y-11517500D01*
X33281750Y-13247500D02*
X33456750Y-13422500D01*
X33456750Y-13247500D02*
X33281750Y-13422500D01*
X33281750Y-15152500D02*
X33456750Y-15327500D01*
X33456750Y-15152500D02*
X33281750Y-15327500D01*
X33281750Y-17057500D02*
X33456750Y-17232500D01*
X33456750Y-17057500D02*
X33281750Y-17232500D01*
X34170750Y-11342500D02*
X34345750Y-11517500D01*
X34345750Y-11342500D02*
X34170750Y-11517500D01*
X34170750Y-13247500D02*
X34345750Y-13422500D01*
X34345750Y-13247500D02*
X34170750Y-13422500D01*
X34170750Y-15152500D02*
X34345750Y-15327500D01*
X34345750Y-15152500D02*
X34170750Y-15327500D01*
X34170750Y-17057500D02*
X34345750Y-17232500D01*
X34345750Y-17057500D02*
X34170750Y-17232500D01*
X35186750Y-11342500D02*
X35361750Y-11517500D01*
X35361750Y-11342500D02*
X35186750Y-11517500D01*
X35186750Y-13247500D02*
X35361750Y-13422500D01*
X35361750Y-13247500D02*
X35186750Y-13422500D01*
X35186750Y-15152500D02*
X35361750Y-15327500D01*
X35361750Y-15152500D02*
X35186750Y-15327500D01*
X35186750Y-17057500D02*
X35361750Y-17232500D01*
X35361750Y-17057500D02*
X35186750Y-17232500D01*
X36075750Y-11342500D02*
X36250750Y-11517500D01*
X36250750Y-11342500D02*
X36075750Y-11517500D01*
X36075750Y-13247500D02*
X36250750Y-13422500D01*
X36250750Y-13247500D02*
X36075750Y-13422500D01*
X36075750Y-15152500D02*
X36250750Y-15327500D01*
X36250750Y-15152500D02*
X36075750Y-15327500D01*
X36075750Y-17057500D02*
X36250750Y-17232500D01*
X36250750Y-17057500D02*
X36075750Y-17232500D01*
X37091750Y-11342500D02*
X37266750Y-11517500D01*
X37266750Y-11342500D02*
X37091750Y-11517500D01*
X37091750Y-13247500D02*
X37266750Y-13422500D01*
X37266750Y-13247500D02*
X37091750Y-13422500D01*
X37091750Y-15152500D02*
X37266750Y-15327500D01*
X37266750Y-15152500D02*
X37091750Y-15327500D01*
X37091750Y-17057500D02*
X37266750Y-17232500D01*
X37266750Y-17057500D02*
X37091750Y-17232500D01*
X37980750Y-11342500D02*
X38155750Y-11517500D01*
X38155750Y-11342500D02*
X37980750Y-11517500D01*
X37980750Y-13247500D02*
X38155750Y-13422500D01*
X38155750Y-13247500D02*
X37980750Y-13422500D01*
X37980750Y-15152500D02*
X38155750Y-15327500D01*
X38155750Y-15152500D02*
X37980750Y-15327500D01*
X37980750Y-17057500D02*
X38155750Y-17232500D01*
X38155750Y-17057500D02*
X37980750Y-17232500D01*
X38996750Y-11342500D02*
X39171750Y-11517500D01*
X39171750Y-11342500D02*
X38996750Y-11517500D01*
X38996750Y-13247500D02*
X39171750Y-13422500D01*
X39171750Y-13247500D02*
X38996750Y-13422500D01*
X38996750Y-15152500D02*
X39171750Y-15327500D01*
X39171750Y-15152500D02*
X38996750Y-15327500D01*
X38996750Y-17057500D02*
X39171750Y-17232500D01*
X39171750Y-17057500D02*
X38996750Y-17232500D01*
D14*
X3920000Y-16192500D02*
G75*
G02*
X3700000Y-16192500I-110000J0D01*
G01*
X3700000Y-16192500D02*
G75*
G02*
X3920000Y-16192500I110000J0D01*
G01*
X4396250Y-12382500D02*
G75*
G02*
X4176250Y-12382500I-110000J0D01*
G01*
X4176250Y-12382500D02*
G75*
G02*
X4396250Y-12382500I110000J0D01*
G01*
X24875000Y-16192500D02*
G75*
G02*
X24655000Y-16192500I-110000J0D01*
G01*
X24655000Y-16192500D02*
G75*
G02*
X24875000Y-16192500I110000J0D01*
G01*
X25351250Y-12382500D02*
G75*
G02*
X25131250Y-12382500I-110000J0D01*
G01*
X25131250Y-12382500D02*
G75*
G02*
X25351250Y-12382500I110000J0D01*
G01*
X32018750Y-12382500D02*
G75*
G02*
X31798750Y-12382500I-110000J0D01*
G01*
X31798750Y-12382500D02*
G75*
G02*
X32018750Y-12382500I110000J0D01*
G01*
X37733718Y-12382490D02*
G75*
G02*
X37513718Y-12382490I-110000J0D01*
G01*
X37513718Y-12382490D02*
G75*
G02*
X37733718Y-12382490I110000J0D01*
G01*
X37733718Y-16192486D02*
G75*
G02*
X37513718Y-16192486I-110000J0D01*
G01*
X37513718Y-16192486D02*
G75*
G02*
X37733718Y-16192486I110000J0D01*
G01*
D15*
X2381250Y-14389100D02*
X2381250Y-14693900D01*
X2228850Y-14541500D02*
X2533650Y-14541500D01*
X4762500Y-14389100D02*
X4762500Y-14693900D01*
X4610100Y-14541500D02*
X4914900Y-14541500D01*
X9525000Y-17691100D02*
X9525000Y-17995900D01*
X9372600Y-17843500D02*
X9677400Y-17843500D01*
X13335000Y-17691100D02*
X13335000Y-17995900D01*
X13182600Y-17843500D02*
X13487400Y-17843500D01*
X15240000Y-17691100D02*
X15240000Y-17995900D01*
X15087600Y-17843500D02*
X15392400Y-17843500D01*
X19050000Y-17691100D02*
X19050000Y-17995900D01*
X18897600Y-17843500D02*
X19202400Y-17843500D01*
X26193748Y-14388108D02*
X26193748Y-14692908D01*
X26041348Y-14540508D02*
X26346148Y-14540508D01*
X26670000Y-12484100D02*
X26670000Y-12788900D01*
X26517600Y-12636500D02*
X26822400Y-12636500D01*
X28574998Y-14388108D02*
X28574998Y-14692908D01*
X28422598Y-14540508D02*
X28727398Y-14540508D01*
X29051250Y-12484100D02*
X29051250Y-12788900D01*
X28898850Y-12636500D02*
X29203650Y-12636500D01*
D16*
X2522241Y-16206491D02*
X2522241Y-15924509D01*
X2240259Y-15924509D01*
X2240259Y-16206491D01*
X2522241Y-16206491D01*
X2760366Y-17285991D02*
X2760366Y-17004009D01*
X2478384Y-17004009D01*
X2478384Y-17285991D01*
X2760366Y-17285991D01*
X2998491Y-11570991D02*
X2998491Y-11289009D01*
X2716509Y-11289009D01*
X2716509Y-11570991D01*
X2998491Y-11570991D01*
X3236616Y-13475991D02*
X3236616Y-13194009D01*
X2954634Y-13194009D01*
X2954634Y-13475991D01*
X3236616Y-13475991D01*
X3712866Y-15380991D02*
X3712866Y-15099009D01*
X3430884Y-15099009D01*
X3430884Y-15380991D01*
X3712866Y-15380991D01*
X4903491Y-16206491D02*
X4903491Y-15924509D01*
X4621509Y-15924509D01*
X4621509Y-16206491D01*
X4903491Y-16206491D01*
X5141616Y-17285991D02*
X5141616Y-17004009D01*
X4859634Y-17004009D01*
X4859634Y-17285991D01*
X5141616Y-17285991D01*
X5379741Y-11570991D02*
X5379741Y-11289009D01*
X5097759Y-11289009D01*
X5097759Y-11570991D01*
X5379741Y-11570991D01*
X5855991Y-13475991D02*
X5855991Y-13194009D01*
X5574009Y-13194009D01*
X5574009Y-13475991D01*
X5855991Y-13475991D01*
X6808491Y-15380991D02*
X6808491Y-15099009D01*
X6526509Y-15099009D01*
X6526509Y-15380991D01*
X6808491Y-15380991D01*
X7284741Y-11570991D02*
X7284741Y-11289009D01*
X7002759Y-11289009D01*
X7002759Y-11570991D01*
X7284741Y-11570991D01*
X7522866Y-17285991D02*
X7522866Y-17004009D01*
X7240884Y-17004009D01*
X7240884Y-17285991D01*
X7522866Y-17285991D01*
X7760991Y-13475991D02*
X7760991Y-13194009D01*
X7479009Y-13194009D01*
X7479009Y-13475991D01*
X7760991Y-13475991D01*
X8713491Y-15380991D02*
X8713491Y-15099009D01*
X8431509Y-15099009D01*
X8431509Y-15380991D01*
X8713491Y-15380991D01*
X9189741Y-11570991D02*
X9189741Y-11289009D01*
X8907759Y-11289009D01*
X8907759Y-11570991D01*
X9189741Y-11570991D01*
X9665991Y-13475991D02*
X9665991Y-13194009D01*
X9384009Y-13194009D01*
X9384009Y-13475991D01*
X9665991Y-13475991D01*
X9665991Y-16460491D02*
X9665991Y-16178509D01*
X9384009Y-16178509D01*
X9384009Y-16460491D01*
X9665991Y-16460491D01*
X10618491Y-15380991D02*
X10618491Y-15099009D01*
X10336509Y-15099009D01*
X10336509Y-15380991D01*
X10618491Y-15380991D01*
X11094741Y-11570991D02*
X11094741Y-11289009D01*
X10812759Y-11289009D01*
X10812759Y-11570991D01*
X11094741Y-11570991D01*
X11570991Y-13475991D02*
X11570991Y-13194009D01*
X11289009Y-13194009D01*
X11289009Y-13475991D01*
X11570991Y-13475991D01*
X11570991Y-17285991D02*
X11570991Y-17004009D01*
X11289009Y-17004009D01*
X11289009Y-17285991D01*
X11570991Y-17285991D01*
X12523491Y-15380991D02*
X12523491Y-15099009D01*
X12241509Y-15099009D01*
X12241509Y-15380991D01*
X12523491Y-15380991D01*
X12999741Y-11570991D02*
X12999741Y-11289009D01*
X12717759Y-11289009D01*
X12717759Y-11570991D01*
X12999741Y-11570991D01*
X13475991Y-13475991D02*
X13475991Y-13194009D01*
X13194009Y-13194009D01*
X13194009Y-13475991D01*
X13475991Y-13475991D01*
X13475991Y-16460491D02*
X13475991Y-16178509D01*
X13194009Y-16178509D01*
X13194009Y-16460491D01*
X13475991Y-16460491D01*
X14428491Y-15380991D02*
X14428491Y-15099009D01*
X14146509Y-15099009D01*
X14146509Y-15380991D01*
X14428491Y-15380991D01*
X14904741Y-11570991D02*
X14904741Y-11289009D01*
X14622759Y-11289009D01*
X14622759Y-11570991D01*
X14904741Y-11570991D01*
X15380991Y-13475991D02*
X15380991Y-13194009D01*
X15099009Y-13194009D01*
X15099009Y-13475991D01*
X15380991Y-13475991D01*
X15380991Y-16460491D02*
X15380991Y-16178509D01*
X15099009Y-16178509D01*
X15099009Y-16460491D01*
X15380991Y-16460491D01*
X16333491Y-15380991D02*
X16333491Y-15099009D01*
X16051509Y-15099009D01*
X16051509Y-15380991D01*
X16333491Y-15380991D01*
X16809741Y-11570991D02*
X16809741Y-11289009D01*
X16527759Y-11289009D01*
X16527759Y-11570991D01*
X16809741Y-11570991D01*
X17285991Y-13475991D02*
X17285991Y-13194009D01*
X17004009Y-13194009D01*
X17004009Y-13475991D01*
X17285991Y-13475991D01*
X17285991Y-17285991D02*
X17285991Y-17004009D01*
X17004009Y-17004009D01*
X17004009Y-17285991D01*
X17285991Y-17285991D01*
X18238491Y-15380991D02*
X18238491Y-15099009D01*
X17956509Y-15099009D01*
X17956509Y-15380991D01*
X18238491Y-15380991D01*
X18714741Y-11570991D02*
X18714741Y-11289009D01*
X18432759Y-11289009D01*
X18432759Y-11570991D01*
X18714741Y-11570991D01*
X19190991Y-13475991D02*
X19190991Y-13194009D01*
X18909009Y-13194009D01*
X18909009Y-13475991D01*
X19190991Y-13475991D01*
X19190991Y-16460491D02*
X19190991Y-16178509D01*
X18909009Y-16178509D01*
X18909009Y-16460491D01*
X19190991Y-16460491D01*
X20143491Y-15380991D02*
X20143491Y-15099009D01*
X19861509Y-15099009D01*
X19861509Y-15380991D01*
X20143491Y-15380991D01*
X20619741Y-11570991D02*
X20619741Y-11289009D01*
X20337759Y-11289009D01*
X20337759Y-11570991D01*
X20619741Y-11570991D01*
X21095991Y-13475991D02*
X21095991Y-13194009D01*
X20814009Y-13194009D01*
X20814009Y-13475991D01*
X21095991Y-13475991D01*
X21334116Y-17285991D02*
X21334116Y-17004009D01*
X21052134Y-17004009D01*
X21052134Y-17285991D01*
X21334116Y-17285991D01*
X22048491Y-15380991D02*
X22048491Y-15099009D01*
X21766509Y-15099009D01*
X21766509Y-15380991D01*
X22048491Y-15380991D01*
X22524741Y-11570991D02*
X22524741Y-11289009D01*
X22242759Y-11289009D01*
X22242759Y-11570991D01*
X22524741Y-11570991D01*
X23000991Y-13475991D02*
X23000991Y-13194009D01*
X22719009Y-13194009D01*
X22719009Y-13475991D01*
X23000991Y-13475991D01*
X23712191Y-17285991D02*
X23712191Y-17004009D01*
X23430209Y-17004009D01*
X23430209Y-17285991D01*
X23712191Y-17285991D01*
X23953491Y-15380991D02*
X23953491Y-15099009D01*
X23671509Y-15099009D01*
X23671509Y-15380991D01*
X23953491Y-15380991D01*
X24429741Y-11570991D02*
X24429741Y-11289009D01*
X24147759Y-11289009D01*
X24147759Y-11570991D01*
X24429741Y-11570991D01*
X24905991Y-13475991D02*
X24905991Y-13194009D01*
X24624009Y-13194009D01*
X24624009Y-13475991D01*
X24905991Y-13475991D01*
X26096616Y-17285991D02*
X26096616Y-17004009D01*
X25814634Y-17004009D01*
X25814634Y-17285991D01*
X26096616Y-17285991D01*
X26334739Y-16205500D02*
X26334739Y-15923517D01*
X26052757Y-15923517D01*
X26052757Y-16205500D01*
X26334739Y-16205500D01*
X26334741Y-11570991D02*
X26334741Y-11289009D01*
X26052759Y-11289009D01*
X26052759Y-11570991D01*
X26334741Y-11570991D01*
X26810991Y-14301491D02*
X26810991Y-14019509D01*
X26529009Y-14019509D01*
X26529009Y-14301491D01*
X26810991Y-14301491D01*
X27523297Y-15380979D02*
X27523297Y-15098996D01*
X27241314Y-15098996D01*
X27241314Y-15380979D01*
X27523297Y-15380979D01*
X28001616Y-13475991D02*
X28001616Y-13194009D01*
X27719634Y-13194009D01*
X27719634Y-13475991D01*
X28001616Y-13475991D01*
X28715989Y-16205500D02*
X28715989Y-15923517D01*
X28434007Y-15923517D01*
X28434007Y-16205500D01*
X28715989Y-16205500D01*
X28715991Y-11570991D02*
X28715991Y-11289009D01*
X28434009Y-11289009D01*
X28434009Y-11570991D01*
X28715991Y-11570991D01*
X28715991Y-17285991D02*
X28715991Y-17004009D01*
X28434009Y-17004009D01*
X28434009Y-17285991D01*
X28715991Y-17285991D01*
X29192241Y-14301491D02*
X29192241Y-14019509D01*
X28910259Y-14019509D01*
X28910259Y-14301491D01*
X29192241Y-14301491D01*
X33002241Y-11570991D02*
X33002241Y-11289009D01*
X32720259Y-11289009D01*
X32720259Y-11570991D01*
X33002241Y-11570991D01*
X33002241Y-13475991D02*
X33002241Y-13194009D01*
X32720259Y-13194009D01*
X32720259Y-13475991D01*
X33002241Y-13475991D01*
X33002241Y-15380991D02*
X33002241Y-15099009D01*
X32720259Y-15099009D01*
X32720259Y-15380991D01*
X33002241Y-15380991D01*
X33002241Y-17285991D02*
X33002241Y-17004009D01*
X32720259Y-17004009D01*
X32720259Y-17285991D01*
X33002241Y-17285991D01*
X34907241Y-11570991D02*
X34907241Y-11289009D01*
X34625259Y-11289009D01*
X34625259Y-11570991D01*
X34907241Y-11570991D01*
X34907241Y-13475991D02*
X34907241Y-13194009D01*
X34625259Y-13194009D01*
X34625259Y-13475991D01*
X34907241Y-13475991D01*
X34907241Y-15380991D02*
X34907241Y-15099009D01*
X34625259Y-15099009D01*
X34625259Y-15380991D01*
X34907241Y-15380991D01*
X34907241Y-17285991D02*
X34907241Y-17004009D01*
X34625259Y-17004009D01*
X34625259Y-17285991D01*
X34907241Y-17285991D01*
X36812241Y-11570991D02*
X36812241Y-11289009D01*
X36530259Y-11289009D01*
X36530259Y-11570991D01*
X36812241Y-11570991D01*
X36812241Y-13475991D02*
X36812241Y-13194009D01*
X36530259Y-13194009D01*
X36530259Y-13475991D01*
X36812241Y-13475991D01*
X36812241Y-15380991D02*
X36812241Y-15099009D01*
X36530259Y-15099009D01*
X36530259Y-15380991D01*
X36812241Y-15380991D01*
X36812241Y-17285991D02*
X36812241Y-17004009D01*
X36530259Y-17004009D01*
X36530259Y-17285991D01*
X36812241Y-17285991D01*
X38717241Y-11570991D02*
X38717241Y-11289009D01*
X38435259Y-11289009D01*
X38435259Y-11570991D01*
X38717241Y-11570991D01*
X38717241Y-13475991D02*
X38717241Y-13194009D01*
X38435259Y-13194009D01*
X38435259Y-13475991D01*
X38717241Y-13475991D01*
X38717241Y-15380991D02*
X38717241Y-15099009D01*
X38435259Y-15099009D01*
X38435259Y-15380991D01*
X38717241Y-15380991D01*
X38717241Y-17285991D02*
X38717241Y-17004009D01*
X38435259Y-17004009D01*
X38435259Y-17285991D01*
X38717241Y-17285991D01*
D12*
X1736994Y-18361475D02*
X1736994Y-18161475D01*
X1736994Y-18161475D02*
X1784613Y-18161475D01*
X1784613Y-18161475D02*
X1813184Y-18170999D01*
X1813184Y-18170999D02*
X1832232Y-18190046D01*
X1832232Y-18190046D02*
X1841755Y-18209094D01*
X1841755Y-18209094D02*
X1851279Y-18247189D01*
X1851279Y-18247189D02*
X1851279Y-18275761D01*
X1851279Y-18275761D02*
X1841755Y-18313856D01*
X1841755Y-18313856D02*
X1832232Y-18332904D01*
X1832232Y-18332904D02*
X1813184Y-18351951D01*
X1813184Y-18351951D02*
X1784613Y-18361475D01*
X1784613Y-18361475D02*
X1736994Y-18361475D01*
X1936994Y-18361475D02*
X1936994Y-18228142D01*
X1936994Y-18266237D02*
X1946517Y-18247189D01*
X1946517Y-18247189D02*
X1956041Y-18237665D01*
X1956041Y-18237665D02*
X1975089Y-18228142D01*
X1975089Y-18228142D02*
X1994136Y-18228142D01*
X2060803Y-18361475D02*
X2060803Y-18228142D01*
X2060803Y-18161475D02*
X2051279Y-18170999D01*
X2051279Y-18170999D02*
X2060803Y-18180523D01*
X2060803Y-18180523D02*
X2070327Y-18170999D01*
X2070327Y-18170999D02*
X2060803Y-18161475D01*
X2060803Y-18161475D02*
X2060803Y-18180523D01*
X2184613Y-18361475D02*
X2165565Y-18351951D01*
X2165565Y-18351951D02*
X2156041Y-18332904D01*
X2156041Y-18332904D02*
X2156041Y-18161475D01*
X2289375Y-18361475D02*
X2270327Y-18351951D01*
X2270327Y-18351951D02*
X2260803Y-18332904D01*
X2260803Y-18332904D02*
X2260803Y-18161475D01*
X2517946Y-18361475D02*
X2517946Y-18161475D01*
X2517946Y-18161475D02*
X2584613Y-18304332D01*
X2584613Y-18304332D02*
X2651279Y-18161475D01*
X2651279Y-18161475D02*
X2651279Y-18361475D01*
X2832232Y-18361475D02*
X2832232Y-18256713D01*
X2832232Y-18256713D02*
X2822708Y-18237665D01*
X2822708Y-18237665D02*
X2803660Y-18228142D01*
X2803660Y-18228142D02*
X2765565Y-18228142D01*
X2765565Y-18228142D02*
X2746517Y-18237665D01*
X2832232Y-18351951D02*
X2813184Y-18361475D01*
X2813184Y-18361475D02*
X2765565Y-18361475D01*
X2765565Y-18361475D02*
X2746517Y-18351951D01*
X2746517Y-18351951D02*
X2736994Y-18332904D01*
X2736994Y-18332904D02*
X2736994Y-18313856D01*
X2736994Y-18313856D02*
X2746517Y-18294808D01*
X2746517Y-18294808D02*
X2765565Y-18285285D01*
X2765565Y-18285285D02*
X2813184Y-18285285D01*
X2813184Y-18285285D02*
X2832232Y-18275761D01*
X2927470Y-18228142D02*
X2927470Y-18428142D01*
X2927470Y-18237665D02*
X2946517Y-18228142D01*
X2946517Y-18228142D02*
X2984613Y-18228142D01*
X2984613Y-18228142D02*
X3003660Y-18237665D01*
X3003660Y-18237665D02*
X3013184Y-18247189D01*
X3013184Y-18247189D02*
X3022708Y-18266237D01*
X3022708Y-18266237D02*
X3022708Y-18323380D01*
X3022708Y-18323380D02*
X3013184Y-18342427D01*
X3013184Y-18342427D02*
X3003660Y-18351951D01*
X3003660Y-18351951D02*
X2984613Y-18361475D01*
X2984613Y-18361475D02*
X2946517Y-18361475D01*
X2946517Y-18361475D02*
X2927470Y-18351951D01*
X3108422Y-18342427D02*
X3117946Y-18351951D01*
X3117946Y-18351951D02*
X3108422Y-18361475D01*
X3108422Y-18361475D02*
X3098898Y-18351951D01*
X3098898Y-18351951D02*
X3108422Y-18342427D01*
X3108422Y-18342427D02*
X3108422Y-18361475D01*
X3108422Y-18237665D02*
X3117946Y-18247189D01*
X3117946Y-18247189D02*
X3108422Y-18256713D01*
X3108422Y-18256713D02*
X3098898Y-18247189D01*
X3098898Y-18247189D02*
X3108422Y-18237665D01*
X3108422Y-18237665D02*
X3108422Y-18256713D01*
D13*
X1301217Y-18602491D02*
X1476217Y-18777491D01*
X1476217Y-18602491D02*
X1301217Y-18777491D01*
D12*
X1841755Y-18781475D02*
X1727470Y-18781475D01*
X1784613Y-18781475D02*
X1784613Y-18581475D01*
X1784613Y-18581475D02*
X1765565Y-18610046D01*
X1765565Y-18610046D02*
X1746517Y-18629094D01*
X1746517Y-18629094D02*
X1727470Y-18638618D01*
X1927470Y-18762427D02*
X1936994Y-18771951D01*
X1936994Y-18771951D02*
X1927470Y-18781475D01*
X1927470Y-18781475D02*
X1917946Y-18771951D01*
X1917946Y-18771951D02*
X1927470Y-18762427D01*
X1927470Y-18762427D02*
X1927470Y-18781475D01*
X2003660Y-18581475D02*
X2136994Y-18581475D01*
X2136994Y-18581475D02*
X2051279Y-18781475D01*
X2308422Y-18581475D02*
X2213184Y-18581475D01*
X2213184Y-18581475D02*
X2203660Y-18676713D01*
X2203660Y-18676713D02*
X2213184Y-18667189D01*
X2213184Y-18667189D02*
X2232232Y-18657665D01*
X2232232Y-18657665D02*
X2279851Y-18657665D01*
X2279851Y-18657665D02*
X2298898Y-18667189D01*
X2298898Y-18667189D02*
X2308422Y-18676713D01*
X2308422Y-18676713D02*
X2317946Y-18695761D01*
X2317946Y-18695761D02*
X2317946Y-18743380D01*
X2317946Y-18743380D02*
X2308422Y-18762427D01*
X2308422Y-18762427D02*
X2298898Y-18771951D01*
X2298898Y-18771951D02*
X2279851Y-18781475D01*
X2279851Y-18781475D02*
X2232232Y-18781475D01*
X2232232Y-18781475D02*
X2213184Y-18771951D01*
X2213184Y-18771951D02*
X2203660Y-18762427D01*
X2441756Y-18581475D02*
X2460803Y-18581475D01*
X2460803Y-18581475D02*
X2479851Y-18590999D01*
X2479851Y-18590999D02*
X2489375Y-18600523D01*
X2489375Y-18600523D02*
X2498898Y-18619570D01*
X2498898Y-18619570D02*
X2508422Y-18657665D01*
X2508422Y-18657665D02*
X2508422Y-18705285D01*
X2508422Y-18705285D02*
X2498898Y-18743380D01*
X2498898Y-18743380D02*
X2489375Y-18762427D01*
X2489375Y-18762427D02*
X2479851Y-18771951D01*
X2479851Y-18771951D02*
X2460803Y-18781475D01*
X2460803Y-18781475D02*
X2441756Y-18781475D01*
X2441756Y-18781475D02*
X2422708Y-18771951D01*
X2422708Y-18771951D02*
X2413184Y-18762427D01*
X2413184Y-18762427D02*
X2403660Y-18743380D01*
X2403660Y-18743380D02*
X2394137Y-18705285D01*
X2394137Y-18705285D02*
X2394137Y-18657665D01*
X2394137Y-18657665D02*
X2403660Y-18619570D01*
X2403660Y-18619570D02*
X2413184Y-18600523D01*
X2413184Y-18600523D02*
X2422708Y-18590999D01*
X2422708Y-18590999D02*
X2441756Y-18581475D01*
X2594137Y-18781475D02*
X2594137Y-18648142D01*
X2594137Y-18667189D02*
X2603660Y-18657665D01*
X2603660Y-18657665D02*
X2622708Y-18648142D01*
X2622708Y-18648142D02*
X2651279Y-18648142D01*
X2651279Y-18648142D02*
X2670327Y-18657665D01*
X2670327Y-18657665D02*
X2679851Y-18676713D01*
X2679851Y-18676713D02*
X2679851Y-18781475D01*
X2679851Y-18676713D02*
X2689375Y-18657665D01*
X2689375Y-18657665D02*
X2708422Y-18648142D01*
X2708422Y-18648142D02*
X2736994Y-18648142D01*
X2736994Y-18648142D02*
X2756041Y-18657665D01*
X2756041Y-18657665D02*
X2765565Y-18676713D01*
X2765565Y-18676713D02*
X2765565Y-18781475D01*
X2860803Y-18781475D02*
X2860803Y-18648142D01*
X2860803Y-18667189D02*
X2870327Y-18657665D01*
X2870327Y-18657665D02*
X2889375Y-18648142D01*
X2889375Y-18648142D02*
X2917946Y-18648142D01*
X2917946Y-18648142D02*
X2936994Y-18657665D01*
X2936994Y-18657665D02*
X2946517Y-18676713D01*
X2946517Y-18676713D02*
X2946517Y-18781475D01*
X2946517Y-18676713D02*
X2956041Y-18657665D01*
X2956041Y-18657665D02*
X2975089Y-18648142D01*
X2975089Y-18648142D02*
X3003660Y-18648142D01*
X3003660Y-18648142D02*
X3022708Y-18657665D01*
X3022708Y-18657665D02*
X3032232Y-18676713D01*
X3032232Y-18676713D02*
X3032232Y-18781475D01*
X3422708Y-18571951D02*
X3251279Y-18829094D01*
X3679851Y-18581475D02*
X3698899Y-18581475D01*
X3698899Y-18581475D02*
X3717946Y-18590999D01*
X3717946Y-18590999D02*
X3727470Y-18600523D01*
X3727470Y-18600523D02*
X3736994Y-18619570D01*
X3736994Y-18619570D02*
X3746518Y-18657665D01*
X3746518Y-18657665D02*
X3746518Y-18705285D01*
X3746518Y-18705285D02*
X3736994Y-18743380D01*
X3736994Y-18743380D02*
X3727470Y-18762427D01*
X3727470Y-18762427D02*
X3717946Y-18771951D01*
X3717946Y-18771951D02*
X3698899Y-18781475D01*
X3698899Y-18781475D02*
X3679851Y-18781475D01*
X3679851Y-18781475D02*
X3660803Y-18771951D01*
X3660803Y-18771951D02*
X3651279Y-18762427D01*
X3651279Y-18762427D02*
X3641756Y-18743380D01*
X3641756Y-18743380D02*
X3632232Y-18705285D01*
X3632232Y-18705285D02*
X3632232Y-18657665D01*
X3632232Y-18657665D02*
X3641756Y-18619570D01*
X3641756Y-18619570D02*
X3651279Y-18600523D01*
X3651279Y-18600523D02*
X3660803Y-18590999D01*
X3660803Y-18590999D02*
X3679851Y-18581475D01*
X3832232Y-18762427D02*
X3841756Y-18771951D01*
X3841756Y-18771951D02*
X3832232Y-18781475D01*
X3832232Y-18781475D02*
X3822708Y-18771951D01*
X3822708Y-18771951D02*
X3832232Y-18762427D01*
X3832232Y-18762427D02*
X3832232Y-18781475D01*
X3965565Y-18581475D02*
X3984613Y-18581475D01*
X3984613Y-18581475D02*
X4003660Y-18590999D01*
X4003660Y-18590999D02*
X4013184Y-18600523D01*
X4013184Y-18600523D02*
X4022708Y-18619570D01*
X4022708Y-18619570D02*
X4032232Y-18657665D01*
X4032232Y-18657665D02*
X4032232Y-18705285D01*
X4032232Y-18705285D02*
X4022708Y-18743380D01*
X4022708Y-18743380D02*
X4013184Y-18762427D01*
X4013184Y-18762427D02*
X4003660Y-18771951D01*
X4003660Y-18771951D02*
X3984613Y-18781475D01*
X3984613Y-18781475D02*
X3965565Y-18781475D01*
X3965565Y-18781475D02*
X3946518Y-18771951D01*
X3946518Y-18771951D02*
X3936994Y-18762427D01*
X3936994Y-18762427D02*
X3927470Y-18743380D01*
X3927470Y-18743380D02*
X3917946Y-18705285D01*
X3917946Y-18705285D02*
X3917946Y-18657665D01*
X3917946Y-18657665D02*
X3927470Y-18619570D01*
X3927470Y-18619570D02*
X3936994Y-18600523D01*
X3936994Y-18600523D02*
X3946518Y-18590999D01*
X3946518Y-18590999D02*
X3965565Y-18581475D01*
X4203661Y-18581475D02*
X4165565Y-18581475D01*
X4165565Y-18581475D02*
X4146518Y-18590999D01*
X4146518Y-18590999D02*
X4136994Y-18600523D01*
X4136994Y-18600523D02*
X4117946Y-18629094D01*
X4117946Y-18629094D02*
X4108422Y-18667189D01*
X4108422Y-18667189D02*
X4108422Y-18743380D01*
X4108422Y-18743380D02*
X4117946Y-18762427D01*
X4117946Y-18762427D02*
X4127470Y-18771951D01*
X4127470Y-18771951D02*
X4146518Y-18781475D01*
X4146518Y-18781475D02*
X4184613Y-18781475D01*
X4184613Y-18781475D02*
X4203661Y-18771951D01*
X4203661Y-18771951D02*
X4213184Y-18762427D01*
X4213184Y-18762427D02*
X4222708Y-18743380D01*
X4222708Y-18743380D02*
X4222708Y-18695761D01*
X4222708Y-18695761D02*
X4213184Y-18676713D01*
X4213184Y-18676713D02*
X4203661Y-18667189D01*
X4203661Y-18667189D02*
X4184613Y-18657665D01*
X4184613Y-18657665D02*
X4146518Y-18657665D01*
X4146518Y-18657665D02*
X4127470Y-18667189D01*
X4127470Y-18667189D02*
X4117946Y-18676713D01*
X4117946Y-18676713D02*
X4108422Y-18695761D01*
X4336994Y-18667189D02*
X4317946Y-18657665D01*
X4317946Y-18657665D02*
X4308422Y-18648142D01*
X4308422Y-18648142D02*
X4298899Y-18629094D01*
X4298899Y-18629094D02*
X4298899Y-18619570D01*
X4298899Y-18619570D02*
X4308422Y-18600523D01*
X4308422Y-18600523D02*
X4317946Y-18590999D01*
X4317946Y-18590999D02*
X4336994Y-18581475D01*
X4336994Y-18581475D02*
X4375089Y-18581475D01*
X4375089Y-18581475D02*
X4394137Y-18590999D01*
X4394137Y-18590999D02*
X4403661Y-18600523D01*
X4403661Y-18600523D02*
X4413184Y-18619570D01*
X4413184Y-18619570D02*
X4413184Y-18629094D01*
X4413184Y-18629094D02*
X4403661Y-18648142D01*
X4403661Y-18648142D02*
X4394137Y-18657665D01*
X4394137Y-18657665D02*
X4375089Y-18667189D01*
X4375089Y-18667189D02*
X4336994Y-18667189D01*
X4336994Y-18667189D02*
X4317946Y-18676713D01*
X4317946Y-18676713D02*
X4308422Y-18686237D01*
X4308422Y-18686237D02*
X4298899Y-18705285D01*
X4298899Y-18705285D02*
X4298899Y-18743380D01*
X4298899Y-18743380D02*
X4308422Y-18762427D01*
X4308422Y-18762427D02*
X4317946Y-18771951D01*
X4317946Y-18771951D02*
X4336994Y-18781475D01*
X4336994Y-18781475D02*
X4375089Y-18781475D01*
X4375089Y-18781475D02*
X4394137Y-18771951D01*
X4394137Y-18771951D02*
X4403661Y-18762427D01*
X4403661Y-18762427D02*
X4413184Y-18743380D01*
X4413184Y-18743380D02*
X4413184Y-18705285D01*
X4413184Y-18705285D02*
X4403661Y-18686237D01*
X4403661Y-18686237D02*
X4394137Y-18676713D01*
X4394137Y-18676713D02*
X4375089Y-18667189D01*
X4508422Y-18781475D02*
X4546518Y-18781475D01*
X4546518Y-18781475D02*
X4565565Y-18771951D01*
X4565565Y-18771951D02*
X4575089Y-18762427D01*
X4575089Y-18762427D02*
X4594137Y-18733856D01*
X4594137Y-18733856D02*
X4603661Y-18695761D01*
X4603661Y-18695761D02*
X4603661Y-18619570D01*
X4603661Y-18619570D02*
X4594137Y-18600523D01*
X4594137Y-18600523D02*
X4584613Y-18590999D01*
X4584613Y-18590999D02*
X4565565Y-18581475D01*
X4565565Y-18581475D02*
X4527470Y-18581475D01*
X4527470Y-18581475D02*
X4508422Y-18590999D01*
X4508422Y-18590999D02*
X4498899Y-18600523D01*
X4498899Y-18600523D02*
X4489375Y-18619570D01*
X4489375Y-18619570D02*
X4489375Y-18667189D01*
X4489375Y-18667189D02*
X4498899Y-18686237D01*
X4498899Y-18686237D02*
X4508422Y-18695761D01*
X4508422Y-18695761D02*
X4527470Y-18705285D01*
X4527470Y-18705285D02*
X4565565Y-18705285D01*
X4565565Y-18705285D02*
X4584613Y-18695761D01*
X4584613Y-18695761D02*
X4594137Y-18686237D01*
X4594137Y-18686237D02*
X4603661Y-18667189D01*
X4679851Y-18581475D02*
X4679851Y-18619570D01*
X4756042Y-18581475D02*
X4756042Y-18619570D01*
X5051280Y-18857665D02*
X5041756Y-18848142D01*
X5041756Y-18848142D02*
X5022708Y-18819570D01*
X5022708Y-18819570D02*
X5013184Y-18800523D01*
X5013184Y-18800523D02*
X5003661Y-18771951D01*
X5003661Y-18771951D02*
X4994137Y-18724332D01*
X4994137Y-18724332D02*
X4994137Y-18686237D01*
X4994137Y-18686237D02*
X5003661Y-18638618D01*
X5003661Y-18638618D02*
X5013184Y-18610046D01*
X5013184Y-18610046D02*
X5022708Y-18590999D01*
X5022708Y-18590999D02*
X5041756Y-18562427D01*
X5041756Y-18562427D02*
X5051280Y-18552904D01*
X5232232Y-18781475D02*
X5117946Y-18781475D01*
X5175089Y-18781475D02*
X5175089Y-18581475D01*
X5175089Y-18581475D02*
X5156042Y-18610046D01*
X5156042Y-18610046D02*
X5136994Y-18629094D01*
X5136994Y-18629094D02*
X5117946Y-18638618D01*
X5308423Y-18600523D02*
X5317946Y-18590999D01*
X5317946Y-18590999D02*
X5336994Y-18581475D01*
X5336994Y-18581475D02*
X5384613Y-18581475D01*
X5384613Y-18581475D02*
X5403661Y-18590999D01*
X5403661Y-18590999D02*
X5413184Y-18600523D01*
X5413184Y-18600523D02*
X5422708Y-18619570D01*
X5422708Y-18619570D02*
X5422708Y-18638618D01*
X5422708Y-18638618D02*
X5413184Y-18667189D01*
X5413184Y-18667189D02*
X5298899Y-18781475D01*
X5298899Y-18781475D02*
X5422708Y-18781475D01*
X5536994Y-18667189D02*
X5517946Y-18657665D01*
X5517946Y-18657665D02*
X5508423Y-18648142D01*
X5508423Y-18648142D02*
X5498899Y-18629094D01*
X5498899Y-18629094D02*
X5498899Y-18619570D01*
X5498899Y-18619570D02*
X5508423Y-18600523D01*
X5508423Y-18600523D02*
X5517946Y-18590999D01*
X5517946Y-18590999D02*
X5536994Y-18581475D01*
X5536994Y-18581475D02*
X5575089Y-18581475D01*
X5575089Y-18581475D02*
X5594137Y-18590999D01*
X5594137Y-18590999D02*
X5603661Y-18600523D01*
X5603661Y-18600523D02*
X5613184Y-18619570D01*
X5613184Y-18619570D02*
X5613184Y-18629094D01*
X5613184Y-18629094D02*
X5603661Y-18648142D01*
X5603661Y-18648142D02*
X5594137Y-18657665D01*
X5594137Y-18657665D02*
X5575089Y-18667189D01*
X5575089Y-18667189D02*
X5536994Y-18667189D01*
X5536994Y-18667189D02*
X5517946Y-18676713D01*
X5517946Y-18676713D02*
X5508423Y-18686237D01*
X5508423Y-18686237D02*
X5498899Y-18705285D01*
X5498899Y-18705285D02*
X5498899Y-18743380D01*
X5498899Y-18743380D02*
X5508423Y-18762427D01*
X5508423Y-18762427D02*
X5517946Y-18771951D01*
X5517946Y-18771951D02*
X5536994Y-18781475D01*
X5536994Y-18781475D02*
X5575089Y-18781475D01*
X5575089Y-18781475D02*
X5594137Y-18771951D01*
X5594137Y-18771951D02*
X5603661Y-18762427D01*
X5603661Y-18762427D02*
X5613184Y-18743380D01*
X5613184Y-18743380D02*
X5613184Y-18705285D01*
X5613184Y-18705285D02*
X5603661Y-18686237D01*
X5603661Y-18686237D02*
X5594137Y-18676713D01*
X5594137Y-18676713D02*
X5575089Y-18667189D01*
X5851280Y-18781475D02*
X5851280Y-18581475D01*
X5936994Y-18781475D02*
X5936994Y-18676713D01*
X5936994Y-18676713D02*
X5927470Y-18657665D01*
X5927470Y-18657665D02*
X5908423Y-18648142D01*
X5908423Y-18648142D02*
X5879851Y-18648142D01*
X5879851Y-18648142D02*
X5860803Y-18657665D01*
X5860803Y-18657665D02*
X5851280Y-18667189D01*
X6060803Y-18781475D02*
X6041756Y-18771951D01*
X6041756Y-18771951D02*
X6032232Y-18762427D01*
X6032232Y-18762427D02*
X6022708Y-18743380D01*
X6022708Y-18743380D02*
X6022708Y-18686237D01*
X6022708Y-18686237D02*
X6032232Y-18667189D01*
X6032232Y-18667189D02*
X6041756Y-18657665D01*
X6041756Y-18657665D02*
X6060803Y-18648142D01*
X6060803Y-18648142D02*
X6089375Y-18648142D01*
X6089375Y-18648142D02*
X6108423Y-18657665D01*
X6108423Y-18657665D02*
X6117946Y-18667189D01*
X6117946Y-18667189D02*
X6127470Y-18686237D01*
X6127470Y-18686237D02*
X6127470Y-18743380D01*
X6127470Y-18743380D02*
X6117946Y-18762427D01*
X6117946Y-18762427D02*
X6108423Y-18771951D01*
X6108423Y-18771951D02*
X6089375Y-18781475D01*
X6089375Y-18781475D02*
X6060803Y-18781475D01*
X6241756Y-18781475D02*
X6222708Y-18771951D01*
X6222708Y-18771951D02*
X6213184Y-18752904D01*
X6213184Y-18752904D02*
X6213184Y-18581475D01*
X6394137Y-18771951D02*
X6375089Y-18781475D01*
X6375089Y-18781475D02*
X6336994Y-18781475D01*
X6336994Y-18781475D02*
X6317946Y-18771951D01*
X6317946Y-18771951D02*
X6308423Y-18752904D01*
X6308423Y-18752904D02*
X6308423Y-18676713D01*
X6308423Y-18676713D02*
X6317946Y-18657665D01*
X6317946Y-18657665D02*
X6336994Y-18648142D01*
X6336994Y-18648142D02*
X6375089Y-18648142D01*
X6375089Y-18648142D02*
X6394137Y-18657665D01*
X6394137Y-18657665D02*
X6403661Y-18676713D01*
X6403661Y-18676713D02*
X6403661Y-18695761D01*
X6403661Y-18695761D02*
X6308423Y-18714808D01*
X6479851Y-18771951D02*
X6498899Y-18781475D01*
X6498899Y-18781475D02*
X6536994Y-18781475D01*
X6536994Y-18781475D02*
X6556042Y-18771951D01*
X6556042Y-18771951D02*
X6565565Y-18752904D01*
X6565565Y-18752904D02*
X6565565Y-18743380D01*
X6565565Y-18743380D02*
X6556042Y-18724332D01*
X6556042Y-18724332D02*
X6536994Y-18714808D01*
X6536994Y-18714808D02*
X6508423Y-18714808D01*
X6508423Y-18714808D02*
X6489375Y-18705285D01*
X6489375Y-18705285D02*
X6479851Y-18686237D01*
X6479851Y-18686237D02*
X6479851Y-18676713D01*
X6479851Y-18676713D02*
X6489375Y-18657665D01*
X6489375Y-18657665D02*
X6508423Y-18648142D01*
X6508423Y-18648142D02*
X6536994Y-18648142D01*
X6536994Y-18648142D02*
X6556042Y-18657665D01*
X6632232Y-18857665D02*
X6641756Y-18848142D01*
X6641756Y-18848142D02*
X6660804Y-18819570D01*
X6660804Y-18819570D02*
X6670327Y-18800523D01*
X6670327Y-18800523D02*
X6679851Y-18771951D01*
X6679851Y-18771951D02*
X6689375Y-18724332D01*
X6689375Y-18724332D02*
X6689375Y-18686237D01*
X6689375Y-18686237D02*
X6679851Y-18638618D01*
X6679851Y-18638618D02*
X6670327Y-18610046D01*
X6670327Y-18610046D02*
X6660804Y-18590999D01*
X6660804Y-18590999D02*
X6641756Y-18562427D01*
X6641756Y-18562427D02*
X6632232Y-18552904D01*
X6994137Y-18857665D02*
X6984613Y-18848142D01*
X6984613Y-18848142D02*
X6965565Y-18819570D01*
X6965565Y-18819570D02*
X6956042Y-18800523D01*
X6956042Y-18800523D02*
X6946518Y-18771951D01*
X6946518Y-18771951D02*
X6936994Y-18724332D01*
X6936994Y-18724332D02*
X6936994Y-18686237D01*
X6936994Y-18686237D02*
X6946518Y-18638618D01*
X6946518Y-18638618D02*
X6956042Y-18610046D01*
X6956042Y-18610046D02*
X6965565Y-18590999D01*
X6965565Y-18590999D02*
X6984613Y-18562427D01*
X6984613Y-18562427D02*
X6994137Y-18552904D01*
X7070327Y-18648142D02*
X7070327Y-18781475D01*
X7070327Y-18667189D02*
X7079851Y-18657665D01*
X7079851Y-18657665D02*
X7098899Y-18648142D01*
X7098899Y-18648142D02*
X7127470Y-18648142D01*
X7127470Y-18648142D02*
X7146518Y-18657665D01*
X7146518Y-18657665D02*
X7156042Y-18676713D01*
X7156042Y-18676713D02*
X7156042Y-18781475D01*
X7279851Y-18781475D02*
X7260804Y-18771951D01*
X7260804Y-18771951D02*
X7251280Y-18762427D01*
X7251280Y-18762427D02*
X7241756Y-18743380D01*
X7241756Y-18743380D02*
X7241756Y-18686237D01*
X7241756Y-18686237D02*
X7251280Y-18667189D01*
X7251280Y-18667189D02*
X7260804Y-18657665D01*
X7260804Y-18657665D02*
X7279851Y-18648142D01*
X7279851Y-18648142D02*
X7308423Y-18648142D01*
X7308423Y-18648142D02*
X7327470Y-18657665D01*
X7327470Y-18657665D02*
X7336994Y-18667189D01*
X7336994Y-18667189D02*
X7346518Y-18686237D01*
X7346518Y-18686237D02*
X7346518Y-18743380D01*
X7346518Y-18743380D02*
X7336994Y-18762427D01*
X7336994Y-18762427D02*
X7327470Y-18771951D01*
X7327470Y-18771951D02*
X7308423Y-18781475D01*
X7308423Y-18781475D02*
X7279851Y-18781475D01*
X7403661Y-18648142D02*
X7479851Y-18648142D01*
X7432232Y-18581475D02*
X7432232Y-18752904D01*
X7432232Y-18752904D02*
X7441756Y-18771951D01*
X7441756Y-18771951D02*
X7460804Y-18781475D01*
X7460804Y-18781475D02*
X7479851Y-18781475D01*
X7698899Y-18648142D02*
X7698899Y-18848142D01*
X7698899Y-18657665D02*
X7717946Y-18648142D01*
X7717946Y-18648142D02*
X7756042Y-18648142D01*
X7756042Y-18648142D02*
X7775089Y-18657665D01*
X7775089Y-18657665D02*
X7784613Y-18667189D01*
X7784613Y-18667189D02*
X7794137Y-18686237D01*
X7794137Y-18686237D02*
X7794137Y-18743380D01*
X7794137Y-18743380D02*
X7784613Y-18762427D01*
X7784613Y-18762427D02*
X7775089Y-18771951D01*
X7775089Y-18771951D02*
X7756042Y-18781475D01*
X7756042Y-18781475D02*
X7717946Y-18781475D01*
X7717946Y-18781475D02*
X7698899Y-18771951D01*
X7908423Y-18781475D02*
X7889375Y-18771951D01*
X7889375Y-18771951D02*
X7879851Y-18752904D01*
X7879851Y-18752904D02*
X7879851Y-18581475D01*
X8070327Y-18781475D02*
X8070327Y-18676713D01*
X8070327Y-18676713D02*
X8060804Y-18657665D01*
X8060804Y-18657665D02*
X8041756Y-18648142D01*
X8041756Y-18648142D02*
X8003661Y-18648142D01*
X8003661Y-18648142D02*
X7984613Y-18657665D01*
X8070327Y-18771951D02*
X8051280Y-18781475D01*
X8051280Y-18781475D02*
X8003661Y-18781475D01*
X8003661Y-18781475D02*
X7984613Y-18771951D01*
X7984613Y-18771951D02*
X7975089Y-18752904D01*
X7975089Y-18752904D02*
X7975089Y-18733856D01*
X7975089Y-18733856D02*
X7984613Y-18714808D01*
X7984613Y-18714808D02*
X8003661Y-18705285D01*
X8003661Y-18705285D02*
X8051280Y-18705285D01*
X8051280Y-18705285D02*
X8070327Y-18695761D01*
X8136994Y-18648142D02*
X8213185Y-18648142D01*
X8165566Y-18581475D02*
X8165566Y-18752904D01*
X8165566Y-18752904D02*
X8175089Y-18771951D01*
X8175089Y-18771951D02*
X8194137Y-18781475D01*
X8194137Y-18781475D02*
X8213185Y-18781475D01*
X8356042Y-18771951D02*
X8336994Y-18781475D01*
X8336994Y-18781475D02*
X8298899Y-18781475D01*
X8298899Y-18781475D02*
X8279851Y-18771951D01*
X8279851Y-18771951D02*
X8270327Y-18752904D01*
X8270327Y-18752904D02*
X8270327Y-18676713D01*
X8270327Y-18676713D02*
X8279851Y-18657665D01*
X8279851Y-18657665D02*
X8298899Y-18648142D01*
X8298899Y-18648142D02*
X8336994Y-18648142D01*
X8336994Y-18648142D02*
X8356042Y-18657665D01*
X8356042Y-18657665D02*
X8365566Y-18676713D01*
X8365566Y-18676713D02*
X8365566Y-18695761D01*
X8365566Y-18695761D02*
X8270327Y-18714808D01*
X8536994Y-18781475D02*
X8536994Y-18581475D01*
X8536994Y-18771951D02*
X8517947Y-18781475D01*
X8517947Y-18781475D02*
X8479851Y-18781475D01*
X8479851Y-18781475D02*
X8460804Y-18771951D01*
X8460804Y-18771951D02*
X8451280Y-18762427D01*
X8451280Y-18762427D02*
X8441756Y-18743380D01*
X8441756Y-18743380D02*
X8441756Y-18686237D01*
X8441756Y-18686237D02*
X8451280Y-18667189D01*
X8451280Y-18667189D02*
X8460804Y-18657665D01*
X8460804Y-18657665D02*
X8479851Y-18648142D01*
X8479851Y-18648142D02*
X8517947Y-18648142D01*
X8517947Y-18648142D02*
X8536994Y-18657665D01*
X8613185Y-18857665D02*
X8622709Y-18848142D01*
X8622709Y-18848142D02*
X8641756Y-18819570D01*
X8641756Y-18819570D02*
X8651280Y-18800523D01*
X8651280Y-18800523D02*
X8660804Y-18771951D01*
X8660804Y-18771951D02*
X8670328Y-18724332D01*
X8670328Y-18724332D02*
X8670328Y-18686237D01*
X8670328Y-18686237D02*
X8660804Y-18638618D01*
X8660804Y-18638618D02*
X8651280Y-18610046D01*
X8651280Y-18610046D02*
X8641756Y-18590999D01*
X8641756Y-18590999D02*
X8622709Y-18562427D01*
X8622709Y-18562427D02*
X8613185Y-18552904D01*
X1476217Y-18984991D02*
G75*
G02*
X1276217Y-18984991I-100000J0D01*
G01*
X1276217Y-18984991D02*
G75*
G02*
X1476217Y-18984991I100000J0D01*
G01*
X1727470Y-18895523D02*
X1736994Y-18885999D01*
X1736994Y-18885999D02*
X1756041Y-18876475D01*
X1756041Y-18876475D02*
X1803660Y-18876475D01*
X1803660Y-18876475D02*
X1822708Y-18885999D01*
X1822708Y-18885999D02*
X1832232Y-18895523D01*
X1832232Y-18895523D02*
X1841755Y-18914570D01*
X1841755Y-18914570D02*
X1841755Y-18933618D01*
X1841755Y-18933618D02*
X1832232Y-18962189D01*
X1832232Y-18962189D02*
X1717946Y-19076475D01*
X1717946Y-19076475D02*
X1841755Y-19076475D01*
X1927470Y-19057427D02*
X1936994Y-19066951D01*
X1936994Y-19066951D02*
X1927470Y-19076475D01*
X1927470Y-19076475D02*
X1917946Y-19066951D01*
X1917946Y-19066951D02*
X1927470Y-19057427D01*
X1927470Y-19057427D02*
X1927470Y-19076475D01*
X2013184Y-18895523D02*
X2022708Y-18885999D01*
X2022708Y-18885999D02*
X2041755Y-18876475D01*
X2041755Y-18876475D02*
X2089375Y-18876475D01*
X2089375Y-18876475D02*
X2108422Y-18885999D01*
X2108422Y-18885999D02*
X2117946Y-18895523D01*
X2117946Y-18895523D02*
X2127470Y-18914570D01*
X2127470Y-18914570D02*
X2127470Y-18933618D01*
X2127470Y-18933618D02*
X2117946Y-18962189D01*
X2117946Y-18962189D02*
X2003660Y-19076475D01*
X2003660Y-19076475D02*
X2127470Y-19076475D01*
X2251279Y-18876475D02*
X2270327Y-18876475D01*
X2270327Y-18876475D02*
X2289375Y-18885999D01*
X2289375Y-18885999D02*
X2298898Y-18895523D01*
X2298898Y-18895523D02*
X2308422Y-18914570D01*
X2308422Y-18914570D02*
X2317946Y-18952665D01*
X2317946Y-18952665D02*
X2317946Y-19000285D01*
X2317946Y-19000285D02*
X2308422Y-19038380D01*
X2308422Y-19038380D02*
X2298898Y-19057427D01*
X2298898Y-19057427D02*
X2289375Y-19066951D01*
X2289375Y-19066951D02*
X2270327Y-19076475D01*
X2270327Y-19076475D02*
X2251279Y-19076475D01*
X2251279Y-19076475D02*
X2232232Y-19066951D01*
X2232232Y-19066951D02*
X2222708Y-19057427D01*
X2222708Y-19057427D02*
X2213184Y-19038380D01*
X2213184Y-19038380D02*
X2203660Y-19000285D01*
X2203660Y-19000285D02*
X2203660Y-18952665D01*
X2203660Y-18952665D02*
X2213184Y-18914570D01*
X2213184Y-18914570D02*
X2222708Y-18895523D01*
X2222708Y-18895523D02*
X2232232Y-18885999D01*
X2232232Y-18885999D02*
X2251279Y-18876475D01*
X2441756Y-18876475D02*
X2460803Y-18876475D01*
X2460803Y-18876475D02*
X2479851Y-18885999D01*
X2479851Y-18885999D02*
X2489375Y-18895523D01*
X2489375Y-18895523D02*
X2498898Y-18914570D01*
X2498898Y-18914570D02*
X2508422Y-18952665D01*
X2508422Y-18952665D02*
X2508422Y-19000285D01*
X2508422Y-19000285D02*
X2498898Y-19038380D01*
X2498898Y-19038380D02*
X2489375Y-19057427D01*
X2489375Y-19057427D02*
X2479851Y-19066951D01*
X2479851Y-19066951D02*
X2460803Y-19076475D01*
X2460803Y-19076475D02*
X2441756Y-19076475D01*
X2441756Y-19076475D02*
X2422708Y-19066951D01*
X2422708Y-19066951D02*
X2413184Y-19057427D01*
X2413184Y-19057427D02*
X2403660Y-19038380D01*
X2403660Y-19038380D02*
X2394137Y-19000285D01*
X2394137Y-19000285D02*
X2394137Y-18952665D01*
X2394137Y-18952665D02*
X2403660Y-18914570D01*
X2403660Y-18914570D02*
X2413184Y-18895523D01*
X2413184Y-18895523D02*
X2422708Y-18885999D01*
X2422708Y-18885999D02*
X2441756Y-18876475D01*
X2594137Y-19076475D02*
X2594137Y-18943142D01*
X2594137Y-18962189D02*
X2603660Y-18952665D01*
X2603660Y-18952665D02*
X2622708Y-18943142D01*
X2622708Y-18943142D02*
X2651279Y-18943142D01*
X2651279Y-18943142D02*
X2670327Y-18952665D01*
X2670327Y-18952665D02*
X2679851Y-18971713D01*
X2679851Y-18971713D02*
X2679851Y-19076475D01*
X2679851Y-18971713D02*
X2689375Y-18952665D01*
X2689375Y-18952665D02*
X2708422Y-18943142D01*
X2708422Y-18943142D02*
X2736994Y-18943142D01*
X2736994Y-18943142D02*
X2756041Y-18952665D01*
X2756041Y-18952665D02*
X2765565Y-18971713D01*
X2765565Y-18971713D02*
X2765565Y-19076475D01*
X2860803Y-19076475D02*
X2860803Y-18943142D01*
X2860803Y-18962189D02*
X2870327Y-18952665D01*
X2870327Y-18952665D02*
X2889375Y-18943142D01*
X2889375Y-18943142D02*
X2917946Y-18943142D01*
X2917946Y-18943142D02*
X2936994Y-18952665D01*
X2936994Y-18952665D02*
X2946517Y-18971713D01*
X2946517Y-18971713D02*
X2946517Y-19076475D01*
X2946517Y-18971713D02*
X2956041Y-18952665D01*
X2956041Y-18952665D02*
X2975089Y-18943142D01*
X2975089Y-18943142D02*
X3003660Y-18943142D01*
X3003660Y-18943142D02*
X3022708Y-18952665D01*
X3022708Y-18952665D02*
X3032232Y-18971713D01*
X3032232Y-18971713D02*
X3032232Y-19076475D01*
X3422708Y-18866951D02*
X3251279Y-19124094D01*
X3679851Y-18876475D02*
X3698899Y-18876475D01*
X3698899Y-18876475D02*
X3717946Y-18885999D01*
X3717946Y-18885999D02*
X3727470Y-18895523D01*
X3727470Y-18895523D02*
X3736994Y-18914570D01*
X3736994Y-18914570D02*
X3746518Y-18952665D01*
X3746518Y-18952665D02*
X3746518Y-19000285D01*
X3746518Y-19000285D02*
X3736994Y-19038380D01*
X3736994Y-19038380D02*
X3727470Y-19057427D01*
X3727470Y-19057427D02*
X3717946Y-19066951D01*
X3717946Y-19066951D02*
X3698899Y-19076475D01*
X3698899Y-19076475D02*
X3679851Y-19076475D01*
X3679851Y-19076475D02*
X3660803Y-19066951D01*
X3660803Y-19066951D02*
X3651279Y-19057427D01*
X3651279Y-19057427D02*
X3641756Y-19038380D01*
X3641756Y-19038380D02*
X3632232Y-19000285D01*
X3632232Y-19000285D02*
X3632232Y-18952665D01*
X3632232Y-18952665D02*
X3641756Y-18914570D01*
X3641756Y-18914570D02*
X3651279Y-18895523D01*
X3651279Y-18895523D02*
X3660803Y-18885999D01*
X3660803Y-18885999D02*
X3679851Y-18876475D01*
X3832232Y-19057427D02*
X3841756Y-19066951D01*
X3841756Y-19066951D02*
X3832232Y-19076475D01*
X3832232Y-19076475D02*
X3822708Y-19066951D01*
X3822708Y-19066951D02*
X3832232Y-19057427D01*
X3832232Y-19057427D02*
X3832232Y-19076475D01*
X3965565Y-18876475D02*
X3984613Y-18876475D01*
X3984613Y-18876475D02*
X4003660Y-18885999D01*
X4003660Y-18885999D02*
X4013184Y-18895523D01*
X4013184Y-18895523D02*
X4022708Y-18914570D01*
X4022708Y-18914570D02*
X4032232Y-18952665D01*
X4032232Y-18952665D02*
X4032232Y-19000285D01*
X4032232Y-19000285D02*
X4022708Y-19038380D01*
X4022708Y-19038380D02*
X4013184Y-19057427D01*
X4013184Y-19057427D02*
X4003660Y-19066951D01*
X4003660Y-19066951D02*
X3984613Y-19076475D01*
X3984613Y-19076475D02*
X3965565Y-19076475D01*
X3965565Y-19076475D02*
X3946518Y-19066951D01*
X3946518Y-19066951D02*
X3936994Y-19057427D01*
X3936994Y-19057427D02*
X3927470Y-19038380D01*
X3927470Y-19038380D02*
X3917946Y-19000285D01*
X3917946Y-19000285D02*
X3917946Y-18952665D01*
X3917946Y-18952665D02*
X3927470Y-18914570D01*
X3927470Y-18914570D02*
X3936994Y-18895523D01*
X3936994Y-18895523D02*
X3946518Y-18885999D01*
X3946518Y-18885999D02*
X3965565Y-18876475D01*
X4146518Y-18962189D02*
X4127470Y-18952665D01*
X4127470Y-18952665D02*
X4117946Y-18943142D01*
X4117946Y-18943142D02*
X4108422Y-18924094D01*
X4108422Y-18924094D02*
X4108422Y-18914570D01*
X4108422Y-18914570D02*
X4117946Y-18895523D01*
X4117946Y-18895523D02*
X4127470Y-18885999D01*
X4127470Y-18885999D02*
X4146518Y-18876475D01*
X4146518Y-18876475D02*
X4184613Y-18876475D01*
X4184613Y-18876475D02*
X4203661Y-18885999D01*
X4203661Y-18885999D02*
X4213184Y-18895523D01*
X4213184Y-18895523D02*
X4222708Y-18914570D01*
X4222708Y-18914570D02*
X4222708Y-18924094D01*
X4222708Y-18924094D02*
X4213184Y-18943142D01*
X4213184Y-18943142D02*
X4203661Y-18952665D01*
X4203661Y-18952665D02*
X4184613Y-18962189D01*
X4184613Y-18962189D02*
X4146518Y-18962189D01*
X4146518Y-18962189D02*
X4127470Y-18971713D01*
X4127470Y-18971713D02*
X4117946Y-18981237D01*
X4117946Y-18981237D02*
X4108422Y-19000285D01*
X4108422Y-19000285D02*
X4108422Y-19038380D01*
X4108422Y-19038380D02*
X4117946Y-19057427D01*
X4117946Y-19057427D02*
X4127470Y-19066951D01*
X4127470Y-19066951D02*
X4146518Y-19076475D01*
X4146518Y-19076475D02*
X4184613Y-19076475D01*
X4184613Y-19076475D02*
X4203661Y-19066951D01*
X4203661Y-19066951D02*
X4213184Y-19057427D01*
X4213184Y-19057427D02*
X4222708Y-19038380D01*
X4222708Y-19038380D02*
X4222708Y-19000285D01*
X4222708Y-19000285D02*
X4213184Y-18981237D01*
X4213184Y-18981237D02*
X4203661Y-18971713D01*
X4203661Y-18971713D02*
X4184613Y-18962189D01*
X4394137Y-18876475D02*
X4356041Y-18876475D01*
X4356041Y-18876475D02*
X4336994Y-18885999D01*
X4336994Y-18885999D02*
X4327470Y-18895523D01*
X4327470Y-18895523D02*
X4308422Y-18924094D01*
X4308422Y-18924094D02*
X4298899Y-18962189D01*
X4298899Y-18962189D02*
X4298899Y-19038380D01*
X4298899Y-19038380D02*
X4308422Y-19057427D01*
X4308422Y-19057427D02*
X4317946Y-19066951D01*
X4317946Y-19066951D02*
X4336994Y-19076475D01*
X4336994Y-19076475D02*
X4375089Y-19076475D01*
X4375089Y-19076475D02*
X4394137Y-19066951D01*
X4394137Y-19066951D02*
X4403661Y-19057427D01*
X4403661Y-19057427D02*
X4413184Y-19038380D01*
X4413184Y-19038380D02*
X4413184Y-18990761D01*
X4413184Y-18990761D02*
X4403661Y-18971713D01*
X4403661Y-18971713D02*
X4394137Y-18962189D01*
X4394137Y-18962189D02*
X4375089Y-18952665D01*
X4375089Y-18952665D02*
X4336994Y-18952665D01*
X4336994Y-18952665D02*
X4317946Y-18962189D01*
X4317946Y-18962189D02*
X4308422Y-18971713D01*
X4308422Y-18971713D02*
X4298899Y-18990761D01*
X4584613Y-18876475D02*
X4546518Y-18876475D01*
X4546518Y-18876475D02*
X4527470Y-18885999D01*
X4527470Y-18885999D02*
X4517946Y-18895523D01*
X4517946Y-18895523D02*
X4498899Y-18924094D01*
X4498899Y-18924094D02*
X4489375Y-18962189D01*
X4489375Y-18962189D02*
X4489375Y-19038380D01*
X4489375Y-19038380D02*
X4498899Y-19057427D01*
X4498899Y-19057427D02*
X4508422Y-19066951D01*
X4508422Y-19066951D02*
X4527470Y-19076475D01*
X4527470Y-19076475D02*
X4565565Y-19076475D01*
X4565565Y-19076475D02*
X4584613Y-19066951D01*
X4584613Y-19066951D02*
X4594137Y-19057427D01*
X4594137Y-19057427D02*
X4603661Y-19038380D01*
X4603661Y-19038380D02*
X4603661Y-18990761D01*
X4603661Y-18990761D02*
X4594137Y-18971713D01*
X4594137Y-18971713D02*
X4584613Y-18962189D01*
X4584613Y-18962189D02*
X4565565Y-18952665D01*
X4565565Y-18952665D02*
X4527470Y-18952665D01*
X4527470Y-18952665D02*
X4508422Y-18962189D01*
X4508422Y-18962189D02*
X4498899Y-18971713D01*
X4498899Y-18971713D02*
X4489375Y-18990761D01*
X4679851Y-18876475D02*
X4679851Y-18914570D01*
X4756042Y-18876475D02*
X4756042Y-18914570D01*
X5051280Y-19152665D02*
X5041756Y-19143142D01*
X5041756Y-19143142D02*
X5022708Y-19114570D01*
X5022708Y-19114570D02*
X5013184Y-19095523D01*
X5013184Y-19095523D02*
X5003661Y-19066951D01*
X5003661Y-19066951D02*
X4994137Y-19019332D01*
X4994137Y-19019332D02*
X4994137Y-18981237D01*
X4994137Y-18981237D02*
X5003661Y-18933618D01*
X5003661Y-18933618D02*
X5013184Y-18905046D01*
X5013184Y-18905046D02*
X5022708Y-18885999D01*
X5022708Y-18885999D02*
X5041756Y-18857427D01*
X5041756Y-18857427D02*
X5051280Y-18847904D01*
X5108423Y-18876475D02*
X5241756Y-18876475D01*
X5241756Y-18876475D02*
X5156042Y-19076475D01*
X5470327Y-19076475D02*
X5470327Y-18876475D01*
X5556042Y-19076475D02*
X5556042Y-18971713D01*
X5556042Y-18971713D02*
X5546518Y-18952665D01*
X5546518Y-18952665D02*
X5527470Y-18943142D01*
X5527470Y-18943142D02*
X5498899Y-18943142D01*
X5498899Y-18943142D02*
X5479851Y-18952665D01*
X5479851Y-18952665D02*
X5470327Y-18962189D01*
X5679851Y-19076475D02*
X5660803Y-19066951D01*
X5660803Y-19066951D02*
X5651280Y-19057427D01*
X5651280Y-19057427D02*
X5641756Y-19038380D01*
X5641756Y-19038380D02*
X5641756Y-18981237D01*
X5641756Y-18981237D02*
X5651280Y-18962189D01*
X5651280Y-18962189D02*
X5660803Y-18952665D01*
X5660803Y-18952665D02*
X5679851Y-18943142D01*
X5679851Y-18943142D02*
X5708423Y-18943142D01*
X5708423Y-18943142D02*
X5727470Y-18952665D01*
X5727470Y-18952665D02*
X5736994Y-18962189D01*
X5736994Y-18962189D02*
X5746518Y-18981237D01*
X5746518Y-18981237D02*
X5746518Y-19038380D01*
X5746518Y-19038380D02*
X5736994Y-19057427D01*
X5736994Y-19057427D02*
X5727470Y-19066951D01*
X5727470Y-19066951D02*
X5708423Y-19076475D01*
X5708423Y-19076475D02*
X5679851Y-19076475D01*
X5860803Y-19076475D02*
X5841756Y-19066951D01*
X5841756Y-19066951D02*
X5832232Y-19047904D01*
X5832232Y-19047904D02*
X5832232Y-18876475D01*
X6013184Y-19066951D02*
X5994137Y-19076475D01*
X5994137Y-19076475D02*
X5956042Y-19076475D01*
X5956042Y-19076475D02*
X5936994Y-19066951D01*
X5936994Y-19066951D02*
X5927470Y-19047904D01*
X5927470Y-19047904D02*
X5927470Y-18971713D01*
X5927470Y-18971713D02*
X5936994Y-18952665D01*
X5936994Y-18952665D02*
X5956042Y-18943142D01*
X5956042Y-18943142D02*
X5994137Y-18943142D01*
X5994137Y-18943142D02*
X6013184Y-18952665D01*
X6013184Y-18952665D02*
X6022708Y-18971713D01*
X6022708Y-18971713D02*
X6022708Y-18990761D01*
X6022708Y-18990761D02*
X5927470Y-19009808D01*
X6098899Y-19066951D02*
X6117946Y-19076475D01*
X6117946Y-19076475D02*
X6156042Y-19076475D01*
X6156042Y-19076475D02*
X6175089Y-19066951D01*
X6175089Y-19066951D02*
X6184613Y-19047904D01*
X6184613Y-19047904D02*
X6184613Y-19038380D01*
X6184613Y-19038380D02*
X6175089Y-19019332D01*
X6175089Y-19019332D02*
X6156042Y-19009808D01*
X6156042Y-19009808D02*
X6127470Y-19009808D01*
X6127470Y-19009808D02*
X6108423Y-19000285D01*
X6108423Y-19000285D02*
X6098899Y-18981237D01*
X6098899Y-18981237D02*
X6098899Y-18971713D01*
X6098899Y-18971713D02*
X6108423Y-18952665D01*
X6108423Y-18952665D02*
X6127470Y-18943142D01*
X6127470Y-18943142D02*
X6156042Y-18943142D01*
X6156042Y-18943142D02*
X6175089Y-18952665D01*
X6251280Y-19152665D02*
X6260804Y-19143142D01*
X6260804Y-19143142D02*
X6279851Y-19114570D01*
X6279851Y-19114570D02*
X6289375Y-19095523D01*
X6289375Y-19095523D02*
X6298899Y-19066951D01*
X6298899Y-19066951D02*
X6308423Y-19019332D01*
X6308423Y-19019332D02*
X6308423Y-18981237D01*
X6308423Y-18981237D02*
X6298899Y-18933618D01*
X6298899Y-18933618D02*
X6289375Y-18905046D01*
X6289375Y-18905046D02*
X6279851Y-18885999D01*
X6279851Y-18885999D02*
X6260804Y-18857427D01*
X6260804Y-18857427D02*
X6251280Y-18847904D01*
X6613185Y-19152665D02*
X6603661Y-19143142D01*
X6603661Y-19143142D02*
X6584613Y-19114570D01*
X6584613Y-19114570D02*
X6575089Y-19095523D01*
X6575089Y-19095523D02*
X6565565Y-19066951D01*
X6565565Y-19066951D02*
X6556042Y-19019332D01*
X6556042Y-19019332D02*
X6556042Y-18981237D01*
X6556042Y-18981237D02*
X6565565Y-18933618D01*
X6565565Y-18933618D02*
X6575089Y-18905046D01*
X6575089Y-18905046D02*
X6584613Y-18885999D01*
X6584613Y-18885999D02*
X6603661Y-18857427D01*
X6603661Y-18857427D02*
X6613185Y-18847904D01*
X6689375Y-18943142D02*
X6689375Y-19076475D01*
X6689375Y-18962189D02*
X6698899Y-18952665D01*
X6698899Y-18952665D02*
X6717946Y-18943142D01*
X6717946Y-18943142D02*
X6746518Y-18943142D01*
X6746518Y-18943142D02*
X6765565Y-18952665D01*
X6765565Y-18952665D02*
X6775089Y-18971713D01*
X6775089Y-18971713D02*
X6775089Y-19076475D01*
X6898899Y-19076475D02*
X6879851Y-19066951D01*
X6879851Y-19066951D02*
X6870327Y-19057427D01*
X6870327Y-19057427D02*
X6860804Y-19038380D01*
X6860804Y-19038380D02*
X6860804Y-18981237D01*
X6860804Y-18981237D02*
X6870327Y-18962189D01*
X6870327Y-18962189D02*
X6879851Y-18952665D01*
X6879851Y-18952665D02*
X6898899Y-18943142D01*
X6898899Y-18943142D02*
X6927470Y-18943142D01*
X6927470Y-18943142D02*
X6946518Y-18952665D01*
X6946518Y-18952665D02*
X6956042Y-18962189D01*
X6956042Y-18962189D02*
X6965565Y-18981237D01*
X6965565Y-18981237D02*
X6965565Y-19038380D01*
X6965565Y-19038380D02*
X6956042Y-19057427D01*
X6956042Y-19057427D02*
X6946518Y-19066951D01*
X6946518Y-19066951D02*
X6927470Y-19076475D01*
X6927470Y-19076475D02*
X6898899Y-19076475D01*
X7022708Y-18943142D02*
X7098899Y-18943142D01*
X7051280Y-18876475D02*
X7051280Y-19047904D01*
X7051280Y-19047904D02*
X7060804Y-19066951D01*
X7060804Y-19066951D02*
X7079851Y-19076475D01*
X7079851Y-19076475D02*
X7098899Y-19076475D01*
X7317946Y-18943142D02*
X7317946Y-19143142D01*
X7317946Y-18952665D02*
X7336994Y-18943142D01*
X7336994Y-18943142D02*
X7375089Y-18943142D01*
X7375089Y-18943142D02*
X7394137Y-18952665D01*
X7394137Y-18952665D02*
X7403661Y-18962189D01*
X7403661Y-18962189D02*
X7413185Y-18981237D01*
X7413185Y-18981237D02*
X7413185Y-19038380D01*
X7413185Y-19038380D02*
X7403661Y-19057427D01*
X7403661Y-19057427D02*
X7394137Y-19066951D01*
X7394137Y-19066951D02*
X7375089Y-19076475D01*
X7375089Y-19076475D02*
X7336994Y-19076475D01*
X7336994Y-19076475D02*
X7317946Y-19066951D01*
X7527470Y-19076475D02*
X7508423Y-19066951D01*
X7508423Y-19066951D02*
X7498899Y-19047904D01*
X7498899Y-19047904D02*
X7498899Y-18876475D01*
X7689375Y-19076475D02*
X7689375Y-18971713D01*
X7689375Y-18971713D02*
X7679851Y-18952665D01*
X7679851Y-18952665D02*
X7660804Y-18943142D01*
X7660804Y-18943142D02*
X7622708Y-18943142D01*
X7622708Y-18943142D02*
X7603661Y-18952665D01*
X7689375Y-19066951D02*
X7670327Y-19076475D01*
X7670327Y-19076475D02*
X7622708Y-19076475D01*
X7622708Y-19076475D02*
X7603661Y-19066951D01*
X7603661Y-19066951D02*
X7594137Y-19047904D01*
X7594137Y-19047904D02*
X7594137Y-19028856D01*
X7594137Y-19028856D02*
X7603661Y-19009808D01*
X7603661Y-19009808D02*
X7622708Y-19000285D01*
X7622708Y-19000285D02*
X7670327Y-19000285D01*
X7670327Y-19000285D02*
X7689375Y-18990761D01*
X7756042Y-18943142D02*
X7832232Y-18943142D01*
X7784613Y-18876475D02*
X7784613Y-19047904D01*
X7784613Y-19047904D02*
X7794137Y-19066951D01*
X7794137Y-19066951D02*
X7813185Y-19076475D01*
X7813185Y-19076475D02*
X7832232Y-19076475D01*
X7975089Y-19066951D02*
X7956042Y-19076475D01*
X7956042Y-19076475D02*
X7917946Y-19076475D01*
X7917946Y-19076475D02*
X7898899Y-19066951D01*
X7898899Y-19066951D02*
X7889375Y-19047904D01*
X7889375Y-19047904D02*
X7889375Y-18971713D01*
X7889375Y-18971713D02*
X7898899Y-18952665D01*
X7898899Y-18952665D02*
X7917946Y-18943142D01*
X7917946Y-18943142D02*
X7956042Y-18943142D01*
X7956042Y-18943142D02*
X7975089Y-18952665D01*
X7975089Y-18952665D02*
X7984613Y-18971713D01*
X7984613Y-18971713D02*
X7984613Y-18990761D01*
X7984613Y-18990761D02*
X7889375Y-19009808D01*
X8156042Y-19076475D02*
X8156042Y-18876475D01*
X8156042Y-19066951D02*
X8136994Y-19076475D01*
X8136994Y-19076475D02*
X8098899Y-19076475D01*
X8098899Y-19076475D02*
X8079851Y-19066951D01*
X8079851Y-19066951D02*
X8070327Y-19057427D01*
X8070327Y-19057427D02*
X8060804Y-19038380D01*
X8060804Y-19038380D02*
X8060804Y-18981237D01*
X8060804Y-18981237D02*
X8070327Y-18962189D01*
X8070327Y-18962189D02*
X8079851Y-18952665D01*
X8079851Y-18952665D02*
X8098899Y-18943142D01*
X8098899Y-18943142D02*
X8136994Y-18943142D01*
X8136994Y-18943142D02*
X8156042Y-18952665D01*
X8232232Y-19152665D02*
X8241756Y-19143142D01*
X8241756Y-19143142D02*
X8260804Y-19114570D01*
X8260804Y-19114570D02*
X8270327Y-19095523D01*
X8270327Y-19095523D02*
X8279851Y-19066951D01*
X8279851Y-19066951D02*
X8289375Y-19019332D01*
X8289375Y-19019332D02*
X8289375Y-18981237D01*
X8289375Y-18981237D02*
X8279851Y-18933618D01*
X8279851Y-18933618D02*
X8270327Y-18905046D01*
X8270327Y-18905046D02*
X8260804Y-18885999D01*
X8260804Y-18885999D02*
X8241756Y-18857427D01*
X8241756Y-18857427D02*
X8232232Y-18847904D01*
X1376217Y-19204991D02*
X1376217Y-19404991D01*
X1276217Y-19304991D02*
X1476217Y-19304991D01*
X1717946Y-19196475D02*
X1841755Y-19196475D01*
X1841755Y-19196475D02*
X1775089Y-19272665D01*
X1775089Y-19272665D02*
X1803660Y-19272665D01*
X1803660Y-19272665D02*
X1822708Y-19282189D01*
X1822708Y-19282189D02*
X1832232Y-19291713D01*
X1832232Y-19291713D02*
X1841755Y-19310761D01*
X1841755Y-19310761D02*
X1841755Y-19358380D01*
X1841755Y-19358380D02*
X1832232Y-19377427D01*
X1832232Y-19377427D02*
X1822708Y-19386951D01*
X1822708Y-19386951D02*
X1803660Y-19396475D01*
X1803660Y-19396475D02*
X1746517Y-19396475D01*
X1746517Y-19396475D02*
X1727470Y-19386951D01*
X1727470Y-19386951D02*
X1717946Y-19377427D01*
X1927470Y-19377427D02*
X1936994Y-19386951D01*
X1936994Y-19386951D02*
X1927470Y-19396475D01*
X1927470Y-19396475D02*
X1917946Y-19386951D01*
X1917946Y-19386951D02*
X1927470Y-19377427D01*
X1927470Y-19377427D02*
X1927470Y-19396475D01*
X2060803Y-19196475D02*
X2079851Y-19196475D01*
X2079851Y-19196475D02*
X2098898Y-19205999D01*
X2098898Y-19205999D02*
X2108422Y-19215523D01*
X2108422Y-19215523D02*
X2117946Y-19234570D01*
X2117946Y-19234570D02*
X2127470Y-19272665D01*
X2127470Y-19272665D02*
X2127470Y-19320285D01*
X2127470Y-19320285D02*
X2117946Y-19358380D01*
X2117946Y-19358380D02*
X2108422Y-19377427D01*
X2108422Y-19377427D02*
X2098898Y-19386951D01*
X2098898Y-19386951D02*
X2079851Y-19396475D01*
X2079851Y-19396475D02*
X2060803Y-19396475D01*
X2060803Y-19396475D02*
X2041755Y-19386951D01*
X2041755Y-19386951D02*
X2032232Y-19377427D01*
X2032232Y-19377427D02*
X2022708Y-19358380D01*
X2022708Y-19358380D02*
X2013184Y-19320285D01*
X2013184Y-19320285D02*
X2013184Y-19272665D01*
X2013184Y-19272665D02*
X2022708Y-19234570D01*
X2022708Y-19234570D02*
X2032232Y-19215523D01*
X2032232Y-19215523D02*
X2041755Y-19205999D01*
X2041755Y-19205999D02*
X2060803Y-19196475D01*
X2298898Y-19263142D02*
X2298898Y-19396475D01*
X2251279Y-19186951D02*
X2203660Y-19329808D01*
X2203660Y-19329808D02*
X2327470Y-19329808D01*
X2432232Y-19282189D02*
X2413184Y-19272665D01*
X2413184Y-19272665D02*
X2403660Y-19263142D01*
X2403660Y-19263142D02*
X2394137Y-19244094D01*
X2394137Y-19244094D02*
X2394137Y-19234570D01*
X2394137Y-19234570D02*
X2403660Y-19215523D01*
X2403660Y-19215523D02*
X2413184Y-19205999D01*
X2413184Y-19205999D02*
X2432232Y-19196475D01*
X2432232Y-19196475D02*
X2470327Y-19196475D01*
X2470327Y-19196475D02*
X2489375Y-19205999D01*
X2489375Y-19205999D02*
X2498898Y-19215523D01*
X2498898Y-19215523D02*
X2508422Y-19234570D01*
X2508422Y-19234570D02*
X2508422Y-19244094D01*
X2508422Y-19244094D02*
X2498898Y-19263142D01*
X2498898Y-19263142D02*
X2489375Y-19272665D01*
X2489375Y-19272665D02*
X2470327Y-19282189D01*
X2470327Y-19282189D02*
X2432232Y-19282189D01*
X2432232Y-19282189D02*
X2413184Y-19291713D01*
X2413184Y-19291713D02*
X2403660Y-19301237D01*
X2403660Y-19301237D02*
X2394137Y-19320285D01*
X2394137Y-19320285D02*
X2394137Y-19358380D01*
X2394137Y-19358380D02*
X2403660Y-19377427D01*
X2403660Y-19377427D02*
X2413184Y-19386951D01*
X2413184Y-19386951D02*
X2432232Y-19396475D01*
X2432232Y-19396475D02*
X2470327Y-19396475D01*
X2470327Y-19396475D02*
X2489375Y-19386951D01*
X2489375Y-19386951D02*
X2498898Y-19377427D01*
X2498898Y-19377427D02*
X2508422Y-19358380D01*
X2508422Y-19358380D02*
X2508422Y-19320285D01*
X2508422Y-19320285D02*
X2498898Y-19301237D01*
X2498898Y-19301237D02*
X2489375Y-19291713D01*
X2489375Y-19291713D02*
X2470327Y-19282189D01*
X2594137Y-19396475D02*
X2594137Y-19263142D01*
X2594137Y-19282189D02*
X2603660Y-19272665D01*
X2603660Y-19272665D02*
X2622708Y-19263142D01*
X2622708Y-19263142D02*
X2651279Y-19263142D01*
X2651279Y-19263142D02*
X2670327Y-19272665D01*
X2670327Y-19272665D02*
X2679851Y-19291713D01*
X2679851Y-19291713D02*
X2679851Y-19396475D01*
X2679851Y-19291713D02*
X2689375Y-19272665D01*
X2689375Y-19272665D02*
X2708422Y-19263142D01*
X2708422Y-19263142D02*
X2736994Y-19263142D01*
X2736994Y-19263142D02*
X2756041Y-19272665D01*
X2756041Y-19272665D02*
X2765565Y-19291713D01*
X2765565Y-19291713D02*
X2765565Y-19396475D01*
X2860803Y-19396475D02*
X2860803Y-19263142D01*
X2860803Y-19282189D02*
X2870327Y-19272665D01*
X2870327Y-19272665D02*
X2889375Y-19263142D01*
X2889375Y-19263142D02*
X2917946Y-19263142D01*
X2917946Y-19263142D02*
X2936994Y-19272665D01*
X2936994Y-19272665D02*
X2946517Y-19291713D01*
X2946517Y-19291713D02*
X2946517Y-19396475D01*
X2946517Y-19291713D02*
X2956041Y-19272665D01*
X2956041Y-19272665D02*
X2975089Y-19263142D01*
X2975089Y-19263142D02*
X3003660Y-19263142D01*
X3003660Y-19263142D02*
X3022708Y-19272665D01*
X3022708Y-19272665D02*
X3032232Y-19291713D01*
X3032232Y-19291713D02*
X3032232Y-19396475D01*
X3422708Y-19186951D02*
X3251279Y-19444094D01*
X3679851Y-19196475D02*
X3698899Y-19196475D01*
X3698899Y-19196475D02*
X3717946Y-19205999D01*
X3717946Y-19205999D02*
X3727470Y-19215523D01*
X3727470Y-19215523D02*
X3736994Y-19234570D01*
X3736994Y-19234570D02*
X3746518Y-19272665D01*
X3746518Y-19272665D02*
X3746518Y-19320285D01*
X3746518Y-19320285D02*
X3736994Y-19358380D01*
X3736994Y-19358380D02*
X3727470Y-19377427D01*
X3727470Y-19377427D02*
X3717946Y-19386951D01*
X3717946Y-19386951D02*
X3698899Y-19396475D01*
X3698899Y-19396475D02*
X3679851Y-19396475D01*
X3679851Y-19396475D02*
X3660803Y-19386951D01*
X3660803Y-19386951D02*
X3651279Y-19377427D01*
X3651279Y-19377427D02*
X3641756Y-19358380D01*
X3641756Y-19358380D02*
X3632232Y-19320285D01*
X3632232Y-19320285D02*
X3632232Y-19272665D01*
X3632232Y-19272665D02*
X3641756Y-19234570D01*
X3641756Y-19234570D02*
X3651279Y-19215523D01*
X3651279Y-19215523D02*
X3660803Y-19205999D01*
X3660803Y-19205999D02*
X3679851Y-19196475D01*
X3832232Y-19377427D02*
X3841756Y-19386951D01*
X3841756Y-19386951D02*
X3832232Y-19396475D01*
X3832232Y-19396475D02*
X3822708Y-19386951D01*
X3822708Y-19386951D02*
X3832232Y-19377427D01*
X3832232Y-19377427D02*
X3832232Y-19396475D01*
X4032232Y-19396475D02*
X3917946Y-19396475D01*
X3975089Y-19396475D02*
X3975089Y-19196475D01*
X3975089Y-19196475D02*
X3956041Y-19225046D01*
X3956041Y-19225046D02*
X3936994Y-19244094D01*
X3936994Y-19244094D02*
X3917946Y-19253618D01*
X4108422Y-19215523D02*
X4117946Y-19205999D01*
X4117946Y-19205999D02*
X4136994Y-19196475D01*
X4136994Y-19196475D02*
X4184613Y-19196475D01*
X4184613Y-19196475D02*
X4203661Y-19205999D01*
X4203661Y-19205999D02*
X4213184Y-19215523D01*
X4213184Y-19215523D02*
X4222708Y-19234570D01*
X4222708Y-19234570D02*
X4222708Y-19253618D01*
X4222708Y-19253618D02*
X4213184Y-19282189D01*
X4213184Y-19282189D02*
X4098899Y-19396475D01*
X4098899Y-19396475D02*
X4222708Y-19396475D01*
X4346518Y-19196475D02*
X4365565Y-19196475D01*
X4365565Y-19196475D02*
X4384613Y-19205999D01*
X4384613Y-19205999D02*
X4394137Y-19215523D01*
X4394137Y-19215523D02*
X4403661Y-19234570D01*
X4403661Y-19234570D02*
X4413184Y-19272665D01*
X4413184Y-19272665D02*
X4413184Y-19320285D01*
X4413184Y-19320285D02*
X4403661Y-19358380D01*
X4403661Y-19358380D02*
X4394137Y-19377427D01*
X4394137Y-19377427D02*
X4384613Y-19386951D01*
X4384613Y-19386951D02*
X4365565Y-19396475D01*
X4365565Y-19396475D02*
X4346518Y-19396475D01*
X4346518Y-19396475D02*
X4327470Y-19386951D01*
X4327470Y-19386951D02*
X4317946Y-19377427D01*
X4317946Y-19377427D02*
X4308422Y-19358380D01*
X4308422Y-19358380D02*
X4298899Y-19320285D01*
X4298899Y-19320285D02*
X4298899Y-19272665D01*
X4298899Y-19272665D02*
X4308422Y-19234570D01*
X4308422Y-19234570D02*
X4317946Y-19215523D01*
X4317946Y-19215523D02*
X4327470Y-19205999D01*
X4327470Y-19205999D02*
X4346518Y-19196475D01*
X4536994Y-19196475D02*
X4556042Y-19196475D01*
X4556042Y-19196475D02*
X4575089Y-19205999D01*
X4575089Y-19205999D02*
X4584613Y-19215523D01*
X4584613Y-19215523D02*
X4594137Y-19234570D01*
X4594137Y-19234570D02*
X4603661Y-19272665D01*
X4603661Y-19272665D02*
X4603661Y-19320285D01*
X4603661Y-19320285D02*
X4594137Y-19358380D01*
X4594137Y-19358380D02*
X4584613Y-19377427D01*
X4584613Y-19377427D02*
X4575089Y-19386951D01*
X4575089Y-19386951D02*
X4556042Y-19396475D01*
X4556042Y-19396475D02*
X4536994Y-19396475D01*
X4536994Y-19396475D02*
X4517946Y-19386951D01*
X4517946Y-19386951D02*
X4508422Y-19377427D01*
X4508422Y-19377427D02*
X4498899Y-19358380D01*
X4498899Y-19358380D02*
X4489375Y-19320285D01*
X4489375Y-19320285D02*
X4489375Y-19272665D01*
X4489375Y-19272665D02*
X4498899Y-19234570D01*
X4498899Y-19234570D02*
X4508422Y-19215523D01*
X4508422Y-19215523D02*
X4517946Y-19205999D01*
X4517946Y-19205999D02*
X4536994Y-19196475D01*
X4679851Y-19196475D02*
X4679851Y-19234570D01*
X4756042Y-19196475D02*
X4756042Y-19234570D01*
X5051280Y-19472665D02*
X5041756Y-19463142D01*
X5041756Y-19463142D02*
X5022708Y-19434570D01*
X5022708Y-19434570D02*
X5013184Y-19415523D01*
X5013184Y-19415523D02*
X5003661Y-19386951D01*
X5003661Y-19386951D02*
X4994137Y-19339332D01*
X4994137Y-19339332D02*
X4994137Y-19301237D01*
X4994137Y-19301237D02*
X5003661Y-19253618D01*
X5003661Y-19253618D02*
X5013184Y-19225046D01*
X5013184Y-19225046D02*
X5022708Y-19205999D01*
X5022708Y-19205999D02*
X5041756Y-19177427D01*
X5041756Y-19177427D02*
X5051280Y-19167904D01*
X5232232Y-19396475D02*
X5117946Y-19396475D01*
X5175089Y-19396475D02*
X5175089Y-19196475D01*
X5175089Y-19196475D02*
X5156042Y-19225046D01*
X5156042Y-19225046D02*
X5136994Y-19244094D01*
X5136994Y-19244094D02*
X5117946Y-19253618D01*
X5356042Y-19196475D02*
X5375089Y-19196475D01*
X5375089Y-19196475D02*
X5394137Y-19205999D01*
X5394137Y-19205999D02*
X5403661Y-19215523D01*
X5403661Y-19215523D02*
X5413184Y-19234570D01*
X5413184Y-19234570D02*
X5422708Y-19272665D01*
X5422708Y-19272665D02*
X5422708Y-19320285D01*
X5422708Y-19320285D02*
X5413184Y-19358380D01*
X5413184Y-19358380D02*
X5403661Y-19377427D01*
X5403661Y-19377427D02*
X5394137Y-19386951D01*
X5394137Y-19386951D02*
X5375089Y-19396475D01*
X5375089Y-19396475D02*
X5356042Y-19396475D01*
X5356042Y-19396475D02*
X5336994Y-19386951D01*
X5336994Y-19386951D02*
X5327470Y-19377427D01*
X5327470Y-19377427D02*
X5317946Y-19358380D01*
X5317946Y-19358380D02*
X5308423Y-19320285D01*
X5308423Y-19320285D02*
X5308423Y-19272665D01*
X5308423Y-19272665D02*
X5317946Y-19234570D01*
X5317946Y-19234570D02*
X5327470Y-19215523D01*
X5327470Y-19215523D02*
X5336994Y-19205999D01*
X5336994Y-19205999D02*
X5356042Y-19196475D01*
X5660803Y-19396475D02*
X5660803Y-19196475D01*
X5746518Y-19396475D02*
X5746518Y-19291713D01*
X5746518Y-19291713D02*
X5736994Y-19272665D01*
X5736994Y-19272665D02*
X5717946Y-19263142D01*
X5717946Y-19263142D02*
X5689375Y-19263142D01*
X5689375Y-19263142D02*
X5670327Y-19272665D01*
X5670327Y-19272665D02*
X5660803Y-19282189D01*
X5870327Y-19396475D02*
X5851280Y-19386951D01*
X5851280Y-19386951D02*
X5841756Y-19377427D01*
X5841756Y-19377427D02*
X5832232Y-19358380D01*
X5832232Y-19358380D02*
X5832232Y-19301237D01*
X5832232Y-19301237D02*
X5841756Y-19282189D01*
X5841756Y-19282189D02*
X5851280Y-19272665D01*
X5851280Y-19272665D02*
X5870327Y-19263142D01*
X5870327Y-19263142D02*
X5898899Y-19263142D01*
X5898899Y-19263142D02*
X5917946Y-19272665D01*
X5917946Y-19272665D02*
X5927470Y-19282189D01*
X5927470Y-19282189D02*
X5936994Y-19301237D01*
X5936994Y-19301237D02*
X5936994Y-19358380D01*
X5936994Y-19358380D02*
X5927470Y-19377427D01*
X5927470Y-19377427D02*
X5917946Y-19386951D01*
X5917946Y-19386951D02*
X5898899Y-19396475D01*
X5898899Y-19396475D02*
X5870327Y-19396475D01*
X6051280Y-19396475D02*
X6032232Y-19386951D01*
X6032232Y-19386951D02*
X6022708Y-19367904D01*
X6022708Y-19367904D02*
X6022708Y-19196475D01*
X6203661Y-19386951D02*
X6184613Y-19396475D01*
X6184613Y-19396475D02*
X6146518Y-19396475D01*
X6146518Y-19396475D02*
X6127470Y-19386951D01*
X6127470Y-19386951D02*
X6117946Y-19367904D01*
X6117946Y-19367904D02*
X6117946Y-19291713D01*
X6117946Y-19291713D02*
X6127470Y-19272665D01*
X6127470Y-19272665D02*
X6146518Y-19263142D01*
X6146518Y-19263142D02*
X6184613Y-19263142D01*
X6184613Y-19263142D02*
X6203661Y-19272665D01*
X6203661Y-19272665D02*
X6213184Y-19291713D01*
X6213184Y-19291713D02*
X6213184Y-19310761D01*
X6213184Y-19310761D02*
X6117946Y-19329808D01*
X6289375Y-19386951D02*
X6308423Y-19396475D01*
X6308423Y-19396475D02*
X6346518Y-19396475D01*
X6346518Y-19396475D02*
X6365565Y-19386951D01*
X6365565Y-19386951D02*
X6375089Y-19367904D01*
X6375089Y-19367904D02*
X6375089Y-19358380D01*
X6375089Y-19358380D02*
X6365565Y-19339332D01*
X6365565Y-19339332D02*
X6346518Y-19329808D01*
X6346518Y-19329808D02*
X6317946Y-19329808D01*
X6317946Y-19329808D02*
X6298899Y-19320285D01*
X6298899Y-19320285D02*
X6289375Y-19301237D01*
X6289375Y-19301237D02*
X6289375Y-19291713D01*
X6289375Y-19291713D02*
X6298899Y-19272665D01*
X6298899Y-19272665D02*
X6317946Y-19263142D01*
X6317946Y-19263142D02*
X6346518Y-19263142D01*
X6346518Y-19263142D02*
X6365565Y-19272665D01*
X6441756Y-19472665D02*
X6451280Y-19463142D01*
X6451280Y-19463142D02*
X6470327Y-19434570D01*
X6470327Y-19434570D02*
X6479851Y-19415523D01*
X6479851Y-19415523D02*
X6489375Y-19386951D01*
X6489375Y-19386951D02*
X6498899Y-19339332D01*
X6498899Y-19339332D02*
X6498899Y-19301237D01*
X6498899Y-19301237D02*
X6489375Y-19253618D01*
X6489375Y-19253618D02*
X6479851Y-19225046D01*
X6479851Y-19225046D02*
X6470327Y-19205999D01*
X6470327Y-19205999D02*
X6451280Y-19177427D01*
X6451280Y-19177427D02*
X6441756Y-19167904D01*
X6803661Y-19472665D02*
X6794137Y-19463142D01*
X6794137Y-19463142D02*
X6775089Y-19434570D01*
X6775089Y-19434570D02*
X6765565Y-19415523D01*
X6765565Y-19415523D02*
X6756042Y-19386951D01*
X6756042Y-19386951D02*
X6746518Y-19339332D01*
X6746518Y-19339332D02*
X6746518Y-19301237D01*
X6746518Y-19301237D02*
X6756042Y-19253618D01*
X6756042Y-19253618D02*
X6765565Y-19225046D01*
X6765565Y-19225046D02*
X6775089Y-19205999D01*
X6775089Y-19205999D02*
X6794137Y-19177427D01*
X6794137Y-19177427D02*
X6803661Y-19167904D01*
X6879851Y-19263142D02*
X6879851Y-19396475D01*
X6879851Y-19282189D02*
X6889375Y-19272665D01*
X6889375Y-19272665D02*
X6908423Y-19263142D01*
X6908423Y-19263142D02*
X6936994Y-19263142D01*
X6936994Y-19263142D02*
X6956042Y-19272665D01*
X6956042Y-19272665D02*
X6965565Y-19291713D01*
X6965565Y-19291713D02*
X6965565Y-19396475D01*
X7089375Y-19396475D02*
X7070327Y-19386951D01*
X7070327Y-19386951D02*
X7060804Y-19377427D01*
X7060804Y-19377427D02*
X7051280Y-19358380D01*
X7051280Y-19358380D02*
X7051280Y-19301237D01*
X7051280Y-19301237D02*
X7060804Y-19282189D01*
X7060804Y-19282189D02*
X7070327Y-19272665D01*
X7070327Y-19272665D02*
X7089375Y-19263142D01*
X7089375Y-19263142D02*
X7117946Y-19263142D01*
X7117946Y-19263142D02*
X7136994Y-19272665D01*
X7136994Y-19272665D02*
X7146518Y-19282189D01*
X7146518Y-19282189D02*
X7156042Y-19301237D01*
X7156042Y-19301237D02*
X7156042Y-19358380D01*
X7156042Y-19358380D02*
X7146518Y-19377427D01*
X7146518Y-19377427D02*
X7136994Y-19386951D01*
X7136994Y-19386951D02*
X7117946Y-19396475D01*
X7117946Y-19396475D02*
X7089375Y-19396475D01*
X7213185Y-19263142D02*
X7289375Y-19263142D01*
X7241756Y-19196475D02*
X7241756Y-19367904D01*
X7241756Y-19367904D02*
X7251280Y-19386951D01*
X7251280Y-19386951D02*
X7270327Y-19396475D01*
X7270327Y-19396475D02*
X7289375Y-19396475D01*
X7508423Y-19263142D02*
X7508423Y-19463142D01*
X7508423Y-19272665D02*
X7527470Y-19263142D01*
X7527470Y-19263142D02*
X7565566Y-19263142D01*
X7565566Y-19263142D02*
X7584613Y-19272665D01*
X7584613Y-19272665D02*
X7594137Y-19282189D01*
X7594137Y-19282189D02*
X7603661Y-19301237D01*
X7603661Y-19301237D02*
X7603661Y-19358380D01*
X7603661Y-19358380D02*
X7594137Y-19377427D01*
X7594137Y-19377427D02*
X7584613Y-19386951D01*
X7584613Y-19386951D02*
X7565566Y-19396475D01*
X7565566Y-19396475D02*
X7527470Y-19396475D01*
X7527470Y-19396475D02*
X7508423Y-19386951D01*
X7717946Y-19396475D02*
X7698899Y-19386951D01*
X7698899Y-19386951D02*
X7689375Y-19367904D01*
X7689375Y-19367904D02*
X7689375Y-19196475D01*
X7879851Y-19396475D02*
X7879851Y-19291713D01*
X7879851Y-19291713D02*
X7870327Y-19272665D01*
X7870327Y-19272665D02*
X7851280Y-19263142D01*
X7851280Y-19263142D02*
X7813185Y-19263142D01*
X7813185Y-19263142D02*
X7794137Y-19272665D01*
X7879851Y-19386951D02*
X7860804Y-19396475D01*
X7860804Y-19396475D02*
X7813185Y-19396475D01*
X7813185Y-19396475D02*
X7794137Y-19386951D01*
X7794137Y-19386951D02*
X7784613Y-19367904D01*
X7784613Y-19367904D02*
X7784613Y-19348856D01*
X7784613Y-19348856D02*
X7794137Y-19329808D01*
X7794137Y-19329808D02*
X7813185Y-19320285D01*
X7813185Y-19320285D02*
X7860804Y-19320285D01*
X7860804Y-19320285D02*
X7879851Y-19310761D01*
X7946518Y-19263142D02*
X8022708Y-19263142D01*
X7975089Y-19196475D02*
X7975089Y-19367904D01*
X7975089Y-19367904D02*
X7984613Y-19386951D01*
X7984613Y-19386951D02*
X8003661Y-19396475D01*
X8003661Y-19396475D02*
X8022708Y-19396475D01*
X8165566Y-19386951D02*
X8146518Y-19396475D01*
X8146518Y-19396475D02*
X8108423Y-19396475D01*
X8108423Y-19396475D02*
X8089375Y-19386951D01*
X8089375Y-19386951D02*
X8079851Y-19367904D01*
X8079851Y-19367904D02*
X8079851Y-19291713D01*
X8079851Y-19291713D02*
X8089375Y-19272665D01*
X8089375Y-19272665D02*
X8108423Y-19263142D01*
X8108423Y-19263142D02*
X8146518Y-19263142D01*
X8146518Y-19263142D02*
X8165566Y-19272665D01*
X8165566Y-19272665D02*
X8175089Y-19291713D01*
X8175089Y-19291713D02*
X8175089Y-19310761D01*
X8175089Y-19310761D02*
X8079851Y-19329808D01*
X8346518Y-19396475D02*
X8346518Y-19196475D01*
X8346518Y-19386951D02*
X8327470Y-19396475D01*
X8327470Y-19396475D02*
X8289375Y-19396475D01*
X8289375Y-19396475D02*
X8270327Y-19386951D01*
X8270327Y-19386951D02*
X8260804Y-19377427D01*
X8260804Y-19377427D02*
X8251280Y-19358380D01*
X8251280Y-19358380D02*
X8251280Y-19301237D01*
X8251280Y-19301237D02*
X8260804Y-19282189D01*
X8260804Y-19282189D02*
X8270327Y-19272665D01*
X8270327Y-19272665D02*
X8289375Y-19263142D01*
X8289375Y-19263142D02*
X8327470Y-19263142D01*
X8327470Y-19263142D02*
X8346518Y-19272665D01*
X8422709Y-19472665D02*
X8432232Y-19463142D01*
X8432232Y-19463142D02*
X8451280Y-19434570D01*
X8451280Y-19434570D02*
X8460804Y-19415523D01*
X8460804Y-19415523D02*
X8470328Y-19386951D01*
X8470328Y-19386951D02*
X8479851Y-19339332D01*
X8479851Y-19339332D02*
X8479851Y-19301237D01*
X8479851Y-19301237D02*
X8470328Y-19253618D01*
X8470328Y-19253618D02*
X8460804Y-19225046D01*
X8460804Y-19225046D02*
X8451280Y-19205999D01*
X8451280Y-19205999D02*
X8432232Y-19177427D01*
X8432232Y-19177427D02*
X8422709Y-19167904D01*
X1446928Y-19695703D02*
X1446928Y-19554280D01*
X1305505Y-19554280D01*
X1305505Y-19695703D01*
X1446928Y-19695703D01*
X1717946Y-19516475D02*
X1841755Y-19516475D01*
X1841755Y-19516475D02*
X1775089Y-19592665D01*
X1775089Y-19592665D02*
X1803660Y-19592665D01*
X1803660Y-19592665D02*
X1822708Y-19602189D01*
X1822708Y-19602189D02*
X1832232Y-19611713D01*
X1832232Y-19611713D02*
X1841755Y-19630761D01*
X1841755Y-19630761D02*
X1841755Y-19678380D01*
X1841755Y-19678380D02*
X1832232Y-19697427D01*
X1832232Y-19697427D02*
X1822708Y-19706951D01*
X1822708Y-19706951D02*
X1803660Y-19716475D01*
X1803660Y-19716475D02*
X1746517Y-19716475D01*
X1746517Y-19716475D02*
X1727470Y-19706951D01*
X1727470Y-19706951D02*
X1717946Y-19697427D01*
X1927470Y-19697427D02*
X1936994Y-19706951D01*
X1936994Y-19706951D02*
X1927470Y-19716475D01*
X1927470Y-19716475D02*
X1917946Y-19706951D01*
X1917946Y-19706951D02*
X1927470Y-19697427D01*
X1927470Y-19697427D02*
X1927470Y-19716475D01*
X2032232Y-19716475D02*
X2070327Y-19716475D01*
X2070327Y-19716475D02*
X2089375Y-19706951D01*
X2089375Y-19706951D02*
X2098898Y-19697427D01*
X2098898Y-19697427D02*
X2117946Y-19668856D01*
X2117946Y-19668856D02*
X2127470Y-19630761D01*
X2127470Y-19630761D02*
X2127470Y-19554570D01*
X2127470Y-19554570D02*
X2117946Y-19535523D01*
X2117946Y-19535523D02*
X2108422Y-19525999D01*
X2108422Y-19525999D02*
X2089375Y-19516475D01*
X2089375Y-19516475D02*
X2051279Y-19516475D01*
X2051279Y-19516475D02*
X2032232Y-19525999D01*
X2032232Y-19525999D02*
X2022708Y-19535523D01*
X2022708Y-19535523D02*
X2013184Y-19554570D01*
X2013184Y-19554570D02*
X2013184Y-19602189D01*
X2013184Y-19602189D02*
X2022708Y-19621237D01*
X2022708Y-19621237D02*
X2032232Y-19630761D01*
X2032232Y-19630761D02*
X2051279Y-19640285D01*
X2051279Y-19640285D02*
X2089375Y-19640285D01*
X2089375Y-19640285D02*
X2108422Y-19630761D01*
X2108422Y-19630761D02*
X2117946Y-19621237D01*
X2117946Y-19621237D02*
X2127470Y-19602189D01*
X2241756Y-19602189D02*
X2222708Y-19592665D01*
X2222708Y-19592665D02*
X2213184Y-19583142D01*
X2213184Y-19583142D02*
X2203660Y-19564094D01*
X2203660Y-19564094D02*
X2203660Y-19554570D01*
X2203660Y-19554570D02*
X2213184Y-19535523D01*
X2213184Y-19535523D02*
X2222708Y-19525999D01*
X2222708Y-19525999D02*
X2241756Y-19516475D01*
X2241756Y-19516475D02*
X2279851Y-19516475D01*
X2279851Y-19516475D02*
X2298898Y-19525999D01*
X2298898Y-19525999D02*
X2308422Y-19535523D01*
X2308422Y-19535523D02*
X2317946Y-19554570D01*
X2317946Y-19554570D02*
X2317946Y-19564094D01*
X2317946Y-19564094D02*
X2308422Y-19583142D01*
X2308422Y-19583142D02*
X2298898Y-19592665D01*
X2298898Y-19592665D02*
X2279851Y-19602189D01*
X2279851Y-19602189D02*
X2241756Y-19602189D01*
X2241756Y-19602189D02*
X2222708Y-19611713D01*
X2222708Y-19611713D02*
X2213184Y-19621237D01*
X2213184Y-19621237D02*
X2203660Y-19640285D01*
X2203660Y-19640285D02*
X2203660Y-19678380D01*
X2203660Y-19678380D02*
X2213184Y-19697427D01*
X2213184Y-19697427D02*
X2222708Y-19706951D01*
X2222708Y-19706951D02*
X2241756Y-19716475D01*
X2241756Y-19716475D02*
X2279851Y-19716475D01*
X2279851Y-19716475D02*
X2298898Y-19706951D01*
X2298898Y-19706951D02*
X2308422Y-19697427D01*
X2308422Y-19697427D02*
X2317946Y-19678380D01*
X2317946Y-19678380D02*
X2317946Y-19640285D01*
X2317946Y-19640285D02*
X2308422Y-19621237D01*
X2308422Y-19621237D02*
X2298898Y-19611713D01*
X2298898Y-19611713D02*
X2279851Y-19602189D01*
X2432232Y-19602189D02*
X2413184Y-19592665D01*
X2413184Y-19592665D02*
X2403660Y-19583142D01*
X2403660Y-19583142D02*
X2394137Y-19564094D01*
X2394137Y-19564094D02*
X2394137Y-19554570D01*
X2394137Y-19554570D02*
X2403660Y-19535523D01*
X2403660Y-19535523D02*
X2413184Y-19525999D01*
X2413184Y-19525999D02*
X2432232Y-19516475D01*
X2432232Y-19516475D02*
X2470327Y-19516475D01*
X2470327Y-19516475D02*
X2489375Y-19525999D01*
X2489375Y-19525999D02*
X2498898Y-19535523D01*
X2498898Y-19535523D02*
X2508422Y-19554570D01*
X2508422Y-19554570D02*
X2508422Y-19564094D01*
X2508422Y-19564094D02*
X2498898Y-19583142D01*
X2498898Y-19583142D02*
X2489375Y-19592665D01*
X2489375Y-19592665D02*
X2470327Y-19602189D01*
X2470327Y-19602189D02*
X2432232Y-19602189D01*
X2432232Y-19602189D02*
X2413184Y-19611713D01*
X2413184Y-19611713D02*
X2403660Y-19621237D01*
X2403660Y-19621237D02*
X2394137Y-19640285D01*
X2394137Y-19640285D02*
X2394137Y-19678380D01*
X2394137Y-19678380D02*
X2403660Y-19697427D01*
X2403660Y-19697427D02*
X2413184Y-19706951D01*
X2413184Y-19706951D02*
X2432232Y-19716475D01*
X2432232Y-19716475D02*
X2470327Y-19716475D01*
X2470327Y-19716475D02*
X2489375Y-19706951D01*
X2489375Y-19706951D02*
X2498898Y-19697427D01*
X2498898Y-19697427D02*
X2508422Y-19678380D01*
X2508422Y-19678380D02*
X2508422Y-19640285D01*
X2508422Y-19640285D02*
X2498898Y-19621237D01*
X2498898Y-19621237D02*
X2489375Y-19611713D01*
X2489375Y-19611713D02*
X2470327Y-19602189D01*
X2594137Y-19716475D02*
X2594137Y-19583142D01*
X2594137Y-19602189D02*
X2603660Y-19592665D01*
X2603660Y-19592665D02*
X2622708Y-19583142D01*
X2622708Y-19583142D02*
X2651279Y-19583142D01*
X2651279Y-19583142D02*
X2670327Y-19592665D01*
X2670327Y-19592665D02*
X2679851Y-19611713D01*
X2679851Y-19611713D02*
X2679851Y-19716475D01*
X2679851Y-19611713D02*
X2689375Y-19592665D01*
X2689375Y-19592665D02*
X2708422Y-19583142D01*
X2708422Y-19583142D02*
X2736994Y-19583142D01*
X2736994Y-19583142D02*
X2756041Y-19592665D01*
X2756041Y-19592665D02*
X2765565Y-19611713D01*
X2765565Y-19611713D02*
X2765565Y-19716475D01*
X2860803Y-19716475D02*
X2860803Y-19583142D01*
X2860803Y-19602189D02*
X2870327Y-19592665D01*
X2870327Y-19592665D02*
X2889375Y-19583142D01*
X2889375Y-19583142D02*
X2917946Y-19583142D01*
X2917946Y-19583142D02*
X2936994Y-19592665D01*
X2936994Y-19592665D02*
X2946517Y-19611713D01*
X2946517Y-19611713D02*
X2946517Y-19716475D01*
X2946517Y-19611713D02*
X2956041Y-19592665D01*
X2956041Y-19592665D02*
X2975089Y-19583142D01*
X2975089Y-19583142D02*
X3003660Y-19583142D01*
X3003660Y-19583142D02*
X3022708Y-19592665D01*
X3022708Y-19592665D02*
X3032232Y-19611713D01*
X3032232Y-19611713D02*
X3032232Y-19716475D01*
X3422708Y-19506951D02*
X3251279Y-19764094D01*
X3679851Y-19516475D02*
X3698899Y-19516475D01*
X3698899Y-19516475D02*
X3717946Y-19525999D01*
X3717946Y-19525999D02*
X3727470Y-19535523D01*
X3727470Y-19535523D02*
X3736994Y-19554570D01*
X3736994Y-19554570D02*
X3746518Y-19592665D01*
X3746518Y-19592665D02*
X3746518Y-19640285D01*
X3746518Y-19640285D02*
X3736994Y-19678380D01*
X3736994Y-19678380D02*
X3727470Y-19697427D01*
X3727470Y-19697427D02*
X3717946Y-19706951D01*
X3717946Y-19706951D02*
X3698899Y-19716475D01*
X3698899Y-19716475D02*
X3679851Y-19716475D01*
X3679851Y-19716475D02*
X3660803Y-19706951D01*
X3660803Y-19706951D02*
X3651279Y-19697427D01*
X3651279Y-19697427D02*
X3641756Y-19678380D01*
X3641756Y-19678380D02*
X3632232Y-19640285D01*
X3632232Y-19640285D02*
X3632232Y-19592665D01*
X3632232Y-19592665D02*
X3641756Y-19554570D01*
X3641756Y-19554570D02*
X3651279Y-19535523D01*
X3651279Y-19535523D02*
X3660803Y-19525999D01*
X3660803Y-19525999D02*
X3679851Y-19516475D01*
X3832232Y-19697427D02*
X3841756Y-19706951D01*
X3841756Y-19706951D02*
X3832232Y-19716475D01*
X3832232Y-19716475D02*
X3822708Y-19706951D01*
X3822708Y-19706951D02*
X3832232Y-19697427D01*
X3832232Y-19697427D02*
X3832232Y-19716475D01*
X4032232Y-19716475D02*
X3917946Y-19716475D01*
X3975089Y-19716475D02*
X3975089Y-19516475D01*
X3975089Y-19516475D02*
X3956041Y-19545046D01*
X3956041Y-19545046D02*
X3936994Y-19564094D01*
X3936994Y-19564094D02*
X3917946Y-19573618D01*
X4213184Y-19516475D02*
X4117946Y-19516475D01*
X4117946Y-19516475D02*
X4108422Y-19611713D01*
X4108422Y-19611713D02*
X4117946Y-19602189D01*
X4117946Y-19602189D02*
X4136994Y-19592665D01*
X4136994Y-19592665D02*
X4184613Y-19592665D01*
X4184613Y-19592665D02*
X4203661Y-19602189D01*
X4203661Y-19602189D02*
X4213184Y-19611713D01*
X4213184Y-19611713D02*
X4222708Y-19630761D01*
X4222708Y-19630761D02*
X4222708Y-19678380D01*
X4222708Y-19678380D02*
X4213184Y-19697427D01*
X4213184Y-19697427D02*
X4203661Y-19706951D01*
X4203661Y-19706951D02*
X4184613Y-19716475D01*
X4184613Y-19716475D02*
X4136994Y-19716475D01*
X4136994Y-19716475D02*
X4117946Y-19706951D01*
X4117946Y-19706951D02*
X4108422Y-19697427D01*
X4289375Y-19516475D02*
X4422708Y-19516475D01*
X4422708Y-19516475D02*
X4336994Y-19716475D01*
X4536994Y-19516475D02*
X4556042Y-19516475D01*
X4556042Y-19516475D02*
X4575089Y-19525999D01*
X4575089Y-19525999D02*
X4584613Y-19535523D01*
X4584613Y-19535523D02*
X4594137Y-19554570D01*
X4594137Y-19554570D02*
X4603661Y-19592665D01*
X4603661Y-19592665D02*
X4603661Y-19640285D01*
X4603661Y-19640285D02*
X4594137Y-19678380D01*
X4594137Y-19678380D02*
X4584613Y-19697427D01*
X4584613Y-19697427D02*
X4575089Y-19706951D01*
X4575089Y-19706951D02*
X4556042Y-19716475D01*
X4556042Y-19716475D02*
X4536994Y-19716475D01*
X4536994Y-19716475D02*
X4517946Y-19706951D01*
X4517946Y-19706951D02*
X4508422Y-19697427D01*
X4508422Y-19697427D02*
X4498899Y-19678380D01*
X4498899Y-19678380D02*
X4489375Y-19640285D01*
X4489375Y-19640285D02*
X4489375Y-19592665D01*
X4489375Y-19592665D02*
X4498899Y-19554570D01*
X4498899Y-19554570D02*
X4508422Y-19535523D01*
X4508422Y-19535523D02*
X4517946Y-19525999D01*
X4517946Y-19525999D02*
X4536994Y-19516475D01*
X4679851Y-19516475D02*
X4679851Y-19554570D01*
X4756042Y-19516475D02*
X4756042Y-19554570D01*
X5051280Y-19792665D02*
X5041756Y-19783142D01*
X5041756Y-19783142D02*
X5022708Y-19754570D01*
X5022708Y-19754570D02*
X5013184Y-19735523D01*
X5013184Y-19735523D02*
X5003661Y-19706951D01*
X5003661Y-19706951D02*
X4994137Y-19659332D01*
X4994137Y-19659332D02*
X4994137Y-19621237D01*
X4994137Y-19621237D02*
X5003661Y-19573618D01*
X5003661Y-19573618D02*
X5013184Y-19545046D01*
X5013184Y-19545046D02*
X5022708Y-19525999D01*
X5022708Y-19525999D02*
X5041756Y-19497427D01*
X5041756Y-19497427D02*
X5051280Y-19487904D01*
X5108423Y-19516475D02*
X5241756Y-19516475D01*
X5241756Y-19516475D02*
X5156042Y-19716475D01*
X5403661Y-19583142D02*
X5403661Y-19716475D01*
X5356042Y-19506951D02*
X5308423Y-19649808D01*
X5308423Y-19649808D02*
X5432232Y-19649808D01*
X5660803Y-19716475D02*
X5660803Y-19516475D01*
X5746518Y-19716475D02*
X5746518Y-19611713D01*
X5746518Y-19611713D02*
X5736994Y-19592665D01*
X5736994Y-19592665D02*
X5717946Y-19583142D01*
X5717946Y-19583142D02*
X5689375Y-19583142D01*
X5689375Y-19583142D02*
X5670327Y-19592665D01*
X5670327Y-19592665D02*
X5660803Y-19602189D01*
X5870327Y-19716475D02*
X5851280Y-19706951D01*
X5851280Y-19706951D02*
X5841756Y-19697427D01*
X5841756Y-19697427D02*
X5832232Y-19678380D01*
X5832232Y-19678380D02*
X5832232Y-19621237D01*
X5832232Y-19621237D02*
X5841756Y-19602189D01*
X5841756Y-19602189D02*
X5851280Y-19592665D01*
X5851280Y-19592665D02*
X5870327Y-19583142D01*
X5870327Y-19583142D02*
X5898899Y-19583142D01*
X5898899Y-19583142D02*
X5917946Y-19592665D01*
X5917946Y-19592665D02*
X5927470Y-19602189D01*
X5927470Y-19602189D02*
X5936994Y-19621237D01*
X5936994Y-19621237D02*
X5936994Y-19678380D01*
X5936994Y-19678380D02*
X5927470Y-19697427D01*
X5927470Y-19697427D02*
X5917946Y-19706951D01*
X5917946Y-19706951D02*
X5898899Y-19716475D01*
X5898899Y-19716475D02*
X5870327Y-19716475D01*
X6051280Y-19716475D02*
X6032232Y-19706951D01*
X6032232Y-19706951D02*
X6022708Y-19687904D01*
X6022708Y-19687904D02*
X6022708Y-19516475D01*
X6203661Y-19706951D02*
X6184613Y-19716475D01*
X6184613Y-19716475D02*
X6146518Y-19716475D01*
X6146518Y-19716475D02*
X6127470Y-19706951D01*
X6127470Y-19706951D02*
X6117946Y-19687904D01*
X6117946Y-19687904D02*
X6117946Y-19611713D01*
X6117946Y-19611713D02*
X6127470Y-19592665D01*
X6127470Y-19592665D02*
X6146518Y-19583142D01*
X6146518Y-19583142D02*
X6184613Y-19583142D01*
X6184613Y-19583142D02*
X6203661Y-19592665D01*
X6203661Y-19592665D02*
X6213184Y-19611713D01*
X6213184Y-19611713D02*
X6213184Y-19630761D01*
X6213184Y-19630761D02*
X6117946Y-19649808D01*
X6289375Y-19706951D02*
X6308423Y-19716475D01*
X6308423Y-19716475D02*
X6346518Y-19716475D01*
X6346518Y-19716475D02*
X6365565Y-19706951D01*
X6365565Y-19706951D02*
X6375089Y-19687904D01*
X6375089Y-19687904D02*
X6375089Y-19678380D01*
X6375089Y-19678380D02*
X6365565Y-19659332D01*
X6365565Y-19659332D02*
X6346518Y-19649808D01*
X6346518Y-19649808D02*
X6317946Y-19649808D01*
X6317946Y-19649808D02*
X6298899Y-19640285D01*
X6298899Y-19640285D02*
X6289375Y-19621237D01*
X6289375Y-19621237D02*
X6289375Y-19611713D01*
X6289375Y-19611713D02*
X6298899Y-19592665D01*
X6298899Y-19592665D02*
X6317946Y-19583142D01*
X6317946Y-19583142D02*
X6346518Y-19583142D01*
X6346518Y-19583142D02*
X6365565Y-19592665D01*
X6441756Y-19792665D02*
X6451280Y-19783142D01*
X6451280Y-19783142D02*
X6470327Y-19754570D01*
X6470327Y-19754570D02*
X6479851Y-19735523D01*
X6479851Y-19735523D02*
X6489375Y-19706951D01*
X6489375Y-19706951D02*
X6498899Y-19659332D01*
X6498899Y-19659332D02*
X6498899Y-19621237D01*
X6498899Y-19621237D02*
X6489375Y-19573618D01*
X6489375Y-19573618D02*
X6479851Y-19545046D01*
X6479851Y-19545046D02*
X6470327Y-19525999D01*
X6470327Y-19525999D02*
X6451280Y-19497427D01*
X6451280Y-19497427D02*
X6441756Y-19487904D01*
X6803661Y-19792665D02*
X6794137Y-19783142D01*
X6794137Y-19783142D02*
X6775089Y-19754570D01*
X6775089Y-19754570D02*
X6765565Y-19735523D01*
X6765565Y-19735523D02*
X6756042Y-19706951D01*
X6756042Y-19706951D02*
X6746518Y-19659332D01*
X6746518Y-19659332D02*
X6746518Y-19621237D01*
X6746518Y-19621237D02*
X6756042Y-19573618D01*
X6756042Y-19573618D02*
X6765565Y-19545046D01*
X6765565Y-19545046D02*
X6775089Y-19525999D01*
X6775089Y-19525999D02*
X6794137Y-19497427D01*
X6794137Y-19497427D02*
X6803661Y-19487904D01*
X6879851Y-19583142D02*
X6879851Y-19716475D01*
X6879851Y-19602189D02*
X6889375Y-19592665D01*
X6889375Y-19592665D02*
X6908423Y-19583142D01*
X6908423Y-19583142D02*
X6936994Y-19583142D01*
X6936994Y-19583142D02*
X6956042Y-19592665D01*
X6956042Y-19592665D02*
X6965565Y-19611713D01*
X6965565Y-19611713D02*
X6965565Y-19716475D01*
X7089375Y-19716475D02*
X7070327Y-19706951D01*
X7070327Y-19706951D02*
X7060804Y-19697427D01*
X7060804Y-19697427D02*
X7051280Y-19678380D01*
X7051280Y-19678380D02*
X7051280Y-19621237D01*
X7051280Y-19621237D02*
X7060804Y-19602189D01*
X7060804Y-19602189D02*
X7070327Y-19592665D01*
X7070327Y-19592665D02*
X7089375Y-19583142D01*
X7089375Y-19583142D02*
X7117946Y-19583142D01*
X7117946Y-19583142D02*
X7136994Y-19592665D01*
X7136994Y-19592665D02*
X7146518Y-19602189D01*
X7146518Y-19602189D02*
X7156042Y-19621237D01*
X7156042Y-19621237D02*
X7156042Y-19678380D01*
X7156042Y-19678380D02*
X7146518Y-19697427D01*
X7146518Y-19697427D02*
X7136994Y-19706951D01*
X7136994Y-19706951D02*
X7117946Y-19716475D01*
X7117946Y-19716475D02*
X7089375Y-19716475D01*
X7213185Y-19583142D02*
X7289375Y-19583142D01*
X7241756Y-19516475D02*
X7241756Y-19687904D01*
X7241756Y-19687904D02*
X7251280Y-19706951D01*
X7251280Y-19706951D02*
X7270327Y-19716475D01*
X7270327Y-19716475D02*
X7289375Y-19716475D01*
X7508423Y-19583142D02*
X7508423Y-19783142D01*
X7508423Y-19592665D02*
X7527470Y-19583142D01*
X7527470Y-19583142D02*
X7565566Y-19583142D01*
X7565566Y-19583142D02*
X7584613Y-19592665D01*
X7584613Y-19592665D02*
X7594137Y-19602189D01*
X7594137Y-19602189D02*
X7603661Y-19621237D01*
X7603661Y-19621237D02*
X7603661Y-19678380D01*
X7603661Y-19678380D02*
X7594137Y-19697427D01*
X7594137Y-19697427D02*
X7584613Y-19706951D01*
X7584613Y-19706951D02*
X7565566Y-19716475D01*
X7565566Y-19716475D02*
X7527470Y-19716475D01*
X7527470Y-19716475D02*
X7508423Y-19706951D01*
X7717946Y-19716475D02*
X7698899Y-19706951D01*
X7698899Y-19706951D02*
X7689375Y-19687904D01*
X7689375Y-19687904D02*
X7689375Y-19516475D01*
X7879851Y-19716475D02*
X7879851Y-19611713D01*
X7879851Y-19611713D02*
X7870327Y-19592665D01*
X7870327Y-19592665D02*
X7851280Y-19583142D01*
X7851280Y-19583142D02*
X7813185Y-19583142D01*
X7813185Y-19583142D02*
X7794137Y-19592665D01*
X7879851Y-19706951D02*
X7860804Y-19716475D01*
X7860804Y-19716475D02*
X7813185Y-19716475D01*
X7813185Y-19716475D02*
X7794137Y-19706951D01*
X7794137Y-19706951D02*
X7784613Y-19687904D01*
X7784613Y-19687904D02*
X7784613Y-19668856D01*
X7784613Y-19668856D02*
X7794137Y-19649808D01*
X7794137Y-19649808D02*
X7813185Y-19640285D01*
X7813185Y-19640285D02*
X7860804Y-19640285D01*
X7860804Y-19640285D02*
X7879851Y-19630761D01*
X7946518Y-19583142D02*
X8022708Y-19583142D01*
X7975089Y-19516475D02*
X7975089Y-19687904D01*
X7975089Y-19687904D02*
X7984613Y-19706951D01*
X7984613Y-19706951D02*
X8003661Y-19716475D01*
X8003661Y-19716475D02*
X8022708Y-19716475D01*
X8165566Y-19706951D02*
X8146518Y-19716475D01*
X8146518Y-19716475D02*
X8108423Y-19716475D01*
X8108423Y-19716475D02*
X8089375Y-19706951D01*
X8089375Y-19706951D02*
X8079851Y-19687904D01*
X8079851Y-19687904D02*
X8079851Y-19611713D01*
X8079851Y-19611713D02*
X8089375Y-19592665D01*
X8089375Y-19592665D02*
X8108423Y-19583142D01*
X8108423Y-19583142D02*
X8146518Y-19583142D01*
X8146518Y-19583142D02*
X8165566Y-19592665D01*
X8165566Y-19592665D02*
X8175089Y-19611713D01*
X8175089Y-19611713D02*
X8175089Y-19630761D01*
X8175089Y-19630761D02*
X8079851Y-19649808D01*
X8346518Y-19716475D02*
X8346518Y-19516475D01*
X8346518Y-19706951D02*
X8327470Y-19716475D01*
X8327470Y-19716475D02*
X8289375Y-19716475D01*
X8289375Y-19716475D02*
X8270327Y-19706951D01*
X8270327Y-19706951D02*
X8260804Y-19697427D01*
X8260804Y-19697427D02*
X8251280Y-19678380D01*
X8251280Y-19678380D02*
X8251280Y-19621237D01*
X8251280Y-19621237D02*
X8260804Y-19602189D01*
X8260804Y-19602189D02*
X8270327Y-19592665D01*
X8270327Y-19592665D02*
X8289375Y-19583142D01*
X8289375Y-19583142D02*
X8327470Y-19583142D01*
X8327470Y-19583142D02*
X8346518Y-19592665D01*
X8422709Y-19792665D02*
X8432232Y-19783142D01*
X8432232Y-19783142D02*
X8451280Y-19754570D01*
X8451280Y-19754570D02*
X8460804Y-19735523D01*
X8460804Y-19735523D02*
X8470328Y-19706951D01*
X8470328Y-19706951D02*
X8479851Y-19659332D01*
X8479851Y-19659332D02*
X8479851Y-19621237D01*
X8479851Y-19621237D02*
X8470328Y-19573618D01*
X8470328Y-19573618D02*
X8460804Y-19545046D01*
X8460804Y-19545046D02*
X8451280Y-19525999D01*
X8451280Y-19525999D02*
X8432232Y-19497427D01*
X8432232Y-19497427D02*
X8422709Y-19487904D01*
M02*
